<svg width="120" height="80" viewBox="0 0 120 80" fill="none" xmlns="http://www.w3.org/2000/svg">
<g clip-path="url(#clip0_2944_65)">
<rect width="120" height="80" fill="url(#paint0_linear_2944_65)"/>
<g filter="url(#filter0_dddd_2944_65)">
<rect x="30.6" y="20.8706" width="340.8" height="37.5537" rx="18.7769" fill="white" fill-opacity="0.8"/>
<rect x="31.0694" y="21.34" width="339.861" height="36.6149" rx="18.3074" stroke="#DBDBDB" stroke-width="0.938843"/>
<path d="M55.6564 42.991L58.7575 46.0922L57.7335 47.1162L54.6324 44.0151C53.5174 44.9072 52.1033 45.4408 50.5653 45.4408C46.9679 45.4408 44.0483 42.5212 44.0483 38.9239C44.0483 35.3266 46.9679 32.407 50.5653 32.407C54.1626 32.407 57.0822 35.3266 57.0822 38.9239C57.0822 40.4619 56.5485 41.876 55.6564 42.991ZM54.2037 42.4538C55.0891 41.5412 55.634 40.2965 55.634 38.9239C55.634 36.1234 53.3657 33.8552 50.5653 33.8552C47.7648 33.8552 45.4965 36.1234 45.4965 38.9239C45.4965 41.7244 47.7648 43.9926 50.5653 43.9926C51.9379 43.9926 53.1826 43.4477 54.0951 42.5623L54.2037 42.4538Z" fill="#6C727E"/>
</g>
</g>
<defs>
<filter id="filter0_dddd_2944_65" x="-6.95374" y="13.8839" width="415.907" height="174.668" filterUnits="userSpaceOnUse" color-interpolation-filters="sRGB">
<feFlood flood-opacity="0" result="BackgroundImageFix"/>
<feColorMatrix in="SourceAlpha" type="matrix" values="0 0 0 0 0 0 0 0 0 0 0 0 0 0 0 0 0 0 127 0" result="hardAlpha"/>
<feOffset dy="6.1134"/>
<feGaussianBlur stdDeviation="6.55007"/>
<feColorMatrix type="matrix" values="0 0 0 0 0 0 0 0 0 0 0 0 0 0 0 0 0 0 0.05 0"/>
<feBlend mode="normal" in2="BackgroundImageFix" result="effect1_dropShadow_2944_65"/>
<feColorMatrix in="SourceAlpha" type="matrix" values="0 0 0 0 0 0 0 0 0 0 0 0 0 0 0 0 0 0 127 0" result="hardAlpha"/>
<feOffset dy="23.5802"/>
<feGaussianBlur stdDeviation="11.7901"/>
<feColorMatrix type="matrix" values="0 0 0 0 0 0 0 0 0 0 0 0 0 0 0 0 0 0 0.04 0"/>
<feBlend mode="normal" in2="effect1_dropShadow_2944_65" result="effect2_dropShadow_2944_65"/>
<feColorMatrix in="SourceAlpha" type="matrix" values="0 0 0 0 0 0 0 0 0 0 0 0 0 0 0 0 0 0 127 0" result="hardAlpha"/>
<feOffset dy="52.4005"/>
<feGaussianBlur stdDeviation="15.7202"/>
<feColorMatrix type="matrix" values="0 0 0 0 0 0 0 0 0 0 0 0 0 0 0 0 0 0 0.03 0"/>
<feBlend mode="normal" in2="effect2_dropShadow_2944_65" result="effect3_dropShadow_2944_65"/>
<feColorMatrix in="SourceAlpha" type="matrix" values="0 0 0 0 0 0 0 0 0 0 0 0 0 0 0 0 0 0 127 0" result="hardAlpha"/>
<feOffset dy="92.5743"/>
<feGaussianBlur stdDeviation="18.7769"/>
<feColorMatrix type="matrix" values="0 0 0 0 0 0 0 0 0 0 0 0 0 0 0 0 0 0 0.01 0"/>
<feBlend mode="normal" in2="effect3_dropShadow_2944_65" result="effect4_dropShadow_2944_65"/>
<feBlend mode="normal" in="SourceGraphic" in2="effect4_dropShadow_2944_65" result="shape"/>
</filter>
<linearGradient id="paint0_linear_2944_65" x1="60" y1="0" x2="60" y2="80" gradientUnits="userSpaceOnUse">
<stop stop-color="#F0F0F0"/>
<stop offset="1" stop-color="#FDFDFD"/>
</linearGradient>
<clipPath id="clip0_2944_65">
<rect width="120" height="80" fill="white"/>
</clipPath>
</defs>
</svg>
