<svg preserveAspectRatio="xMidYMid meet" width="112" height="25.1557" overflow="visible" style="display: block;" viewBox="0 0 112 25.1557" fill="none" xmlns="http://www.w3.org/2000/svg">
<g id="Frame 1082">
<g id="Lumno" filter="url(#filter0_di_0_4)">
<path d="M3 0H6.90585V21.7187H18.6059V23.2249H3V0Z" fill="var(--fill-0, #2F2F2F)" fill-opacity="0.1" shape-rendering="crispEdges"/>
<path d="M23.8709 5.28954V18.058C23.8709 18.5017 23.9702 18.9221 24.1687 19.3191C24.3789 19.7161 24.6649 20.0606 25.0269 20.3525C25.3889 20.6444 25.8034 20.8779 26.2705 21.0531C26.7492 21.2166 27.263 21.2983 27.8118 21.2983C28.1621 21.2983 28.5358 21.2224 28.9328 21.0706C29.3415 20.9188 29.7385 20.7145 30.1238 20.4576C30.5091 20.189 30.8653 19.8796 31.1922 19.5293C31.5308 19.1673 31.8169 18.7878 32.0505 18.3908V5.28954H35.5885V23.2249H32.0505V19.8621C31.7352 20.3758 31.3382 20.8604 30.8594 21.3158C30.3924 21.7712 29.8844 22.1682 29.3356 22.5068C28.7868 22.8455 28.2205 23.114 27.6367 23.3125C27.0528 23.511 26.4982 23.6103 25.9727 23.6103C25.1904 23.6103 24.4548 23.4643 23.7658 23.1724C23.0769 22.8805 22.4756 22.4835 21.9618 21.9814C21.448 21.4793 21.0393 20.8896 20.7357 20.2124C20.4438 19.5351 20.2979 18.817 20.2979 18.058V5.28954H23.8709Z" fill="var(--fill-0, #2F2F2F)" fill-opacity="0.1" shape-rendering="crispEdges"/>
<path d="M42.6751 4.95676H43.691V8.66995C44.1463 8.17953 44.6601 7.71246 45.2323 7.26874C45.8044 6.81335 46.3941 6.41634 47.0013 6.07772C47.6085 5.72742 48.2157 5.45302 48.8229 5.25451C49.43 5.05601 50.008 4.95676 50.5568 4.95676C51.0823 4.95676 51.6136 5.05017 52.1507 5.237C52.6995 5.42383 53.2016 5.68655 53.657 6.02518C54.1241 6.3638 54.5211 6.76665 54.848 7.23371C55.1867 7.6891 55.4085 8.1912 55.5136 8.74001C55.8055 8.21456 56.2084 7.72413 56.7221 7.26874C57.2476 6.80168 57.8256 6.39883 58.4561 6.06021C59.0867 5.72158 59.7522 5.45302 60.4529 5.25451C61.1651 5.05601 61.8599 4.95676 62.5371 4.95676C63.2144 4.95676 63.8449 5.10855 64.4288 5.41215C65.0243 5.70407 65.5439 6.10691 65.9876 6.62069C66.4313 7.12278 66.7816 7.7183 67.0385 8.40722C67.2954 9.08447 67.4238 9.80843 67.4238 10.5791V23.2249H63.8683V11.0695C63.8683 10.5674 63.7807 10.0945 63.6056 9.65079C63.4421 9.1954 63.2144 8.79839 62.9225 8.45977C62.6306 8.12114 62.2861 7.85258 61.8891 7.65407C61.5038 7.45557 61.0951 7.35632 60.663 7.35632C60.1726 7.35632 59.6705 7.42638 59.1567 7.5665C58.6546 7.69494 58.1759 7.87593 57.7205 8.10947C57.2651 8.343 56.8506 8.6174 56.4769 8.93267C56.1033 9.23627 55.8055 9.56321 55.5837 9.91352V23.2249H52.0281V11.0695C52.0281 10.5674 51.9405 10.0945 51.7654 9.65079C51.5902 9.1954 51.3567 8.79839 51.0648 8.45977C50.7729 8.12114 50.4284 7.85258 50.0314 7.65407C49.6344 7.45557 49.2199 7.35632 48.7878 7.35632C48.3324 7.35632 47.8595 7.42638 47.3691 7.5665C46.8904 7.70662 46.4175 7.89345 45.9504 8.12698C45.495 8.36051 45.0688 8.63492 44.6718 8.95019C44.2748 9.25378 43.9478 9.57489 43.691 9.91352V23.2249H40.1179V5.95512L42.6751 4.95676Z" fill="var(--fill-0, #2F2F2F)" fill-opacity="0.1" shape-rendering="crispEdges"/>
<path d="M74.5104 4.95676H75.5263V8.58237C76.6122 7.368 77.739 6.46305 78.9067 5.86754C80.0744 5.26035 81.2596 4.95676 82.4623 4.95676C83.0928 4.95676 83.6766 5.09688 84.2138 5.37712C84.7626 5.65736 85.2413 6.04269 85.65 6.53311C86.0587 7.02353 86.3798 7.60153 86.6133 8.2671C86.8469 8.921 86.9636 9.6216 86.9636 10.3689V23.2249H83.4081V10.9819C83.4081 10.3864 83.338 9.86681 83.1979 9.42309C83.0578 8.9677 82.8593 8.58821 82.6024 8.28462C82.3455 7.98102 82.0419 7.75333 81.6916 7.60153C81.353 7.43806 80.9735 7.35632 80.5531 7.35632C80.1795 7.35632 79.7825 7.42054 79.3621 7.54898C78.9417 7.67743 78.5097 7.85842 78.066 8.09195C77.6339 8.31381 77.2019 8.58237 76.7699 8.89764C76.3378 9.21291 75.9233 9.56321 75.5263 9.94855V23.2249H71.9532V5.95512L74.5104 4.95676Z" fill="var(--fill-0, #2F2F2F)" fill-opacity="0.1" shape-rendering="crispEdges"/>
<path d="M99.7601 23.6103C98.3823 23.6103 97.1153 23.3709 95.9594 22.8922C94.8034 22.4134 93.805 21.7654 92.9643 20.948C92.1235 20.1189 91.4638 19.1556 90.9851 18.058C90.518 16.9487 90.2845 15.7635 90.2845 14.5025C90.2845 13.183 90.518 11.9453 90.9851 10.7893C91.4638 9.6216 92.1235 8.60573 92.9643 7.74165C93.805 6.87757 94.8034 6.20033 95.9594 5.7099C97.1153 5.20781 98.3823 4.95676 99.7601 4.95676C101.126 4.95676 102.382 5.18445 103.526 5.63984C104.682 6.09524 105.68 6.71994 106.521 7.51395C107.362 8.30797 108.016 9.24211 108.483 10.3164C108.961 11.3789 109.201 12.5233 109.201 13.7493C109.201 15.1038 108.961 16.3824 108.483 17.5851C108.016 18.7761 107.362 19.8212 106.521 20.7203C105.68 21.6077 104.682 22.3142 103.526 22.8396C102.382 23.3534 101.126 23.6103 99.7601 23.6103ZM100.443 22.2967C101.144 22.2967 101.786 22.1157 102.37 21.7537C102.954 21.3917 103.456 20.9071 103.876 20.2999C104.297 19.6811 104.623 18.9688 104.857 18.1631C105.091 17.3574 105.207 16.505 105.207 15.6059C105.207 14.3098 105.096 13.0954 104.875 11.9628C104.653 10.8301 104.291 9.84346 103.789 9.00273C103.286 8.16201 102.633 7.50228 101.827 7.02353C101.021 6.53311 100.04 6.2879 98.8844 6.2879C98.2888 6.2879 97.7108 6.46305 97.1504 6.81335C96.5899 7.15198 96.0936 7.61904 95.6616 8.21456C95.2412 8.81007 94.9026 9.51067 94.6457 10.3164C94.3888 11.1104 94.2604 11.9569 94.2604 12.856C94.2604 14.1638 94.3947 15.3899 94.6632 16.5342C94.9435 17.6785 95.3463 18.6769 95.8718 19.5293C96.4089 20.3817 97.057 21.0589 97.8159 21.561C98.5866 22.0514 99.4624 22.2967 100.443 22.2967Z" fill="var(--fill-0, #2F2F2F)" fill-opacity="0.1" shape-rendering="crispEdges"/>
</g>
</g>
<defs>
<filter id="filter0_di_0_4" x="3" y="0" width="107.746" height="25.1557" filterUnits="userSpaceOnUse" color-interpolation-filters="sRGB">
<feFlood flood-opacity="0" result="BackgroundImageFix"/>
<feColorMatrix in="SourceAlpha" type="matrix" values="0 0 0 0 0 0 0 0 0 0 0 0 0 0 0 0 0 0 127 0" result="hardAlpha"/>
<feOffset dx="0.772727" dy="0.772727"/>
<feGaussianBlur stdDeviation="0.386364"/>
<feComposite in2="hardAlpha" operator="out"/>
<feColorMatrix type="matrix" values="0 0 0 0 1 0 0 0 0 1 0 0 0 0 1 0 0 0 1 0"/>
<feBlend mode="normal" in2="BackgroundImageFix" result="effect1_dropShadow_0_4"/>
<feBlend mode="normal" in="SourceGraphic" in2="effect1_dropShadow_0_4" result="shape"/>
<feColorMatrix in="SourceAlpha" type="matrix" values="0 0 0 0 0 0 0 0 0 0 0 0 0 0 0 0 0 0 127 0" result="hardAlpha"/>
<feOffset dy="0.772727"/>
<feGaussianBlur stdDeviation="0.193182"/>
<feComposite in2="hardAlpha" operator="arithmetic" k2="-1" k3="1"/>
<feColorMatrix type="matrix" values="0 0 0 0 0 0 0 0 0 0 0 0 0 0 0 0 0 0 0.03 0"/>
<feBlend mode="normal" in2="shape" result="effect2_innerShadow_0_4"/>
</filter>
</defs>
</svg>
