<svg width="298" height="120" viewBox="0 0 298 120" fill="none" xmlns="http://www.w3.org/2000/svg">
<g opacity="0.5">
<path opacity="0.5" d="M274.822 13.1918C273.874 13.1918 273.144 12.8195 272.633 12.0747C272.121 11.3299 271.865 10.2429 271.865 8.81354C271.865 7.39172 272.121 6.30843 272.633 5.56367C273.144 4.81891 273.874 4.44653 274.822 4.44653C275.77 4.44653 276.496 4.81891 277 5.56367C277.511 6.30091 277.767 7.3842 277.767 8.81354C277.767 10.2429 277.511 11.3299 277 12.0747C276.496 12.8195 275.77 13.1918 274.822 13.1918ZM274.822 12.1424C275.386 12.1424 275.822 11.8603 276.131 11.2961C276.447 10.7319 276.605 9.90435 276.605 8.81354C276.605 7.72273 276.447 6.89898 276.131 6.34229C275.822 5.77807 275.386 5.49597 274.822 5.49597C274.25 5.49597 273.806 5.77807 273.49 6.34229C273.182 6.89898 273.028 7.72273 273.028 8.81354C273.028 9.90435 273.182 10.7319 273.49 11.2961C273.806 11.8603 274.25 12.1424 274.822 12.1424Z" fill="#ACACE6"/>
<path d="M285.475 13.0339H284.346V5.9022L282.62 6.80494V5.63138L284.595 4.60451H285.475V13.0339Z" fill="#ACACE6"/>
<path opacity="0.5" d="M284.635 26.2759C283.688 26.2759 282.958 25.9036 282.446 25.1588C281.935 24.414 281.679 23.327 281.679 21.8976C281.679 20.4758 281.935 19.3925 282.446 18.6478C282.958 17.903 283.688 17.5306 284.635 17.5306C285.583 17.5306 286.309 17.903 286.813 18.6478C287.325 19.385 287.581 20.4683 287.581 21.8976C287.581 23.327 287.325 24.414 286.813 25.1588C286.309 25.9036 285.583 26.2759 284.635 26.2759ZM284.635 25.2265C285.2 25.2265 285.636 24.9444 285.944 24.3802C286.26 23.816 286.418 22.9885 286.418 21.8976C286.418 20.8068 286.26 19.9831 285.944 19.4264C285.636 18.8622 285.2 18.5801 284.635 18.5801C284.064 18.5801 283.62 18.8622 283.304 19.4264C282.995 19.9831 282.841 20.8068 282.841 21.8976C282.841 22.9885 282.995 23.816 283.304 24.3802C283.62 24.9444 284.064 25.2265 284.635 25.2265Z" fill="#ACACE6"/>
<path d="M275.661 26.118H274.532V18.9863L272.806 19.889V18.7155L274.781 17.6886H275.661V26.118Z" fill="#ACACE6"/>
<path opacity="0.5" d="M265.008 26.2759C264.06 26.2759 263.33 25.9036 262.819 25.1588C262.307 24.414 262.051 23.327 262.051 21.8976C262.051 20.4758 262.307 19.3925 262.819 18.6478C263.33 17.903 264.06 17.5306 265.008 17.5306C265.956 17.5306 266.682 17.903 267.186 18.6478C267.697 19.385 267.953 20.4683 267.953 21.8976C267.953 23.327 267.697 24.414 267.186 25.1588C266.682 25.9036 265.956 26.2759 265.008 26.2759ZM265.008 25.2265C265.572 25.2265 266.008 24.9444 266.317 24.3802C266.633 23.816 266.791 22.9885 266.791 21.8976C266.791 20.8068 266.633 19.9831 266.317 19.4264C266.008 18.8622 265.572 18.5801 265.008 18.5801C264.436 18.5801 263.992 18.8622 263.676 19.4264C263.368 19.9831 263.214 20.8068 263.214 21.8976C263.214 22.9885 263.368 23.816 263.676 24.3802C263.992 24.9444 264.436 25.2265 265.008 25.2265Z" fill="#ACACE6"/>
</g>
<rect x="140.254" y="17.492" width="125" height="78" rx="9.5" transform="rotate(4.9369 140.254 17.492)" fill="white"/>
<rect x="140.254" y="17.492" width="125" height="78" rx="9.5" transform="rotate(4.9369 140.254 17.492)" fill="url(#paint0_linear_3359_444)"/>
<rect x="140.254" y="17.492" width="125" height="78" rx="9.5" transform="rotate(4.9369 140.254 17.492)" stroke="#F1F1F1"/>
<rect x="140.254" y="17.492" width="125" height="78" rx="9.5" transform="rotate(4.9369 140.254 17.492)" stroke="url(#paint1_linear_3359_444)"/>
<g filter="url(#filter0_dddd_3359_444)">
<path d="M197.832 77.1685C189.578 76.4555 183.465 69.1867 184.178 60.9332C184.891 52.6797 192.16 46.5668 200.413 47.2798C208.667 47.9927 214.78 55.2615 214.067 63.515C213.354 71.7685 206.085 77.8814 197.832 77.1685ZM197.526 56.6881C197.433 56.6141 197.321 56.5692 197.203 56.559C196.873 56.5305 196.582 56.775 196.553 57.1052L195.714 66.8267C195.704 66.9448 195.729 67.0632 195.786 67.167C195.945 67.4575 196.31 67.5639 196.6 67.4044L204.311 63.1734C204.381 63.1353 204.442 63.0838 204.491 63.022C204.698 62.7631 204.656 62.3855 204.397 62.1787L197.526 56.6881Z" fill="#424242"/>
</g>
<rect x="175.53" y="10" width="55.9867" height="19.28" rx="9.64" transform="rotate(4.9369 175.53 10)" fill="url(#paint2_linear_3359_444)"/>
<path d="M185.783 16.9081L186.729 16.9898L188.915 24.3452L188.028 24.2686L187.443 22.2106L184.175 21.9283L183.246 23.8555L182.369 23.7798L185.783 16.9081ZM184.493 21.2633L187.243 21.5008L186.205 17.8278L186.166 17.8244L184.493 21.2633Z" fill="white"/>
<path d="M189.979 19.2479L190.776 19.3168L190.505 22.465C190.462 22.9532 190.53 23.3304 190.719 23.5876C190.907 23.8448 191.235 24.0036 191.703 24.044C192.042 24.0733 192.363 23.9605 192.654 23.7247C192.957 23.4698 193.158 23.1258 193.255 22.6926L193.526 19.5543L194.323 19.6231L193.878 24.7739L193.081 24.7051L193.15 23.9081C192.678 24.4896 192.093 24.7602 191.395 24.7C190.14 24.5916 189.584 23.8308 189.704 22.436L189.979 19.2479Z" fill="white"/>
<path d="M197.073 18.1844L196.929 19.8482L198.205 19.9584L198.147 20.6259L196.872 20.5157L196.588 23.7935C196.572 23.9828 196.59 24.1249 196.663 24.2115C196.726 24.2972 196.851 24.3582 197.03 24.3737L197.688 24.4305L197.63 25.098L196.853 25.0309C196.435 24.9947 196.135 24.8585 195.975 24.6238C195.823 24.4099 195.768 24.1141 195.801 23.7256L196.085 20.4478L195.048 20.3583L195.106 19.6907L196.142 19.7802L196.258 18.4452L197.073 18.1844Z" fill="white"/>
<path d="M201.409 20.0947C202.177 20.161 202.772 20.4734 203.184 21.0509C203.578 21.5969 203.742 22.2535 203.675 23.0306C203.609 23.7977 203.335 24.4164 202.863 24.8775C202.348 25.3751 201.707 25.5907 200.94 25.5245C200.163 25.4573 199.579 25.1359 199.167 24.5583C198.772 24.0223 198.607 23.3657 198.674 22.5986C198.741 21.8215 199.015 21.2028 199.497 20.7325C200.002 20.2341 200.632 20.0276 201.409 20.0947ZM201.352 20.7622C200.804 20.7149 200.357 20.8871 200.022 21.2797C199.711 21.6342 199.541 22.0913 199.491 22.6691C199.442 23.237 199.531 23.7165 199.777 24.1191C200.04 24.5634 200.45 24.8096 200.998 24.857C201.536 24.9034 201.982 24.7312 202.337 24.3403C202.639 23.985 202.82 23.5188 202.868 22.9609C202.918 22.383 202.819 21.9027 202.583 21.5009C202.3 21.0549 201.89 20.8087 201.352 20.7622Z" fill="white"/>
<path d="M208.52 18.8721L211.43 19.1234C213.063 19.2646 213.82 20.0325 213.7 21.4273C213.578 22.8321 212.69 23.468 211.056 23.3269L208.974 23.147L208.723 26.0562L207.906 25.9856L208.52 18.8721ZM209.276 19.6501L209.035 22.4397L211.078 22.6161C211.656 22.666 212.084 22.5826 212.383 22.3775C212.672 22.1716 212.841 21.835 212.883 21.3568C212.924 20.8785 212.815 20.5178 212.554 20.2845C212.296 20.0213 211.887 19.8755 211.319 19.8265L209.276 19.6501Z" fill="white"/>
<path d="M215.469 19.4924C215.638 19.507 215.773 19.5689 215.883 19.6988C215.994 19.8087 216.041 19.9534 216.026 20.1327C216.011 20.3021 215.939 20.4364 215.809 20.5456C215.68 20.6449 215.536 20.6926 215.366 20.678C215.197 20.6634 215.063 20.5915 214.953 20.4716C214.843 20.3417 214.806 20.1979 214.82 20.0286C214.836 19.8492 214.898 19.7141 215.026 19.6248C215.156 19.5155 215.299 19.4778 215.469 19.4924ZM214.902 21.4007L215.7 21.4696L215.255 26.6204L214.458 26.5516L214.902 21.4007Z" fill="white"/>
<path d="M217.462 19.6445L220.371 19.8958C222.005 20.0369 222.762 20.8049 222.641 22.1997C222.52 23.6044 221.632 24.2404 219.998 24.0992L217.916 23.9194L217.664 26.8285L216.847 26.758L217.462 19.6445ZM218.218 20.4224L217.977 23.212L220.019 23.3884C220.597 23.4383 221.026 23.3549 221.324 23.1499C221.613 22.944 221.783 22.6073 221.824 22.1291C221.865 21.6509 221.756 21.2901 221.495 21.0568C221.237 20.7936 220.828 20.6479 220.26 20.5988L218.218 20.4224Z" fill="white"/>
<g opacity="0.5">
<path opacity="0.5" d="M112.821 85.9686C111.874 85.9686 111.144 85.5962 110.632 84.8514C110.121 84.1067 109.865 83.0196 109.865 81.5903C109.865 80.1685 110.121 79.0852 110.632 78.3404C111.144 77.5956 111.874 77.2233 112.821 77.2233C113.769 77.2233 114.495 77.5956 114.999 78.3404C115.511 79.0776 115.767 80.1609 115.767 81.5903C115.767 83.0196 115.511 84.1067 114.999 84.8514C114.495 85.5962 113.769 85.9686 112.821 85.9686ZM112.821 84.9191C113.386 84.9191 113.822 84.637 114.13 84.0728C114.446 83.5086 114.604 82.6811 114.604 81.5903C114.604 80.4995 114.446 79.6757 114.13 79.119C113.822 78.5548 113.386 78.2727 112.821 78.2727C112.25 78.2727 111.806 78.5548 111.49 79.119C111.181 79.6757 111.027 80.4995 111.027 81.5903C111.027 82.6811 111.181 83.5086 111.49 84.0728C111.806 84.637 112.25 84.9191 112.821 84.9191Z" fill="#ACACE6"/>
<path opacity="0.5" d="M113.661 74.0348H112.532V66.9032L110.806 67.8059V66.6324L112.781 65.6055H113.661V74.0348Z" fill="#ACACE6"/>
<path d="M123.475 85.8106H122.346V78.6789L120.62 79.5817V78.4081L122.594 77.3812H123.475V85.8106Z" fill="#ACACE6"/>
<path d="M113.661 98.8966H112.532V91.765L110.806 92.6677V91.4942L112.781 90.4673H113.661V98.8966Z" fill="#ACACE6"/>
<path opacity="0.5" d="M103.008 99.0546C102.06 99.0546 101.33 98.6822 100.819 97.9375C100.307 97.1927 100.051 96.1057 100.051 94.6763C100.051 93.2545 100.307 92.1712 100.819 91.4265C101.33 90.6817 102.06 90.3093 103.008 90.3093C103.956 90.3093 104.682 90.6817 105.186 91.4265C105.697 92.1637 105.953 93.247 105.953 94.6763C105.953 96.1057 105.697 97.1927 105.186 97.9375C104.682 98.6822 103.956 99.0546 103.008 99.0546ZM103.008 98.0052C103.572 98.0052 104.008 97.7231 104.317 97.1589C104.633 96.5947 104.791 95.7671 104.791 94.6763C104.791 93.5855 104.633 92.7618 104.317 92.2051C104.008 91.6409 103.572 91.3588 103.008 91.3588C102.436 91.3588 101.992 91.6409 101.676 92.2051C101.368 92.7618 101.214 93.5855 101.214 94.6763C101.214 95.7671 101.368 96.5947 101.676 97.1589C101.992 97.7231 102.436 98.0052 103.008 98.0052Z" fill="#ACACE6"/>
</g>
<path opacity="0.2" d="M126.671 27.8103C127.376 27.8317 127.675 28.7197 127.125 29.1628C124.541 31.2456 122.996 34.3533 122.895 37.6705C122.873 38.3764 121.986 38.6746 121.542 38.1248C119.46 35.5409 116.352 33.9958 113.035 33.8949C112.329 33.8734 112.031 32.9854 112.58 32.5423C115.164 30.4595 116.709 27.3519 116.81 24.0346C116.832 23.3288 117.72 23.0305 118.163 23.5803C120.246 26.1643 123.353 27.7094 126.671 27.8103Z" fill="#D3D3D7"/>
<path opacity="0.24" d="M280.806 74.5711C281.252 74.5847 281.441 75.1462 281.093 75.4264C279.459 76.7434 278.482 78.7085 278.419 80.8062C278.405 81.2525 277.844 81.4411 277.563 81.0935C276.246 79.4595 274.281 78.4825 272.184 78.4187C271.737 78.4051 271.549 77.8436 271.896 77.5634C273.53 76.2464 274.507 74.2813 274.571 72.1836C274.585 71.7373 275.146 71.5487 275.426 71.8963C276.743 73.5303 278.708 74.5073 280.806 74.5711Z" fill="#D3D3D7"/>
<defs>
<filter id="filter0_dddd_3359_444" x="175.64" y="41.7418" width="50.9646" height="59.9646" filterUnits="userSpaceOnUse" color-interpolation-filters="sRGB">
<feFlood flood-opacity="0" result="BackgroundImageFix"/>
<feColorMatrix in="SourceAlpha" type="matrix" values="0 0 0 0 0 0 0 0 0 0 0 0 0 0 0 0 0 0 127 0" result="hardAlpha"/>
<feOffset dy="1"/>
<feGaussianBlur stdDeviation="1"/>
<feColorMatrix type="matrix" values="0 0 0 0 0 0 0 0 0 0 0 0 0 0 0 0 0 0 0.1 0"/>
<feBlend mode="normal" in2="BackgroundImageFix" result="effect1_dropShadow_3359_444"/>
<feColorMatrix in="SourceAlpha" type="matrix" values="0 0 0 0 0 0 0 0 0 0 0 0 0 0 0 0 0 0 127 0" result="hardAlpha"/>
<feOffset dy="4"/>
<feGaussianBlur stdDeviation="2"/>
<feColorMatrix type="matrix" values="0 0 0 0 0 0 0 0 0 0 0 0 0 0 0 0 0 0 0.09 0"/>
<feBlend mode="normal" in2="effect1_dropShadow_3359_444" result="effect2_dropShadow_3359_444"/>
<feColorMatrix in="SourceAlpha" type="matrix" values="0 0 0 0 0 0 0 0 0 0 0 0 0 0 0 0 0 0 127 0" result="hardAlpha"/>
<feOffset dx="1" dy="8"/>
<feGaussianBlur stdDeviation="2.5"/>
<feColorMatrix type="matrix" values="0 0 0 0 0 0 0 0 0 0 0 0 0 0 0 0 0 0 0.05 0"/>
<feBlend mode="normal" in2="effect2_dropShadow_3359_444" result="effect3_dropShadow_3359_444"/>
<feColorMatrix in="SourceAlpha" type="matrix" values="0 0 0 0 0 0 0 0 0 0 0 0 0 0 0 0 0 0 127 0" result="hardAlpha"/>
<feOffset dx="2" dy="14"/>
<feGaussianBlur stdDeviation="3"/>
<feColorMatrix type="matrix" values="0 0 0 0 0 0 0 0 0 0 0 0 0 0 0 0 0 0 0.01 0"/>
<feBlend mode="normal" in2="effect3_dropShadow_3359_444" result="effect4_dropShadow_3359_444"/>
<feBlend mode="normal" in="SourceGraphic" in2="effect4_dropShadow_3359_444" result="shape"/>
</filter>
<linearGradient id="paint0_linear_3359_444" x1="202.799" y1="16.9508" x2="202.799" y2="95.9508" gradientUnits="userSpaceOnUse">
<stop stop-color="#FCFCFC"/>
<stop offset="1" stop-color="white"/>
</linearGradient>
<linearGradient id="paint1_linear_3359_444" x1="202.799" y1="16.9508" x2="202.799" y2="95.9508" gradientUnits="userSpaceOnUse">
<stop stop-color="#E2E2E2"/>
<stop offset="0.533555" stop-color="#ADAFB7"/>
<stop offset="1" stop-color="#F1F1F1"/>
</linearGradient>
<linearGradient id="paint2_linear_3359_444" x1="203.523" y1="10" x2="203.523" y2="29.28" gradientUnits="userSpaceOnUse">
<stop stop-color="#515151"/>
<stop offset="1" stop-color="#212121"/>
</linearGradient>
</defs>
</svg>
