<svg preserveAspectRatio="none" width="100%" height="100%" overflow="visible" style="display: block;" viewBox="0 0 63 69" fill="none" xmlns="http://www.w3.org/2000/svg">
<g id="mark" filter="url(#filter0_dddd_3365_76)">
<g clip-path="url(#clip0_3365_76)">
<rect x="13" y="1" width="48" height="48" rx="12" fill="var(--fill-0, white)"/>
<rect x="13" y="1" width="48" height="48" rx="12" fill="url(#paint0_linear_3365_76)"/>
<g id="Vector 33" opacity="0.05">
<path d="M32.1419 9.42698C32.7158 8.94426 33.5119 8.8236 34.2031 9.11448L34.2575 9.13826C34.04 9.45616 33.7101 9.77791 33.2681 9.95908C32.8394 10.1347 32.2706 10.192 31.5311 9.94002L32.1419 9.42698ZM29.8301 6.86733C29.8602 6.85075 29.91 6.8419 29.9656 6.86249C30.7803 7.16626 31.3341 7.92901 31.3709 8.79766L31.384 9.09353L31.4178 9.90258C29.9746 9.36065 29.6929 8.00199 29.7914 6.92653C29.7931 6.908 29.7986 6.89802 29.8029 6.89162C29.8078 6.88436 29.8159 6.87524 29.8301 6.86733Z" fill="var(--fill-0, white)"/>
<path d="M32.1419 9.42698C32.7158 8.94426 33.5119 8.8236 34.2031 9.11448L34.2575 9.13826C34.04 9.45616 33.7101 9.77791 33.2681 9.95908C32.8394 10.1347 32.2706 10.192 31.5311 9.94002L32.1419 9.42698ZM29.8301 6.86733C29.8602 6.85075 29.91 6.8419 29.9656 6.86249C30.7803 7.16626 31.3341 7.92901 31.3709 8.79766L31.384 9.09353L31.4178 9.90258C29.9746 9.36065 29.6929 8.00199 29.7914 6.92653C29.7931 6.908 29.7986 6.89802 29.8029 6.89162C29.8078 6.88436 29.8159 6.87524 29.8301 6.86733Z" fill="url(#paint1_linear_3365_76)"/>
<path d="M32.1419 9.42698C32.7158 8.94426 33.5119 8.8236 34.2031 9.11448L34.2575 9.13826C34.04 9.45616 33.7101 9.77791 33.2681 9.95908C32.8394 10.1347 32.2706 10.192 31.5311 9.94002L32.1419 9.42698ZM29.8301 6.86733C29.8602 6.85075 29.91 6.8419 29.9656 6.86249C30.7803 7.16626 31.3341 7.92901 31.3709 8.79766L31.384 9.09353L31.4178 9.90258C29.9746 9.36065 29.6929 8.00199 29.7914 6.92653C29.7931 6.908 29.7986 6.89802 29.8029 6.89162C29.8078 6.88436 29.8159 6.87524 29.8301 6.86733Z" stroke="url(#paint2_linear_3365_76)" stroke-width="0.923077"/>
</g>
<g id="Vector 34" opacity="0.2">
<path d="M50.2367 38.4958C50.971 38.3437 51.7289 38.6157 52.199 39.2L52.2355 39.2468C51.8931 39.4232 51.45 39.5496 50.9749 39.499C50.5143 39.4499 49.9865 39.2302 49.4555 38.6571L50.2367 38.4958ZM49.4183 35.1453C49.4526 35.1449 49.5006 35.1608 49.5398 35.2054C50.1124 35.8596 50.2375 36.794 49.8572 37.5758L49.7282 37.8424L49.3736 38.5704C48.361 37.4079 48.7586 36.0785 49.3561 35.179C49.3665 35.1635 49.376 35.1573 49.3828 35.1537C49.3906 35.1497 49.402 35.1454 49.4183 35.1453Z" fill="var(--fill-0, white)"/>
<path d="M50.2367 38.4958C50.971 38.3437 51.7289 38.6157 52.199 39.2L52.2355 39.2468C51.8931 39.4232 51.45 39.5496 50.9749 39.499C50.5143 39.4499 49.9865 39.2302 49.4555 38.6571L50.2367 38.4958ZM49.4183 35.1453C49.4526 35.1449 49.5006 35.1608 49.5398 35.2054C50.1124 35.8596 50.2375 36.794 49.8572 37.5758L49.7282 37.8424L49.3736 38.5704C48.361 37.4079 48.7586 36.0785 49.3561 35.179C49.3665 35.1635 49.376 35.1573 49.3828 35.1537C49.3906 35.1497 49.402 35.1454 49.4183 35.1453Z" fill="url(#paint3_linear_3365_76)"/>
<path d="M50.2367 38.4958C50.971 38.3437 51.7289 38.6157 52.199 39.2L52.2355 39.2468C51.8931 39.4232 51.45 39.5496 50.9749 39.499C50.5143 39.4499 49.9865 39.2302 49.4555 38.6571L50.2367 38.4958ZM49.4183 35.1453C49.4526 35.1449 49.5006 35.1608 49.5398 35.2054C50.1124 35.8596 50.2375 36.794 49.8572 37.5758L49.7282 37.8424L49.3736 38.5704C48.361 37.4079 48.7586 36.0785 49.3561 35.179C49.3665 35.1635 49.376 35.1573 49.3828 35.1537C49.3906 35.1497 49.402 35.1454 49.4183 35.1453Z" stroke="url(#paint4_linear_3365_76)" stroke-width="0.923077"/>
</g>
<g id="Vector 35" opacity="0.2">
<path d="M52.3423 12.3715C53.0767 12.2193 53.8345 12.4913 54.3046 13.0756L54.3412 13.1224C53.9988 13.2988 53.5556 13.4252 53.0806 13.3747C52.6199 13.3256 52.0922 13.1058 51.5611 12.5328L52.3423 12.3715ZM51.524 9.0209C51.5583 9.02059 51.6063 9.03645 51.6455 9.08101C52.218 9.73529 52.3431 10.6696 51.9628 11.4515L51.8339 11.7181L51.4793 12.446C50.4667 11.2836 50.8642 9.95418 51.4618 9.05462C51.4721 9.03912 51.4816 9.03294 51.4885 9.02936C51.4963 9.0253 51.5077 9.02109 51.524 9.0209Z" fill="var(--fill-0, white)"/>
<path d="M52.3423 12.3715C53.0767 12.2193 53.8345 12.4913 54.3046 13.0756L54.3412 13.1224C53.9988 13.2988 53.5556 13.4252 53.0806 13.3747C52.6199 13.3256 52.0922 13.1058 51.5611 12.5328L52.3423 12.3715ZM51.524 9.0209C51.5583 9.02059 51.6063 9.03645 51.6455 9.08101C52.218 9.73529 52.3431 10.6696 51.9628 11.4515L51.8339 11.7181L51.4793 12.446C50.4667 11.2836 50.8642 9.95418 51.4618 9.05462C51.4721 9.03912 51.4816 9.03294 51.4885 9.02936C51.4963 9.0253 51.5077 9.02109 51.524 9.0209Z" fill="url(#paint5_linear_3365_76)"/>
<path d="M52.3423 12.3715C53.0767 12.2193 53.8345 12.4913 54.3046 13.0756L54.3412 13.1224C53.9988 13.2988 53.5556 13.4252 53.0806 13.3747C52.6199 13.3256 52.0922 13.1058 51.5611 12.5328L52.3423 12.3715ZM51.524 9.0209C51.5583 9.02059 51.6063 9.03645 51.6455 9.08101C52.218 9.73529 52.3431 10.6696 51.9628 11.4515L51.8339 11.7181L51.4793 12.446C50.4667 11.2836 50.8642 9.95418 51.4618 9.05462C51.4721 9.03912 51.4816 9.03294 51.4885 9.02936C51.4963 9.0253 51.5077 9.02109 51.524 9.0209Z" stroke="url(#paint6_linear_3365_76)" stroke-width="0.923077"/>
</g>
<g id="Vector 36" opacity="0.2">
<path d="M50.1677 13.529C49.7937 14.1791 49.8151 14.9839 50.2233 15.6131L50.2563 15.6625C50.5309 15.3923 50.7895 15.0109 50.8899 14.5439C50.9873 14.0909 50.9435 13.5209 50.5651 12.8374L50.1677 13.529ZM47.2408 11.7044C47.2298 11.7369 47.2298 11.7875 47.2599 11.8386C47.7025 12.587 48.5509 12.9979 49.4124 12.881L49.706 12.8418L50.5083 12.7325C49.7206 11.4073 48.3335 11.3694 47.2923 11.6559C47.2743 11.6608 47.2655 11.668 47.2599 11.6734C47.2536 11.6795 47.2461 11.689 47.2408 11.7044Z" fill="var(--fill-0, white)"/>
<path d="M50.1677 13.529C49.7937 14.1791 49.8151 14.9839 50.2233 15.6131L50.2563 15.6625C50.5309 15.3923 50.7895 15.0109 50.8899 14.5439C50.9873 14.0909 50.9435 13.5209 50.5651 12.8374L50.1677 13.529ZM47.2408 11.7044C47.2298 11.7369 47.2298 11.7875 47.2599 11.8386C47.7025 12.587 48.5509 12.9979 49.4124 12.881L49.706 12.8418L50.5083 12.7325C49.7206 11.4073 48.3335 11.3694 47.2923 11.6559C47.2743 11.6608 47.2655 11.668 47.2599 11.6734C47.2536 11.6795 47.2461 11.689 47.2408 11.7044Z" fill="url(#paint7_linear_3365_76)"/>
<path d="M50.1677 13.529C49.7937 14.1791 49.8151 14.9839 50.2233 15.6131L50.2563 15.6625C50.5309 15.3923 50.7895 15.0109 50.8899 14.5439C50.9873 14.0909 50.9435 13.5209 50.5651 12.8374L50.1677 13.529ZM47.2408 11.7044C47.2298 11.7369 47.2298 11.7875 47.2599 11.8386C47.7025 12.587 48.5509 12.9979 49.4124 12.881L49.706 12.8418L50.5083 12.7325C49.7206 11.4073 48.3335 11.3694 47.2923 11.6559C47.2743 11.6608 47.2655 11.668 47.2599 11.6734C47.2536 11.6795 47.2461 11.689 47.2408 11.7044Z" stroke="url(#paint8_linear_3365_76)" stroke-width="0.923077"/>
</g>
<path id="Vector 31" d="M34.1501 28.3312C24.4372 25.5285 4.86655 19.9231 4.28667 19.9231L2.69203 37.6092L34.1501 28.3312Z" fill="url(#paint9_linear_3365_76)"/>
<path id="Vector 32" d="M34.1515 66.292V28.3103L2.38468 37.7541V66.4578L34.1515 66.292Z" fill="url(#paint10_linear_3365_76)"/>
<g id="Vector 43" opacity="0.3">
<path d="M29.2261 16.7878C29.4005 16.2079 30.059 15.9675 30.6119 16.2145L35.7671 18.5182C37.3649 19.2323 38.3939 20.819 38.3941 22.569V25.7175L38.5679 25.4714C39.6933 23.877 41.9649 23.6362 43.399 24.9597L45.604 26.9958C46.1478 27.4977 46.0622 28.3915 45.4673 28.8317C42.5939 30.9581 40.1066 33.6323 34.896 29.028C29.5288 24.2851 28.2288 20.1047 29.2261 16.7878Z" fill="var(--fill-0, white)"/>
<path d="M29.2261 16.7878C29.4005 16.2079 30.059 15.9675 30.6119 16.2145L35.7671 18.5182C37.3649 19.2323 38.3939 20.819 38.3941 22.569V25.7175L38.5679 25.4714C39.6933 23.877 41.9649 23.6362 43.399 24.9597L45.604 26.9958C46.1478 27.4977 46.0622 28.3915 45.4673 28.8317C42.5939 30.9581 40.1066 33.6323 34.896 29.028C29.5288 24.2851 28.2288 20.1047 29.2261 16.7878Z" fill="url(#paint11_linear_3365_76)"/>
<path d="M29.2261 16.7878C29.4005 16.2079 30.059 15.9675 30.6119 16.2145L35.7671 18.5182C37.3649 19.2323 38.3939 20.819 38.3941 22.569V25.7175L38.5679 25.4714C39.6933 23.877 41.9649 23.6362 43.399 24.9597L45.604 26.9958C46.1478 27.4977 46.0622 28.3915 45.4673 28.8317C42.5939 30.9581 40.1066 33.6323 34.896 29.028C29.5288 24.2851 28.2288 20.1047 29.2261 16.7878Z" stroke="url(#paint12_linear_3365_76)"/>
</g>
<g id="Vector 30">
<path d="M34.1198 14.7389C34.2601 14.5128 34.5971 14.4445 34.8502 14.6676L38.1022 17.5387C39.2842 18.5826 39.7171 20.2381 39.1979 21.7272L37.8707 25.5348L37.4987 26.6002L38.57 26.2438L40.36 25.6471C42.1182 25.0611 44.0567 25.4969 45.3942 26.7799L47.358 28.6647C47.5941 28.8914 47.5548 29.198 47.3786 29.3395C46.1907 30.2932 44.4081 31.2149 42.3131 31.3512C40.2363 31.4863 37.7988 30.8535 35.2633 28.6129C32.7211 26.3664 31.935 23.7409 32.0231 21.2614C32.112 18.7583 33.0957 16.3902 34.1198 14.7389Z" fill="var(--fill-0, white)"/>
<path d="M34.1198 14.7389C34.2601 14.5128 34.5971 14.4445 34.8502 14.6676L38.1022 17.5387C39.2842 18.5826 39.7171 20.2381 39.1979 21.7272L37.8707 25.5348L37.4987 26.6002L38.57 26.2438L40.36 25.6471C42.1182 25.0611 44.0567 25.4969 45.3942 26.7799L47.358 28.6647C47.5941 28.8914 47.5548 29.198 47.3786 29.3395C46.1907 30.2932 44.4081 31.2149 42.3131 31.3512C40.2363 31.4863 37.7988 30.8535 35.2633 28.6129C32.7211 26.3664 31.935 23.7409 32.0231 21.2614C32.112 18.7583 33.0957 16.3902 34.1198 14.7389Z" fill="url(#paint13_linear_3365_76)"/>
<path d="M34.1198 14.7389C34.2601 14.5128 34.5971 14.4445 34.8502 14.6676L38.1022 17.5387C39.2842 18.5826 39.7171 20.2381 39.1979 21.7272L37.8707 25.5348L37.4987 26.6002L38.57 26.2438L40.36 25.6471C42.1182 25.0611 44.0567 25.4969 45.3942 26.7799L47.358 28.6647C47.5941 28.8914 47.5548 29.198 47.3786 29.3395C46.1907 30.2932 44.4081 31.2149 42.3131 31.3512C40.2363 31.4863 37.7988 30.8535 35.2633 28.6129C32.7211 26.3664 31.935 23.7409 32.0231 21.2614C32.112 18.7583 33.0957 16.3902 34.1198 14.7389Z" stroke="url(#paint14_linear_3365_76)" stroke-width="1.10926"/>
</g>
</g>
</g>
<defs>
<filter id="filter0_dddd_3365_76" x="0" y="0" width="63" height="69" filterUnits="userSpaceOnUse" color-interpolation-filters="sRGB">
<feFlood flood-opacity="0" result="BackgroundImageFix"/>
<feColorMatrix in="SourceAlpha" type="matrix" values="0 0 0 0 0 0 0 0 0 0 0 0 0 0 0 0 0 0 127 0" result="hardAlpha"/>
<feOffset dy="1"/>
<feGaussianBlur stdDeviation="1"/>
<feColorMatrix type="matrix" values="0 0 0 0 0.258824 0 0 0 0 0.717647 0 0 0 0 1 0 0 0 0.1 0"/>
<feBlend mode="normal" in2="BackgroundImageFix" result="effect1_dropShadow_3365_76"/>
<feColorMatrix in="SourceAlpha" type="matrix" values="0 0 0 0 0 0 0 0 0 0 0 0 0 0 0 0 0 0 127 0" result="hardAlpha"/>
<feOffset dx="-2" dy="3"/>
<feGaussianBlur stdDeviation="2"/>
<feColorMatrix type="matrix" values="0 0 0 0 0.258824 0 0 0 0 0.717647 0 0 0 0 1 0 0 0 0.09 0"/>
<feBlend mode="normal" in2="effect1_dropShadow_3365_76" result="effect2_dropShadow_3365_76"/>
<feColorMatrix in="SourceAlpha" type="matrix" values="0 0 0 0 0 0 0 0 0 0 0 0 0 0 0 0 0 0 127 0" result="hardAlpha"/>
<feOffset dx="-4" dy="8"/>
<feGaussianBlur stdDeviation="2.5"/>
<feColorMatrix type="matrix" values="0 0 0 0 0.258824 0 0 0 0 0.717647 0 0 0 0 1 0 0 0 0.05 0"/>
<feBlend mode="normal" in2="effect2_dropShadow_3365_76" result="effect3_dropShadow_3365_76"/>
<feColorMatrix in="SourceAlpha" type="matrix" values="0 0 0 0 0 0 0 0 0 0 0 0 0 0 0 0 0 0 127 0" result="hardAlpha"/>
<feOffset dx="-7" dy="14"/>
<feGaussianBlur stdDeviation="3"/>
<feColorMatrix type="matrix" values="0 0 0 0 0.258824 0 0 0 0 0.717647 0 0 0 0 1 0 0 0 0.01 0"/>
<feBlend mode="normal" in2="effect3_dropShadow_3365_76" result="effect4_dropShadow_3365_76"/>
<feBlend mode="normal" in="SourceGraphic" in2="effect4_dropShadow_3365_76" result="shape"/>
</filter>
<linearGradient id="paint0_linear_3365_76" x1="37" y1="1" x2="37" y2="49" gradientUnits="userSpaceOnUse">
<stop stop-color="#0097FD"/>
<stop offset="1" stop-color="#A7DCFF"/>
</linearGradient>
<linearGradient id="paint1_linear_3365_76" x1="30.87" y1="5.66027" x2="32.8177" y2="10.6318" gradientUnits="userSpaceOnUse">
<stop stop-color="white"/>
<stop offset="1" stop-color="#DBE6FF"/>
</linearGradient>
<linearGradient id="paint2_linear_3365_76" x1="30.3817" y1="5.8174" x2="32.7167" y2="10.7381" gradientUnits="userSpaceOnUse">
<stop stop-color="white"/>
<stop offset="1" stop-color="white" stop-opacity="0"/>
</linearGradient>
<linearGradient id="paint3_linear_3365_76" x1="50.9068" y1="34.5771" x2="50.2591" y2="39.8771" gradientUnits="userSpaceOnUse">
<stop stop-color="white"/>
<stop offset="1" stop-color="#DBE6FF"/>
</linearGradient>
<linearGradient id="paint4_linear_3365_76" x1="50.4024" y1="34.4834" x2="50.1197" y2="39.9227" gradientUnits="userSpaceOnUse">
<stop stop-color="white"/>
<stop offset="1" stop-color="white" stop-opacity="0"/>
</linearGradient>
<linearGradient id="paint5_linear_3365_76" x1="53.0124" y1="8.45269" x2="52.3647" y2="13.7527" gradientUnits="userSpaceOnUse">
<stop stop-color="white"/>
<stop offset="1" stop-color="#DBE6FF"/>
</linearGradient>
<linearGradient id="paint6_linear_3365_76" x1="52.5081" y1="8.35902" x2="52.2253" y2="13.7983" gradientUnits="userSpaceOnUse">
<stop stop-color="white"/>
<stop offset="1" stop-color="white" stop-opacity="0"/>
</linearGradient>
<linearGradient id="paint7_linear_3365_76" x1="46.2358" y1="12.9407" x2="51.4728" y2="13.982" gradientUnits="userSpaceOnUse">
<stop stop-color="white"/>
<stop offset="1" stop-color="#DBE6FF"/>
</linearGradient>
<linearGradient id="paint8_linear_3365_76" x1="46.3045" y1="12.4324" x2="51.5596" y2="13.8639" gradientUnits="userSpaceOnUse">
<stop stop-color="white"/>
<stop offset="1" stop-color="white" stop-opacity="0"/>
</linearGradient>
<linearGradient id="paint9_linear_3365_76" x1="34.1501" y1="27.3263" x2="2.69203" y2="30.2059" gradientUnits="userSpaceOnUse">
<stop stop-color="#BAE3FF"/>
<stop offset="1" stop-color="#6FC4FE" stop-opacity="0"/>
</linearGradient>
<linearGradient id="paint10_linear_3365_76" x1="34.1515" y1="30.2475" x2="18.2681" y2="66.4578" gradientUnits="userSpaceOnUse">
<stop stop-color="#0F9FFF"/>
<stop offset="0.484006" stop-color="#48B5FF" stop-opacity="0"/>
</linearGradient>
<linearGradient id="paint11_linear_3365_76" x1="39.5717" y1="13.5709" x2="39.5717" y2="31.9231" gradientUnits="userSpaceOnUse">
<stop stop-color="white"/>
<stop offset="1" stop-color="#DBE6FF"/>
</linearGradient>
<linearGradient id="paint12_linear_3365_76" x1="37.787" y1="13.4615" x2="39.0719" y2="32.1392" gradientUnits="userSpaceOnUse">
<stop stop-color="white"/>
<stop offset="1" stop-color="white" stop-opacity="0"/>
</linearGradient>
<linearGradient id="paint13_linear_3365_76" x1="39.5716" y1="13.5709" x2="39.5716" y2="31.9231" gradientUnits="userSpaceOnUse">
<stop stop-color="white"/>
<stop offset="1" stop-color="#DBE6FF"/>
</linearGradient>
<linearGradient id="paint14_linear_3365_76" x1="37.787" y1="13.4616" x2="39.0719" y2="32.1392" gradientUnits="userSpaceOnUse">
<stop stop-color="white"/>
<stop offset="1" stop-color="white" stop-opacity="0"/>
</linearGradient>
<clipPath id="clip0_3365_76">
<rect x="13" y="1" width="48" height="48" rx="12" fill="white"/>
</clipPath>
</defs>
</svg>
