<svg width="236" height="120" viewBox="0 0 236 120" fill="none" xmlns="http://www.w3.org/2000/svg">
<g clip-path="url(#clip0_3359_392)">
<g filter="url(#filter0_f_3359_392)">
<ellipse cx="175" cy="105" rx="97" ry="84" fill="#EEFBFF"/>
</g>
<g filter="url(#filter1_f_3359_392)">
<ellipse cx="122" cy="73" rx="81" ry="57" fill="#F6EEFF"/>
</g>
<g filter="url(#filter2_dddd_3359_392)">
<rect x="96" y="28.766" width="118.263" height="74.1601" rx="14.5875" transform="rotate(-6.19691 96 28.766)" fill="#DAE6F8"/>
<rect x="96.2871" y="28.9968" width="117.742" height="73.6391" rx="14.327" transform="rotate(-6.19691 96.2871 28.9968)" stroke="black" stroke-opacity="0.62" style="mix-blend-mode:overlay" stroke-width="0.520983"/>
<path d="M110.338 86.7946L110.99 86.7237L113.099 91.0801L113.121 91.0778L114.246 86.3702L114.899 86.2994L113.546 91.6845L112.814 91.764L110.338 86.7946ZM115.862 86.2094C115.986 86.196 116.091 86.2212 116.187 86.2988C116.282 86.3619 116.337 86.4587 116.351 86.5892C116.364 86.7125 116.332 86.8187 116.254 86.9152C116.176 87.0044 116.079 87.0589 115.956 87.0723C115.833 87.0857 115.726 87.0532 115.631 86.9829C115.534 86.9053 115.487 86.8077 115.474 86.6845C115.459 86.5539 115.485 86.4485 115.564 86.3665C115.641 86.2701 115.739 86.2228 115.862 86.2094ZM115.726 87.6549L116.306 87.5919L116.713 91.3407L116.133 91.4037L115.726 87.6549ZM118.708 87.2283C119.637 87.1275 120.186 87.4567 120.372 88.2288L119.807 88.2902C119.731 88.0637 119.618 87.8999 119.462 87.8141C119.29 87.7154 119.051 87.6826 118.754 87.7149C118.493 87.7433 118.295 87.8088 118.161 87.9261C118.011 88.0377 117.946 88.1768 117.964 88.3436C117.981 88.5031 118.098 88.6299 118.327 88.715C118.472 88.7653 118.741 88.8168 119.13 88.8773C119.591 88.9373 119.923 89.0187 120.132 89.1207C120.45 89.2769 120.629 89.5142 120.665 89.8405C120.748 90.6091 120.261 91.0581 119.203 91.1731C118.217 91.2802 117.633 90.9034 117.452 90.0499L118.018 89.9885C118.093 90.2811 118.225 90.4795 118.399 90.5927C118.571 90.6914 118.816 90.7235 119.135 90.6888C119.803 90.6164 120.12 90.3619 120.074 89.9413C120.051 89.731 119.911 89.5849 119.666 89.494C119.536 89.4494 119.26 89.3988 118.842 89.3414C118.388 89.2806 118.065 89.2057 117.878 89.1086C117.569 88.9661 117.405 88.7417 117.371 88.4227C117.336 88.1036 117.447 87.8421 117.709 87.6229C117.95 87.406 118.288 87.274 118.708 87.2283ZM121.378 85.6104C121.502 85.5971 121.607 85.6223 121.704 85.6999C121.799 85.7629 121.853 85.8597 121.867 85.9902C121.881 86.1135 121.848 86.2197 121.771 86.3162C121.692 86.4054 121.595 86.4599 121.472 86.4733C121.349 86.4867 121.243 86.4542 121.147 86.3839C121.051 86.3064 121.003 86.2088 120.99 86.0855C120.976 85.955 121.001 85.8495 121.08 85.7676C121.158 85.6711 121.255 85.6238 121.378 85.6104ZM121.242 87.0559L121.822 86.9929L122.229 90.7418L121.649 90.8048L121.242 87.0559ZM123.778 85.5553L123.909 86.7663L124.838 86.6655L124.89 87.1513L123.962 87.2521L124.221 89.6377C124.236 89.7755 124.269 89.8747 124.333 89.9264C124.39 89.9789 124.488 90.0049 124.619 89.9907L125.098 89.9388L125.15 90.4246L124.585 90.486C124.28 90.5191 124.047 90.4637 123.899 90.3184C123.76 90.1867 123.679 89.9827 123.648 89.6999L123.389 87.3143L122.635 87.3962L122.582 86.9104L123.337 86.8285L123.231 85.8568L123.778 85.5553Z" fill="black" fill-opacity="0.5"/>
<g clip-path="url(#clip1_3359_392)">
<path d="M133.869 86.4607C134.032 87.9625 132.947 89.3121 131.445 89.4751C129.943 89.6381 128.593 88.5528 128.43 87.051C128.267 85.5491 129.353 84.1995 130.855 84.0365" stroke="black" stroke-opacity="0.5" stroke-width="0.547032" stroke-linecap="round"/>
<path d="M133.455 83.8976L131.186 86.6492M133.455 83.8976C133.289 83.7643 132.282 83.8876 132.07 83.9137M133.455 83.8976C133.621 84.031 133.716 85.0403 133.736 85.2537" stroke="black" stroke-opacity="0.5" stroke-width="0.547032" stroke-linecap="round"/>
</g>
<path d="M138.819 85.0446C139.284 84.9943 139.665 85.0629 139.972 85.2497C140.286 85.443 140.497 85.7649 140.612 86.2146L140.039 86.2768C139.957 85.9923 139.817 85.7874 139.62 85.662C139.416 85.5375 139.169 85.4982 138.872 85.5305C138.51 85.5698 138.235 85.7391 138.054 86.0375C137.88 86.3278 137.818 86.7014 137.868 87.1582C137.917 87.615 138.051 87.9674 138.282 88.2064C138.506 88.4461 138.811 88.5524 139.189 88.5115C139.827 88.4422 140.161 88.0757 140.178 87.4209L140.758 87.358C140.723 87.846 140.582 88.2355 140.319 88.5135C140.062 88.7835 139.705 88.9469 139.241 88.9973C138.676 89.0587 138.22 88.9174 137.867 88.5742C137.532 88.2512 137.336 87.8029 137.274 87.23C137.212 86.6572 137.306 86.1774 137.564 85.7825C137.84 85.3491 138.261 85.1053 138.819 85.0446ZM141.013 83.3612L141.593 83.2982L141.826 85.4445C141.93 85.1911 142.085 84.9909 142.289 84.844C142.479 84.7059 142.698 84.6235 142.952 84.596C143.387 84.5487 143.741 84.635 144.001 84.8708C144.261 85.0994 144.417 85.4566 144.469 85.9352L144.726 88.2991L144.146 88.3621L143.898 86.0852C143.861 85.7372 143.744 85.4783 143.564 85.3071C143.37 85.1375 143.12 85.0692 142.809 85.1031C142.519 85.1345 142.292 85.2765 142.129 85.5291C141.958 85.7823 141.896 86.0899 141.934 86.4379L142.166 88.577L141.586 88.64L141.013 83.3612ZM146.843 84.1734C147.046 84.1514 147.223 84.1615 147.367 84.2045L147.43 84.7846C147.236 84.7471 147.045 84.7458 146.863 84.7655C146.573 84.797 146.34 84.947 146.173 85.2293C145.996 85.4979 145.934 85.8054 145.972 86.1535L146.188 88.1403L145.615 88.2025L145.208 84.4537L145.781 84.3915L145.852 85.0441C145.93 84.8155 146.041 84.6273 146.187 84.4867C146.366 84.3059 146.582 84.2018 146.843 84.1734ZM149.52 83.8827C150.079 83.8221 150.549 83.9618 150.925 84.3172C151.284 84.6523 151.494 85.0991 151.555 85.6647C151.616 86.223 151.507 86.7044 151.235 87.1008C150.936 87.5294 150.508 87.774 149.95 87.8346C149.384 87.896 148.92 87.7483 148.544 87.3929C148.186 87.065 147.976 86.6182 147.915 86.0599C147.854 85.4943 147.963 85.0129 148.242 84.6085C148.533 84.1807 148.955 83.9441 149.52 83.8827ZM149.573 84.3686C149.174 84.4119 148.879 84.598 148.695 84.9262C148.522 85.2237 148.464 85.5748 148.51 85.9953C148.555 86.4087 148.686 86.7392 148.919 86.9927C149.17 87.2737 149.498 87.3921 149.897 87.3488C150.288 87.3063 150.584 87.1201 150.783 86.7904C150.948 86.4936 151.012 86.1345 150.968 85.7284C150.922 85.3079 150.784 84.9781 150.558 84.7238C150.293 84.4445 149.965 84.326 149.573 84.3686ZM153.733 83.4253C154.306 83.3631 154.723 83.5527 154.985 84.0084C155.103 83.7461 155.257 83.5459 155.449 83.4151C155.617 83.2794 155.829 83.1978 156.09 83.1695C156.481 83.1269 156.806 83.2164 157.08 83.4361C157.339 83.6647 157.499 83.9921 157.546 84.42L157.813 86.8781L157.233 86.9411L156.976 84.5772C156.94 84.2437 156.841 84.005 156.685 83.8604C156.522 83.7021 156.281 83.6476 155.962 83.6822C155.715 83.709 155.514 83.8188 155.375 84.0247C155.222 84.2321 155.168 84.4801 155.201 84.7846L155.456 87.134L154.876 87.197L154.619 84.8331C154.547 84.166 154.222 83.8712 153.649 83.9334C153.38 83.9625 153.174 84.0876 153.023 84.3241C152.872 84.546 152.812 84.8092 152.844 85.1065L153.092 87.3906L152.512 87.4536L152.105 83.7048L152.685 83.6418L152.74 84.1421C152.978 83.7054 153.312 83.471 153.733 83.4253ZM159.842 82.762C160.444 82.6967 160.923 82.8501 161.271 83.2231C161.586 83.5558 161.787 84.0548 161.872 84.7059L158.914 85.0271C158.989 85.4445 159.133 85.759 159.361 85.969C159.589 86.179 159.885 86.2643 160.24 86.2257C160.544 86.1926 160.79 86.0853 160.962 85.9126C161.107 85.7647 161.209 85.5556 161.275 85.2843L161.855 85.2213C161.807 85.5933 161.672 85.9015 161.443 86.1611C161.162 86.4705 160.778 86.6588 160.293 86.7115C159.756 86.7698 159.301 86.6358 158.944 86.3224C158.572 85.996 158.36 85.5348 158.294 84.9257C158.234 84.3746 158.336 83.894 158.615 83.4895C158.891 83.0633 159.298 82.8211 159.842 82.762ZM159.909 83.2463C159.575 83.2825 159.319 83.4204 159.14 83.66C158.96 83.8996 158.876 84.2022 158.88 84.5759L161.222 84.3216C161.062 83.5246 160.62 83.1691 159.909 83.2463ZM161.917 82.6394L162.555 82.5701L163.806 85.5084L164.346 82.3757L164.89 82.3166L166.09 85.2603L166.681 82.1221L167.319 82.0528L166.45 85.9403L165.899 86.0001L164.701 83.0781L164.144 86.1906L163.6 86.2497L161.917 82.6394ZM169.338 81.731C169.94 81.6656 170.418 81.8191 170.767 82.192C171.082 82.5247 171.283 83.0238 171.368 83.6748L168.41 83.996C168.484 84.4134 168.629 84.7279 168.857 84.9379C169.085 85.1479 169.38 85.2332 169.736 85.1947C170.04 85.1616 170.285 85.0543 170.457 84.8815C170.603 84.7337 170.705 84.5245 170.771 84.2532L171.351 84.1903C171.303 84.5623 171.168 84.8704 170.939 85.13C170.657 85.4394 170.274 85.6277 169.789 85.6805C169.252 85.7387 168.797 85.6047 168.44 85.2913C168.067 84.965 167.856 84.5037 167.79 83.8946C167.73 83.3435 167.832 82.8629 168.111 82.4585C168.387 82.0323 168.794 81.79 169.338 81.731ZM169.405 82.2152C169.071 82.2514 168.815 82.3893 168.635 82.6289C168.456 82.8685 168.372 83.1711 168.375 83.5449L170.718 83.2906C170.558 82.4936 170.116 82.1381 169.405 82.2152ZM171.66 80.0335L172.24 79.9705L172.481 82.1893C172.714 81.6285 173.099 81.3226 173.635 81.2643C174.165 81.2069 174.606 81.357 174.955 81.73C175.27 82.0626 175.464 82.4964 175.524 83.0475C175.585 83.6131 175.49 84.0929 175.254 84.4854C174.985 84.9108 174.579 85.1603 174.035 85.2193C173.455 85.2823 173.016 85.0879 172.71 84.6369L172.777 85.2533L172.233 85.3123L171.66 80.0335ZM173.564 81.7563C173.223 81.7933 172.962 81.9537 172.789 82.2513C172.6 82.5432 172.537 82.9096 172.585 83.3446L172.593 83.4171C172.638 83.8377 172.769 84.1683 172.986 84.4088C173.221 84.6768 173.534 84.7896 173.911 84.7486C174.317 84.7046 174.605 84.5192 174.777 84.2071C174.922 83.9272 174.978 83.5616 174.929 83.1121C174.88 82.6625 174.748 82.3247 174.532 82.0914C174.29 81.8242 173.97 81.7122 173.564 81.7563ZM177.391 80.8565C178.319 80.7558 178.868 81.085 179.055 81.8571L178.489 81.9185C178.413 81.6919 178.3 81.5282 178.144 81.4424C177.972 81.3437 177.734 81.3109 177.436 81.3432C177.175 81.3715 176.977 81.4371 176.843 81.5543C176.694 81.6659 176.628 81.8051 176.646 81.9719C176.664 82.1314 176.78 82.2581 177.009 82.3433C177.154 82.3936 177.424 82.445 177.812 82.5056C178.274 82.5655 178.605 82.6469 178.814 82.7489C179.132 82.9052 179.312 83.1424 179.347 83.4687C179.431 84.2373 178.944 84.6864 177.885 84.8013C176.899 84.9084 176.315 84.5316 176.135 83.6782L176.7 83.6167C176.776 83.9093 176.908 84.1078 177.081 84.221C177.253 84.3197 177.499 84.3517 177.818 84.3171C178.485 84.2446 178.802 83.9901 178.757 83.5695C178.734 83.3593 178.593 83.2131 178.349 83.1223C178.219 83.0777 177.942 83.027 177.525 82.9696C177.071 82.9089 176.747 82.834 176.561 82.7368C176.252 82.5943 176.088 82.37 176.053 82.0509C176.019 81.7319 176.13 81.4704 176.392 81.2511C176.633 81.0343 176.97 80.9022 177.391 80.8565ZM180.605 79.385L180.737 80.596L181.665 80.4952L181.718 80.981L180.789 81.0818L181.048 83.4674C181.063 83.6052 181.096 83.7044 181.16 83.7561C181.218 83.8086 181.316 83.8346 181.446 83.8204L181.925 83.7684L181.978 84.2543L181.412 84.3157C181.107 84.3488 180.874 84.2934 180.726 84.148C180.587 84.0164 180.506 83.8124 180.476 83.5296L180.217 81.144L179.462 81.2259L179.41 80.7401L180.164 80.6582L180.058 79.6865L180.605 79.385ZM183.978 80.1414C184.536 80.0807 185.006 80.2205 185.382 80.5758C185.741 80.911 185.951 81.3577 186.013 81.9233C186.073 82.4816 185.964 82.963 185.692 83.3595C185.393 83.788 184.965 84.0326 184.407 84.0932C183.841 84.1547 183.377 84.0069 183.001 83.6516C182.643 83.3236 182.433 82.8769 182.372 82.3185C182.311 81.753 182.42 81.2716 182.699 80.8671C182.99 80.4393 183.412 80.2028 183.978 80.1414ZM184.03 80.6272C183.631 80.6705 183.336 80.8566 183.152 81.1848C182.979 81.4824 182.921 81.8334 182.967 82.254C183.012 82.6673 183.143 82.9979 183.376 83.2514C183.627 83.5323 183.955 83.6507 184.354 83.6074C184.745 83.5649 185.041 83.3788 185.24 83.049C185.406 82.7522 185.469 82.3931 185.425 81.9871C185.38 81.5665 185.241 81.2367 185.015 80.9825C184.75 80.7031 184.422 80.5847 184.03 80.6272ZM188.197 79.6832C188.4 79.6611 188.577 79.6713 188.722 79.7143L188.785 80.2944C188.59 80.2569 188.399 80.2556 188.218 80.2753C187.927 80.3067 187.694 80.4568 187.527 80.7391C187.351 81.0077 187.289 81.3152 187.326 81.6633L187.542 83.6501L186.969 83.7123L186.562 79.9634L187.135 79.9012L187.206 80.5538C187.284 80.3253 187.396 80.1371 187.542 79.9965C187.72 79.8157 187.936 79.7115 188.197 79.6832ZM190.744 79.4067C191.346 79.3413 191.825 79.4947 192.173 79.8677C192.488 80.2004 192.689 80.6995 192.775 81.3505L189.816 81.6717C189.891 82.0891 190.035 82.4036 190.263 82.6136C190.492 82.8236 190.787 82.9089 191.142 82.8703C191.447 82.8373 191.692 82.7299 191.864 82.5572C192.009 82.4094 192.111 82.2002 192.177 81.9289L192.757 81.8659C192.71 82.2379 192.574 82.5461 192.346 82.8057C192.064 83.1151 191.681 83.3034 191.195 83.3562C190.658 83.4144 190.204 83.2804 189.847 82.967C189.474 82.6406 189.262 82.1794 189.196 81.5703C189.136 81.0192 189.238 80.5386 189.517 80.1341C189.794 79.7079 190.2 79.4657 190.744 79.4067ZM190.811 79.8909C190.478 79.9271 190.221 80.065 190.042 80.3046C189.863 80.5442 189.778 80.8468 189.782 81.2206L192.124 80.9663C191.964 80.1693 191.522 79.8137 190.811 79.8909ZM194.054 82.07C194.17 82.0574 194.283 82.0891 194.38 82.1667C194.476 82.2442 194.531 82.341 194.545 82.4715C194.558 82.5948 194.526 82.701 194.448 82.7975C194.371 82.894 194.267 82.9493 194.151 82.9619C194.02 82.9761 193.914 82.9436 193.825 82.8652C193.728 82.7876 193.674 82.6909 193.66 82.5676C193.646 82.4371 193.679 82.3308 193.756 82.2344C193.826 82.1387 193.923 82.0842 194.054 82.07ZM196.678 78.7623C197.244 78.7009 197.691 78.9018 198.021 79.3722L197.951 78.7269L198.531 78.6639L198.91 82.1517C199.04 83.3481 198.532 84.0121 197.394 84.1358C196.886 84.1909 196.483 84.1319 196.2 83.9572C195.91 83.7833 195.71 83.4968 195.601 83.0979L196.181 83.0349C196.252 83.2839 196.381 83.4607 196.561 83.5586C196.741 83.6637 197.002 83.7014 197.342 83.6644C198.097 83.5826 198.428 83.121 198.338 82.2944L198.267 81.6346C198.045 82.1648 197.652 82.4643 197.087 82.5257C196.565 82.5824 196.132 82.446 195.789 82.1237C195.446 81.8087 195.253 81.3822 195.194 80.8383C195.134 80.2872 195.231 79.8292 195.498 79.4481C195.762 79.0452 196.156 78.819 196.678 78.7623ZM196.817 79.2315C196.44 79.2724 196.164 79.4344 195.984 79.7328C195.808 80.0014 195.743 80.3532 195.789 80.7738C195.831 81.1653 195.954 81.4822 196.162 81.709C196.395 81.9625 196.708 82.0753 197.114 82.0312C197.491 81.9902 197.767 81.8282 197.956 81.5436C198.131 81.2677 198.197 80.9232 198.153 80.5171C198.107 80.0965 197.968 79.7668 197.739 79.5423C197.491 79.2903 197.187 79.1913 196.817 79.2315ZM201.093 78.283C201.651 78.2224 202.121 78.3621 202.497 78.7174C202.856 79.0526 203.066 79.4993 203.128 80.0649C203.188 80.6233 203.079 81.1047 202.807 81.5011C202.509 81.9296 202.08 82.1742 201.522 82.2349C200.956 82.2963 200.493 82.1485 200.117 81.7932C199.758 81.4653 199.548 81.0185 199.488 80.4602C199.426 79.8946 199.535 79.4132 199.814 79.0087C200.105 78.581 200.527 78.3444 201.093 78.283ZM201.146 78.7688C200.747 78.8121 200.451 78.9982 200.267 79.3264C200.094 79.624 200.037 79.975 200.082 80.3956C200.127 80.8089 200.258 81.1395 200.491 81.393C200.742 81.6739 201.07 81.7923 201.469 81.749C201.861 81.7065 202.156 81.5204 202.355 81.1906C202.521 80.8938 202.585 80.5348 202.54 80.1287C202.495 79.7081 202.356 79.3784 202.131 79.1241C201.865 78.8447 201.537 78.7263 201.146 78.7688ZM204.745 80.9091C204.876 80.895 204.981 80.9202 205.077 80.9978C205.166 81.0689 205.22 81.1656 205.234 81.2889C205.248 81.4194 205.215 81.5257 205.144 81.6141C205.066 81.7033 204.962 81.7586 204.839 81.772C204.715 81.7854 204.609 81.7529 204.521 81.6818C204.424 81.6042 204.37 81.5075 204.356 81.3842C204.343 81.2609 204.375 81.1547 204.454 81.0655C204.524 80.9698 204.622 80.9225 204.745 80.9091ZM207.167 80.6462C207.29 80.6328 207.403 80.6572 207.499 80.7348C207.588 80.8059 207.642 80.9027 207.656 81.0259C207.67 81.1565 207.637 81.2627 207.566 81.3511C207.488 81.4403 207.384 81.4957 207.261 81.509C207.137 81.5224 207.031 81.4899 206.935 81.4196C206.839 81.3421 206.792 81.2445 206.778 81.1212C206.765 80.9979 206.79 80.8925 206.868 80.8033C206.946 80.7068 207.044 80.6595 207.167 80.6462ZM209.582 80.384C209.705 80.3706 209.81 80.3958 209.907 80.4734C210.002 80.5437 210.057 80.6405 210.07 80.7638C210.084 80.8943 210.052 81.0005 209.974 81.0897C209.895 81.1789 209.798 81.2335 209.675 81.2469C209.552 81.2602 209.446 81.2278 209.35 81.1574C209.254 81.0799 209.206 80.9823 209.193 80.859C209.18 80.7358 209.205 80.6303 209.283 80.5411C209.361 80.4446 209.458 80.3974 209.582 80.384Z" fill="black" fill-opacity="0.51"/>
<g filter="url(#filter3_dddd_3359_392)">
<rect x="99.4688" y="22.1008" width="109.927" height="57.9175" rx="10.4197" transform="rotate(-6.19691 99.4688 22.1008)" fill="white"/>
<rect x="99.1817" y="21.87" width="110.448" height="58.4385" rx="10.6801" transform="rotate(-6.19691 99.1817 21.87)" stroke="black" stroke-opacity="0.1" stroke-width="0.520983"/>
<g filter="url(#filter4_dddd_3359_392)">
<g clip-path="url(#clip2_3359_392)">
<rect x="107.969" y="27.9911" width="13" height="13" rx="6.5" transform="rotate(-6.2 107.969 27.9911)" fill="white"/>
<rect x="107.969" y="27.9911" width="13" height="13" rx="6.5" transform="rotate(-6.2 107.969 27.9911)" fill="url(#paint0_linear_3359_392)"/>
<g opacity="0.05">
<path d="M113.37 29.6999C113.51 29.5534 113.721 29.4981 113.915 29.556L113.93 29.5601C113.881 29.652 113.803 29.749 113.689 29.8108C113.579 29.8705 113.428 29.9005 113.221 29.8546L113.37 29.6999ZM112.672 29.0782C112.68 29.0729 112.693 29.0697 112.709 29.0736C112.937 29.1316 113.108 29.3209 113.144 29.5537L113.155 29.6325L113.188 29.849C112.784 29.7451 112.669 29.388 112.664 29.0958C112.664 29.0909 112.665 29.088 112.666 29.0862C112.667 29.084 112.669 29.0807 112.672 29.0782Z" fill="white"/>
<path d="M113.37 29.6999C113.51 29.5534 113.721 29.4981 113.915 29.556L113.93 29.5601C113.881 29.652 113.803 29.749 113.689 29.8108C113.579 29.8705 113.428 29.9005 113.221 29.8546L113.37 29.6999ZM112.672 29.0782C112.68 29.0729 112.693 29.0697 112.709 29.0736C112.937 29.1316 113.108 29.3209 113.144 29.5537L113.155 29.6325L113.188 29.849C112.784 29.7451 112.669 29.388 112.664 29.0958C112.664 29.0909 112.665 29.088 112.666 29.0862C112.667 29.084 112.669 29.0807 112.672 29.0782Z" fill="url(#paint1_linear_3359_392)"/>
<path d="M113.37 29.6999C113.51 29.5534 113.721 29.4981 113.915 29.556L113.93 29.5601C113.881 29.652 113.803 29.749 113.689 29.8108C113.579 29.8705 113.428 29.9005 113.221 29.8546L113.37 29.6999ZM112.672 29.0782C112.68 29.0729 112.693 29.0697 112.709 29.0736C112.937 29.1316 113.108 29.3209 113.144 29.5537L113.155 29.6325L113.188 29.849C112.784 29.7451 112.669 29.388 112.664 29.0958C112.664 29.0909 112.665 29.088 112.666 29.0862C112.667 29.084 112.669 29.0807 112.672 29.0782Z" stroke="url(#paint2_linear_3359_392)" stroke-width="0.25"/>
</g>
<g opacity="0.2">
<path d="M119.092 36.9975C119.285 36.9353 119.497 36.9865 119.64 37.1299L119.652 37.1408C119.565 37.1983 119.45 37.2463 119.32 37.2467C119.195 37.247 119.048 37.2014 118.888 37.0632L119.092 36.9975ZM118.774 36.1192C118.783 36.1182 118.796 36.1215 118.808 36.1323C118.981 36.2917 119.042 36.5398 118.962 36.7614L118.935 36.8362L118.861 37.0423C118.555 36.759 118.624 36.3902 118.758 36.1307C118.76 36.1263 118.762 36.1241 118.764 36.1229C118.766 36.1216 118.769 36.1197 118.774 36.1192Z" fill="white"/>
<path d="M119.092 36.9975C119.285 36.9353 119.497 36.9865 119.64 37.1299L119.652 37.1408C119.565 37.1983 119.45 37.2463 119.32 37.2467C119.195 37.247 119.048 37.2014 118.888 37.0632L119.092 36.9975ZM118.774 36.1192C118.783 36.1182 118.796 36.1215 118.808 36.1323C118.981 36.2917 119.042 36.5398 118.962 36.7614L118.935 36.8362L118.861 37.0423C118.555 36.759 118.624 36.3902 118.758 36.1307C118.76 36.1263 118.762 36.1241 118.764 36.1229C118.766 36.1216 118.769 36.1197 118.774 36.1192Z" fill="url(#paint3_linear_3359_392)"/>
<path d="M119.092 36.9975C119.285 36.9353 119.497 36.9865 119.64 37.1299L119.652 37.1408C119.565 37.1983 119.45 37.2463 119.32 37.2467C119.195 37.247 119.048 37.2014 118.888 37.0632L119.092 36.9975ZM118.774 36.1192C118.783 36.1182 118.796 36.1215 118.808 36.1323C118.981 36.2917 119.042 36.5398 118.962 36.7614L118.935 36.8362L118.861 37.0423C118.555 36.759 118.624 36.3902 118.758 36.1307C118.76 36.1263 118.762 36.1241 118.764 36.1229C118.766 36.1216 118.769 36.1197 118.774 36.1192Z" stroke="url(#paint4_linear_3359_392)" stroke-width="0.25"/>
</g>
<g opacity="0.2">
<path d="M118.895 29.9019C119.088 29.8397 119.299 29.891 119.443 30.0343L119.455 30.0452C119.368 30.1027 119.252 30.1508 119.123 30.1511C118.998 30.1514 118.85 30.1058 118.691 29.9676L118.895 29.9019ZM118.577 29.0236C118.586 29.0226 118.599 29.026 118.611 29.0367C118.784 29.1961 118.845 29.4442 118.765 29.6658L118.738 29.7406L118.664 29.9467C118.358 29.6634 118.426 29.2946 118.561 29.0351C118.563 29.0307 118.565 29.0285 118.567 29.0274C118.569 29.026 118.572 29.0241 118.577 29.0236Z" fill="white"/>
<path d="M118.895 29.9019C119.088 29.8397 119.299 29.891 119.443 30.0343L119.455 30.0452C119.368 30.1027 119.252 30.1508 119.123 30.1511C118.998 30.1514 118.85 30.1058 118.691 29.9676L118.895 29.9019ZM118.577 29.0236C118.586 29.0226 118.599 29.026 118.611 29.0367C118.784 29.1961 118.845 29.4442 118.765 29.6658L118.738 29.7406L118.664 29.9467C118.358 29.6634 118.426 29.2946 118.561 29.0351C118.563 29.0307 118.565 29.0285 118.567 29.0274C118.569 29.026 118.572 29.0241 118.577 29.0236Z" fill="url(#paint5_linear_3359_392)"/>
<path d="M118.895 29.9019C119.088 29.8397 119.299 29.891 119.443 30.0343L119.455 30.0452C119.368 30.1027 119.252 30.1508 119.123 30.1511C118.998 30.1514 118.85 30.1058 118.691 29.9676L118.895 29.9019ZM118.577 29.0236C118.586 29.0226 118.599 29.026 118.611 29.0367C118.784 29.1961 118.845 29.4442 118.765 29.6658L118.738 29.7406L118.664 29.9467C118.358 29.6634 118.426 29.2946 118.561 29.0351C118.563 29.0307 118.565 29.0285 118.567 29.0274C118.569 29.026 118.572 29.0241 118.577 29.0236Z" stroke="url(#paint6_linear_3359_392)" stroke-width="0.25"/>
</g>
<g opacity="0.2">
<path d="M118.343 30.2778C118.261 30.4636 118.291 30.6791 118.419 30.8365L118.428 30.8491C118.494 30.7684 118.554 30.6587 118.567 30.53C118.58 30.4054 118.55 30.2542 118.429 30.0815L118.343 30.2778ZM117.501 29.8721C117.499 29.8812 117.501 29.8945 117.511 29.9073C117.652 30.0958 117.892 30.1815 118.121 30.1249L118.198 30.1052L118.411 30.0524C118.16 29.7194 117.786 29.7501 117.514 29.8576C117.509 29.8594 117.507 29.8611 117.506 29.8627C117.504 29.8646 117.502 29.8678 117.501 29.8721Z" fill="white"/>
<path d="M118.343 30.2778C118.261 30.4636 118.291 30.6791 118.419 30.8365L118.428 30.8491C118.494 30.7684 118.554 30.6587 118.567 30.53C118.58 30.4054 118.55 30.2542 118.429 30.0815L118.343 30.2778ZM117.501 29.8721C117.499 29.8812 117.501 29.8945 117.511 29.9073C117.652 30.0958 117.892 30.1815 118.121 30.1249L118.198 30.1052L118.411 30.0524C118.16 29.7194 117.786 29.7501 117.514 29.8576C117.509 29.8594 117.507 29.8611 117.506 29.8627C117.504 29.8646 117.502 29.8678 117.501 29.8721Z" fill="url(#paint7_linear_3359_392)"/>
<path d="M118.343 30.2778C118.261 30.4636 118.291 30.6791 118.419 30.8365L118.428 30.8491C118.494 30.7684 118.554 30.6587 118.567 30.53C118.58 30.4054 118.55 30.2542 118.429 30.0815L118.343 30.2778ZM117.501 29.8721C117.499 29.8812 117.501 29.8945 117.511 29.9073C117.652 30.0958 117.892 30.1815 118.121 30.1249L118.198 30.1052L118.411 30.0524C118.16 29.7194 117.786 29.7501 117.514 29.8576C117.509 29.8594 117.507 29.8611 117.506 29.8627C117.504 29.8646 117.502 29.8678 117.501 29.8721Z" stroke="url(#paint8_linear_3359_392)" stroke-width="0.25"/>
</g>
<path d="M114.463 34.7313C111.766 34.2608 106.333 33.324 106.176 33.3409L106.264 38.1495L114.463 34.7313Z" fill="url(#paint9_linear_3359_392)"/>
<path d="M115.574 44.9523L114.463 34.7257L106.186 38.1976L107.025 45.9261L115.574 44.9523Z" fill="url(#paint10_linear_3359_392)"/>
<g opacity="0.3">
<path d="M112.8 31.7668C112.83 31.6059 113 31.5217 113.156 31.5719L114.612 32.0415C115.063 32.187 115.386 32.5847 115.437 33.0559L115.529 33.9035L115.569 33.8324C115.825 33.3702 116.43 33.2388 116.855 33.5532L117.508 34.0362C117.669 34.1555 117.672 34.3994 117.525 34.5354C116.814 35.1919 116.222 35.9843 114.684 34.897C113.1 33.777 112.628 32.689 112.8 31.7668Z" fill="white"/>
<path d="M112.8 31.7668C112.83 31.6059 113 31.5217 113.156 31.5719L114.612 32.0415C115.063 32.187 115.386 32.5847 115.437 33.0559L115.529 33.9035L115.569 33.8324C115.825 33.3702 116.43 33.2388 116.855 33.5532L117.508 34.0362C117.669 34.1555 117.672 34.3994 117.525 34.5354C116.814 35.1919 116.222 35.9843 114.684 34.897C113.1 33.777 112.628 32.689 112.8 31.7668Z" fill="url(#paint11_linear_3359_392)"/>
<path d="M112.8 31.7668C112.83 31.6059 113 31.5217 113.156 31.5719L114.612 32.0415C115.063 32.187 115.386 32.5847 115.437 33.0559L115.529 33.9035L115.569 33.8324C115.825 33.3702 116.43 33.2388 116.855 33.5532L117.508 34.0362C117.669 34.1555 117.672 34.3994 117.525 34.5354C116.814 35.1919 116.222 35.9843 114.684 34.897C113.1 33.777 112.628 32.689 112.8 31.7668Z" stroke="url(#paint12_linear_3359_392)"/>
</g>
<path d="M114.057 31.0723C114.088 31.0074 114.177 30.9797 114.252 31.0325L115.212 31.7102C115.56 31.9566 115.725 32.3894 115.629 32.8053L115.383 33.8694L115.314 34.1676L115.592 34.0402L116.057 33.8266C116.513 33.6175 117.048 33.6789 117.445 33.9852L118.029 34.4345C118.099 34.4886 118.097 34.5723 118.054 34.6155C117.762 34.9071 117.309 35.2075 116.749 35.3054C116.194 35.4024 115.519 35.3037 114.771 34.7747C114.021 34.2442 113.733 33.56 113.684 32.8899C113.635 32.2134 113.83 31.5469 114.057 31.0723Z" fill="white"/>
<path d="M114.057 31.0723C114.088 31.0074 114.177 30.9797 114.252 31.0325L115.212 31.7102C115.56 31.9566 115.725 32.3894 115.629 32.8053L115.383 33.8694L115.314 34.1676L115.592 34.0402L116.057 33.8266C116.513 33.6175 117.048 33.6789 117.445 33.9852L118.029 34.4345C118.099 34.4886 118.097 34.5723 118.054 34.6155C117.762 34.9071 117.309 35.2075 116.749 35.3054C116.194 35.4024 115.519 35.3037 114.771 34.7747C114.021 34.2442 113.733 33.56 113.684 32.8899C113.635 32.2134 113.83 31.5469 114.057 31.0723Z" fill="url(#paint13_linear_3359_392)"/>
<path d="M114.057 31.0723C114.088 31.0074 114.177 30.9797 114.252 31.0325L115.212 31.7102C115.56 31.9566 115.725 32.3894 115.629 32.8053L115.383 33.8694L115.314 34.1676L115.592 34.0402L116.057 33.8266C116.513 33.6175 117.048 33.6789 117.445 33.9852L118.029 34.4345C118.099 34.4886 118.097 34.5723 118.054 34.6155C117.762 34.9071 117.309 35.2075 116.749 35.3054C116.194 35.4024 115.519 35.3037 114.771 34.7747C114.021 34.2442 113.733 33.56 113.684 32.8899C113.635 32.2134 113.83 31.5469 114.057 31.0723Z" stroke="url(#paint14_linear_3359_392)" stroke-width="0.300423"/>
</g>
</g>
<path d="M125.531 29.6788L126.569 29.5661L127.166 35.0599L130.62 34.6848L130.717 35.5796L126.225 36.0673L125.531 29.6788ZM130.928 30.8763L131.948 30.7655L132.254 33.5839C132.295 33.9597 132.396 34.2204 132.576 34.3818C132.756 34.5344 133.016 34.5966 133.374 34.5578C133.598 34.5335 133.802 34.4117 133.987 34.2015C134.172 33.9823 134.296 33.7063 134.349 33.3655L134.042 30.5382L135.062 30.4274L135.564 35.0532L134.544 35.164L134.479 34.5645C134.138 35.0904 133.681 35.3845 133.108 35.4466C131.999 35.5671 131.376 35.001 131.241 33.7573L130.928 30.8763ZM138.395 29.9388C139.075 29.8649 139.585 30.063 139.935 30.532C140.119 30.2224 140.321 30.0012 140.542 29.8686C140.736 29.7389 140.99 29.657 141.303 29.623C141.777 29.5715 142.187 29.6809 142.544 29.968C142.884 30.2571 143.089 30.6512 143.145 31.1612L143.474 34.1944L142.454 34.3051L142.144 31.4509C142.104 31.0841 141.995 30.8244 141.825 30.6798C141.646 30.5273 141.386 30.474 141.028 30.5129C140.778 30.5401 140.582 30.6519 140.433 30.8672C140.275 31.0745 140.222 31.3427 140.259 31.6827L140.566 34.5101L139.546 34.6209L139.237 31.7756C139.161 31.0688 138.818 30.7528 138.21 30.8189C137.915 30.851 137.694 30.9836 137.54 31.2356C137.384 31.4698 137.324 31.748 137.357 32.0522L137.658 34.8259L136.638 34.9366L136.136 30.3108L137.156 30.2001L137.208 30.6743C137.549 30.2299 137.948 29.9874 138.395 29.9388ZM146.419 29.0675C147.573 28.9422 148.223 29.5054 148.361 30.7759L148.671 33.6301L147.651 33.7409L147.35 30.9761C147.268 30.2156 146.878 29.8777 146.18 29.9535C145.93 29.9807 145.716 30.0944 145.547 30.2938C145.354 30.514 145.26 30.8139 145.264 31.1846L145.566 33.9673L144.546 34.078L144.044 29.4522L145.064 29.3414L145.122 29.8783C145.278 29.6441 145.465 29.4518 145.677 29.3201C145.897 29.1785 146.142 29.0977 146.419 29.0675ZM151.376 28.5293C152.074 28.4535 152.662 28.616 153.142 29.0346C153.612 29.4453 153.89 30.0035 153.968 30.7193C154.045 31.4262 153.893 32.0311 153.53 32.5231C153.151 33.035 152.604 33.3298 151.906 33.4056C151.199 33.4824 150.61 33.3109 150.13 32.8923C149.661 32.4906 149.392 31.9313 149.315 31.2245C149.238 30.5087 149.38 29.9048 149.76 29.4018C150.13 28.8909 150.67 28.606 151.376 28.5293ZM151.467 29.3614C151.037 29.408 150.733 29.604 150.537 29.9693C150.371 30.277 150.314 30.6635 150.362 31.1108C150.411 31.5582 150.549 31.9144 150.777 32.1793C151.045 32.4851 151.386 32.6201 151.816 32.5735C152.236 32.5278 152.549 32.3219 152.745 31.9656C152.91 31.6489 152.978 31.2704 152.93 30.832C152.881 30.3846 152.733 30.0205 152.505 29.7556C152.236 29.4408 151.887 29.3157 151.467 29.3614Z" fill="black"/>
<path d="M126.546 43.6662L130.617 43.2242L130.687 43.8714L129.031 44.0512L129.5 48.3728L128.749 48.4544L128.28 44.1328L126.616 44.3134L126.546 43.6662ZM131.137 43.0692L131.875 42.9891L132.089 44.9655C132.199 44.7423 132.348 44.5642 132.54 44.4448C132.71 44.3277 132.907 44.2641 133.137 44.2391C133.568 44.1923 133.909 44.282 134.16 44.5153C134.395 44.7362 134.539 45.0868 134.59 45.56L134.833 47.7939L134.095 47.874L133.866 45.7654C133.831 45.4452 133.736 45.2162 133.593 45.0628C133.434 44.9039 133.21 44.8438 132.931 44.874C132.681 44.9012 132.49 45.0206 132.358 45.239C132.22 45.4582 132.172 45.724 132.206 46.0372L132.425 48.0553L131.687 48.1354L131.137 43.0692ZM136.792 43.8422C137.377 43.7788 137.85 43.9245 138.2 44.2949C138.518 44.6265 138.719 45.1117 138.795 45.7512L136.067 46.0474C136.133 46.3923 136.253 46.6539 136.44 46.8237C136.627 46.9865 136.867 47.059 137.159 47.0272C137.417 46.9993 137.619 46.914 137.766 46.7783C137.881 46.6673 137.968 46.4959 138.042 46.2765L138.78 46.1964C138.733 46.5395 138.604 46.8422 138.377 47.0921C138.094 47.3975 137.712 47.5798 137.232 47.6319C136.703 47.6893 136.26 47.5684 135.919 47.2746C135.547 46.9629 135.329 46.5148 135.265 45.9233C135.207 45.3874 135.312 44.9254 135.592 44.5288C135.859 44.1267 136.263 43.8997 136.792 43.8422ZM136.879 44.4454C136.601 44.4756 136.393 44.5756 136.244 44.7608C136.109 44.9374 136.029 45.1784 136.021 45.4892L137.962 45.2783C137.825 44.6596 137.464 44.3819 136.879 44.4454ZM141.445 42.0485L142.204 41.9661L142.539 45.056C142.588 45.5014 142.72 45.8179 142.953 46.0109C143.185 46.204 143.524 46.2798 143.976 46.2307C144.422 46.1823 144.737 46.0355 144.922 45.7971C145.1 45.5594 145.169 45.221 145.121 44.7756L144.785 41.6858L145.544 41.6034L145.878 44.6794C145.948 45.3266 145.821 45.8403 145.503 46.2198C145.184 46.5924 144.702 46.8208 144.048 46.8918C143.387 46.9636 142.868 46.851 142.484 46.5547C142.084 46.2461 141.849 45.7716 141.779 45.1244L141.445 42.0485ZM146.518 41.3991L147.256 41.319L147.806 46.3852L147.068 46.4653L146.518 41.3991ZM149.3 41.4068L149.427 42.569L150.248 42.4798L150.314 43.0922L149.493 43.1814L149.72 45.2691C149.73 45.3665 149.759 45.4339 149.806 45.478C149.852 45.5153 149.918 45.5363 150.008 45.5265L150.481 45.4751L150.548 46.0875L149.956 46.1517C149.65 46.185 149.411 46.1264 149.255 45.9815C149.099 45.8435 149.013 45.6345 148.982 45.3492L148.755 43.2615L148.087 43.334L148.021 42.7216L148.689 42.6491L148.596 41.7931L149.3 41.4068ZM151.207 40.9181C151.353 40.9023 151.483 40.9304 151.591 41.0173C151.698 41.0971 151.76 41.2102 151.776 41.3563C151.792 41.5024 151.749 41.6268 151.662 41.7348C151.574 41.8358 151.454 41.8982 151.315 41.9133C151.169 41.9291 151.046 41.8933 150.938 41.8134C150.83 41.7265 150.768 41.6066 150.753 41.4674C150.737 41.3212 150.773 41.1976 150.86 41.0966C150.947 40.9886 151.061 40.934 151.207 40.9181ZM150.995 42.3987L151.732 42.3186L152.123 45.9165L151.385 45.9966L150.995 42.3987ZM154.446 41.9254C154.975 41.8679 155.38 42.0282 155.646 42.4076C155.782 42.1676 155.939 41.9886 156.11 41.8785C156.267 41.7699 156.464 41.7062 156.708 41.6798C157.077 41.6397 157.396 41.7248 157.667 41.9489C157.93 42.1668 158.09 42.4733 158.134 42.8769L158.39 45.236L157.652 45.3161L157.409 43.0823C157.378 42.79 157.292 42.581 157.152 42.4624C157.012 42.3368 156.796 42.2969 156.518 42.3271C156.309 42.3498 156.15 42.4445 156.028 42.6127C155.905 42.7809 155.859 43.0042 155.888 43.2686L156.128 45.4816L155.39 45.5617L155.148 43.3348C155.087 42.7642 154.806 42.513 154.319 42.5659C154.082 42.5916 153.897 42.7032 153.777 42.8992C153.643 43.0898 153.597 43.3131 153.624 43.5637L153.859 45.7279L153.122 45.808L152.731 42.2102L153.469 42.1301L153.512 42.5268C153.768 42.161 154.084 41.9647 154.446 41.9254ZM160.445 41.2741C160.974 41.2166 161.378 41.3065 161.657 41.5438C161.898 41.75 162.045 42.072 162.093 42.5104L162.342 44.8069L161.66 44.8809L161.605 44.3729C161.485 44.569 161.327 44.734 161.13 44.8611C160.905 44.9981 160.634 45.0909 160.314 45.1257C159.938 45.1665 159.635 45.1008 159.406 44.9356C159.156 44.7726 159.018 44.5411 158.986 44.2419C158.942 43.8383 159.068 43.5077 159.364 43.2573C159.634 43.0167 160.04 42.867 160.568 42.7957L161.373 42.6871L161.357 42.541C161.302 42.0399 161.004 41.8189 160.461 41.8778C160.231 41.9028 160.048 41.9649 159.918 42.0635C159.761 42.1791 159.673 42.3366 159.653 42.5429L158.915 42.5596C158.95 42.1616 159.113 41.8482 159.399 41.634C159.646 41.4383 159.999 41.3224 160.445 41.2741ZM161.431 43.223L160.675 43.3262C160.001 43.4134 159.693 43.6863 159.741 44.1317C159.756 44.2709 159.824 44.3762 159.952 44.4538C160.073 44.5322 160.232 44.5643 160.419 44.5439C160.733 44.5099 160.987 44.3837 161.189 44.1717C161.391 43.9596 161.484 43.7101 161.453 43.4318L161.431 43.223ZM163.762 39.8365L163.888 40.9987L164.71 40.9095L164.776 41.5219L163.955 41.6111L164.182 43.6988C164.192 43.7963 164.221 43.8636 164.268 43.9078C164.314 43.945 164.38 43.966 164.47 43.9562L164.943 43.9048L165.01 44.5172L164.418 44.5814C164.112 44.6147 163.873 44.5561 163.717 44.4112C163.561 44.2732 163.475 44.0643 163.444 43.7789L163.217 41.6912L162.549 41.7637L162.483 41.1513L163.151 41.0788L163.058 40.2228L163.762 39.8365ZM166.817 40.5821C167.402 40.5187 167.875 40.6644 168.225 41.0348C168.543 41.3664 168.743 41.8516 168.82 42.4911L166.092 42.7873C166.157 43.1322 166.277 43.3938 166.465 43.5636C166.651 43.7264 166.892 43.7989 167.184 43.7671C167.441 43.7392 167.643 43.6539 167.791 43.5182C167.905 43.4072 167.992 43.2358 168.067 43.0164L168.805 42.9363C168.758 43.2794 168.628 43.5821 168.402 43.832C168.118 44.1374 167.737 44.3197 167.257 44.3718C166.728 44.4293 166.285 44.3083 165.943 44.0145C165.572 43.7028 165.354 43.2547 165.29 42.6632C165.232 42.1273 165.336 41.6653 165.617 41.2687C165.883 40.8666 166.288 40.6396 166.817 40.5821ZM166.904 41.1853C166.625 41.2155 166.418 41.3155 166.269 41.5007C166.133 41.6774 166.054 41.9183 166.045 42.2291L167.987 42.0183C167.849 41.3995 167.488 41.1218 166.904 41.1853ZM171.47 38.7884L173.738 38.5421C174.226 38.4892 174.613 38.5597 174.918 38.7661C175.206 38.9601 175.371 39.245 175.412 39.6277C175.443 39.9061 175.399 40.1503 175.281 40.3602C175.161 40.5563 174.988 40.7159 174.748 40.8335C175.082 40.8606 175.346 40.9657 175.535 41.1493C175.724 41.333 175.837 41.5954 175.874 41.9294C175.928 42.4305 175.793 42.8112 175.478 43.0849C175.207 43.3114 174.807 43.4534 174.278 43.5109L172.009 43.7572L171.47 38.7884ZM172.296 39.3324L172.457 40.8147L173.766 40.6726C174.114 40.6348 174.357 40.545 174.498 40.4101C174.637 40.2682 174.692 40.065 174.664 39.8006C174.637 39.55 174.54 39.3774 174.375 39.2827C174.209 39.181 173.953 39.1525 173.619 39.1888L172.296 39.3324ZM172.525 41.434L172.7 43.0485L174.106 42.8959C174.426 42.8611 174.67 42.7783 174.841 42.6612C175.049 42.5048 175.145 42.2832 175.114 41.9978C175.082 41.7056 174.968 41.4997 174.78 41.3863C174.591 41.273 174.313 41.2398 173.951 41.2791L172.525 41.434ZM177.986 39.3694C178.167 39.3497 178.33 39.3602 178.462 39.4092L178.542 40.1469C178.355 40.1109 178.179 40.1089 178.012 40.127C177.79 40.1512 177.598 40.2636 177.443 40.4634C177.276 40.6787 177.214 40.946 177.248 41.2591L177.455 43.1659L176.717 43.246L176.327 39.6482L177.064 39.5681L177.123 40.1109C177.193 39.9062 177.295 39.7472 177.424 39.6347C177.576 39.4774 177.764 39.3936 177.986 39.3694ZM180.562 39.0898C181.104 39.0308 181.562 39.1641 181.929 39.4905C182.288 39.8107 182.504 40.2449 182.563 40.7946C182.622 41.3374 182.511 41.8072 182.229 42.1899C181.934 42.588 181.516 42.8235 180.973 42.8825C180.431 42.9414 179.972 42.8011 179.598 42.4755C179.241 42.1623 179.031 41.7273 178.972 41.1845C178.913 40.6348 179.024 40.165 179.312 39.7746C179.6 39.3772 180.019 39.1487 180.562 39.0898ZM180.627 39.6952C180.286 39.7322 180.036 39.8932 179.878 40.185C179.736 40.4327 179.692 40.7403 179.731 41.1022C179.77 41.464 179.879 41.748 180.071 41.9595C180.287 42.2036 180.567 42.314 180.908 42.277C181.249 42.24 181.498 42.0721 181.664 41.7865C181.805 41.5318 181.857 41.2304 181.819 40.8755C181.779 40.5136 181.663 40.2234 181.471 40.0119C181.247 39.7617 180.968 39.6582 180.627 39.6952ZM182.686 38.9577L183.5 38.8693L184.554 41.5079L184.996 38.7068L185.678 38.6328L186.711 41.2737L187.174 38.4703L187.988 38.3819L187.161 42.112L186.479 42.1861L185.435 39.5745L184.976 42.3493L184.294 42.4233L182.686 38.9577ZM189.776 38.0892C190.709 37.988 191.265 38.3078 191.431 39.0573L190.714 39.1351C190.637 38.9463 190.539 38.8232 190.413 38.7595C190.278 38.6896 190.079 38.669 189.828 38.6962C189.606 38.7203 189.442 38.7663 189.338 38.848C189.213 38.9319 189.163 39.0501 189.178 39.1893C189.191 39.3145 189.3 39.4083 189.505 39.4776C189.636 39.5197 189.88 39.5636 190.252 39.6148C190.673 39.6676 190.992 39.7527 191.201 39.8568C191.506 40.0068 191.679 40.2414 191.714 40.5615C191.796 41.3201 191.302 41.761 190.237 41.8766C189.249 41.9839 188.674 41.6168 188.5 40.7908L189.223 40.7122C189.292 40.9513 189.401 41.1154 189.537 41.1992C189.672 41.2761 189.872 41.3037 190.15 41.2734C190.721 41.2115 190.995 41.0127 190.96 40.6926C190.941 40.5186 190.815 40.3915 190.596 40.3168C190.478 40.2732 190.227 40.2301 189.849 40.1866C189.414 40.1353 189.104 40.0634 188.925 39.9702C188.627 39.8264 188.462 39.5979 188.428 39.2917C188.393 38.9647 188.497 38.6928 188.749 38.4824C189 38.2651 189.345 38.1361 189.776 38.0892ZM193.573 37.677C194.157 37.6135 194.631 37.7593 194.981 38.1296C195.299 38.4613 195.499 38.9465 195.576 39.586L192.848 39.8822C192.913 40.2271 193.033 40.4887 193.221 40.6584C193.407 40.8212 193.648 40.8937 193.94 40.862C194.197 40.834 194.399 40.7487 194.546 40.613C194.661 40.502 194.748 40.3306 194.823 40.1113L195.561 40.0312C195.513 40.3743 195.384 40.677 195.158 40.9269C194.874 41.2323 194.493 41.4145 194.012 41.4667C193.484 41.5241 193.041 41.4032 192.699 41.1093C192.327 40.7977 192.11 40.3495 192.046 39.758C191.987 39.2222 192.092 38.7602 192.373 38.3635C192.639 37.9614 193.044 37.7344 193.573 37.677ZM193.659 38.2802C193.381 38.3104 193.174 38.4104 193.025 38.5955C192.889 38.7722 192.81 39.0132 192.801 39.3239L194.743 39.1131C194.605 38.4943 194.244 38.2167 193.659 38.2802ZM197.647 37.2346C197.828 37.215 197.991 37.2254 198.123 37.2745L198.203 38.0121C198.016 37.9761 197.84 37.9741 197.673 37.9922C197.45 38.0164 197.258 38.1288 197.104 38.3286C196.937 38.5439 196.875 38.8112 196.909 39.1244L197.116 41.0311L196.378 41.1112L195.987 37.5134L196.725 37.4333L196.784 37.9761C196.853 37.7714 196.956 37.6124 197.084 37.4999C197.236 37.3426 197.424 37.2588 197.647 37.2346ZM130.155 53.2346C130.733 53.1719 131.229 53.2659 131.638 53.5313C132.031 53.7843 132.298 54.1637 132.429 54.6564L131.691 54.7365C131.571 54.4116 131.384 54.1784 131.13 54.0441C130.876 53.9097 130.576 53.8649 130.214 53.9042C129.678 53.9623 129.294 54.1871 129.062 54.5854C128.841 54.9474 128.766 55.4203 128.829 55.9979C128.894 56.5964 129.069 57.0421 129.355 57.342C129.657 57.6612 130.086 57.7906 130.643 57.7302C131.005 57.6909 131.301 57.5671 131.518 57.3605C131.748 57.1385 131.89 56.8273 131.945 56.427L132.683 56.3469C132.634 56.9366 132.426 57.4169 132.051 57.7886C131.701 58.1363 131.259 58.3393 130.723 58.3975C129.908 58.4859 129.267 58.2879 128.801 57.8175C128.391 57.4114 128.152 56.8319 128.07 56.0803C127.99 55.3426 128.106 54.7245 128.431 54.2174C128.791 53.6432 129.362 53.3207 130.155 53.2346ZM134.823 54.1148C135.366 54.0558 135.824 54.1892 136.191 54.5155C136.549 54.8357 136.766 55.2699 136.825 55.8197C136.884 56.3625 136.773 56.8322 136.491 57.2149C136.196 57.6131 135.778 57.8486 135.235 57.9075C134.692 57.9664 134.234 57.8261 133.86 57.5005C133.502 57.1873 133.293 56.7524 133.234 56.2096C133.175 55.6598 133.286 55.1901 133.574 54.7997C133.862 54.4023 134.281 54.1737 134.823 54.1148ZM134.889 54.7202C134.548 54.7573 134.298 54.9182 134.14 55.21C133.998 55.4578 133.954 55.7653 133.993 56.1272C134.032 56.4891 134.14 56.7731 134.332 56.9846C134.549 57.2286 134.829 57.3391 135.17 57.3021C135.511 57.265 135.76 57.0971 135.926 56.8115C136.067 56.5568 136.119 56.2554 136.081 55.9005C136.041 55.5386 135.925 55.2485 135.733 55.037C135.509 54.7867 135.23 54.6832 134.889 54.7202ZM139.045 53.6564C139.574 53.5989 139.979 53.7592 140.245 54.1386C140.381 53.8986 140.538 53.7196 140.709 53.6095C140.866 53.5009 141.064 53.4372 141.307 53.4108C141.676 53.3707 141.995 53.4558 142.266 53.6799C142.529 53.8978 142.689 54.2043 142.733 54.6079L142.989 56.967L142.251 57.0471L142.009 54.8133C141.977 54.521 141.891 54.312 141.751 54.1934C141.611 54.0678 141.395 54.0279 141.117 54.0581C140.908 54.0808 140.749 54.1755 140.627 54.3437C140.504 54.5119 140.458 54.7352 140.487 54.9996L140.727 57.2126L139.989 57.2927L139.748 55.0658C139.686 54.4952 139.405 54.244 138.918 54.2969C138.681 54.3226 138.496 54.4342 138.377 54.6302C138.242 54.8209 138.196 55.0441 138.223 55.2947L138.458 57.4589L137.721 57.539L137.33 53.9412L138.068 53.8611L138.111 54.2578C138.367 53.892 138.684 53.6957 139.045 53.6564ZM145.148 52.9937C145.677 52.9363 146.082 53.0966 146.348 53.476C146.484 53.2359 146.641 53.057 146.812 52.9469C146.969 52.8383 147.166 52.7746 147.41 52.7481C147.779 52.7081 148.098 52.7932 148.369 53.0172C148.632 53.2351 148.792 53.5416 148.835 53.9453L149.092 56.3044L148.354 56.3845L148.111 54.1506C148.08 53.8583 147.994 53.6494 147.854 53.5308C147.714 53.4052 147.498 53.3652 147.22 53.3955C147.011 53.4181 146.852 53.5128 146.73 53.681C146.607 53.8492 146.561 54.0725 146.59 54.337L146.83 56.55L146.092 56.6301L145.85 54.4032C145.789 53.8325 145.508 53.5813 145.021 53.6342C144.784 53.6599 144.599 53.7716 144.479 53.9676C144.345 54.1582 144.299 54.3815 144.326 54.632L144.561 56.7963L143.824 56.8764L143.433 53.2785L144.171 53.1984L144.214 53.5951C144.47 53.2293 144.786 53.033 145.148 52.9937ZM151.147 52.3424C151.676 52.285 152.08 52.3749 152.359 52.6121C152.6 52.8184 152.747 53.1403 152.795 53.5787L153.044 55.8752L152.362 55.9493L152.307 55.4413C152.187 55.6373 152.029 55.8024 151.832 55.9294C151.607 56.0664 151.336 56.1593 151.016 56.1941C150.64 56.2349 150.337 56.1692 150.108 56.0039C149.858 55.841 149.72 55.6095 149.687 55.3103C149.644 54.9066 149.77 54.5761 150.066 54.3256C150.336 54.0851 150.742 53.9354 151.27 53.864L152.075 53.7555L152.059 53.6094C152.004 53.1083 151.706 52.8872 151.163 52.9462C150.933 52.9711 150.75 53.0333 150.62 53.1319C150.463 53.2475 150.375 53.4049 150.355 53.6113L149.617 53.628C149.652 53.23 149.815 52.9165 150.101 52.7023C150.348 52.5066 150.701 52.3908 151.147 52.3424ZM152.133 54.2914L151.377 54.3946C150.703 54.4818 150.395 54.7547 150.443 55.2001C150.458 55.3392 150.526 55.4445 150.654 55.5222C150.775 55.6005 150.934 55.6326 151.121 55.6122C151.435 55.5782 151.688 55.4521 151.891 55.24C152.093 55.0279 152.186 54.7785 152.155 54.5001L152.133 54.2914ZM155.311 51.8903C156.201 51.7936 156.707 52.2316 156.814 53.2198L157.055 55.4397L156.317 55.5198L156.083 53.3625C156.016 52.7501 155.698 52.4749 155.141 52.5353C154.932 52.558 154.752 52.648 154.616 52.8177C154.467 53.0029 154.387 53.2439 154.391 53.5392L154.626 55.7035L153.888 55.7836L153.498 52.1857L154.235 52.1056L154.284 52.551C154.403 52.3549 154.549 52.2053 154.72 52.0952C154.891 51.9781 155.088 51.9145 155.311 51.8903ZM159.937 50.0009L160.674 49.9208L161.225 54.987L160.536 55.0618L160.489 54.6303C160.276 55.0055 159.92 55.2272 159.433 55.2801C158.904 55.3376 158.466 55.195 158.126 54.8517C157.81 54.534 157.621 54.0967 157.562 53.547C157.504 53.0181 157.589 52.5653 157.829 52.1871C158.081 51.7796 158.471 51.5471 158.986 51.4912C159.425 51.4436 159.816 51.6123 160.154 52.0051L159.937 50.0009ZM159.218 52.0715C158.856 52.1108 158.598 52.2586 158.451 52.528C158.32 52.7534 158.277 53.0679 158.32 53.4646C158.363 53.8613 158.466 54.1599 158.636 54.3667C158.831 54.6061 159.117 54.7089 159.479 54.6696C159.799 54.6348 160.028 54.4761 160.182 54.206C160.31 53.9597 160.355 53.6591 160.316 53.2972L160.309 53.2346C160.267 52.8449 160.135 52.5423 159.929 52.3253C159.724 52.1223 159.49 52.0421 159.218 52.0715ZM163.905 49.6686L166.173 49.4223C166.661 49.3694 167.048 49.4399 167.353 49.6463C167.641 49.8403 167.806 50.1252 167.847 50.5079C167.878 50.7863 167.834 51.0304 167.716 51.2404C167.596 51.4365 167.423 51.596 167.183 51.7137C167.517 51.7408 167.781 51.8459 167.97 52.0295C168.159 52.2132 168.272 52.4756 168.309 52.8096C168.363 53.3106 168.228 53.6914 167.913 53.965C167.642 54.1916 167.242 54.3336 166.713 54.3911L164.444 54.6374L163.905 49.6686ZM164.731 50.2126L164.892 51.6948L166.201 51.5528C166.549 51.515 166.792 51.4252 166.933 51.2902C167.072 51.1484 167.127 50.9452 167.099 50.6807C167.071 50.4302 166.975 50.2576 166.81 50.1629C166.644 50.0612 166.388 50.0327 166.054 50.069L164.731 50.2126ZM164.96 52.3142L165.135 53.9287L166.541 53.7761C166.861 53.7413 167.105 53.6584 167.276 53.5414C167.484 53.385 167.579 53.1634 167.548 52.878C167.517 52.5857 167.403 52.3798 167.215 52.2665C167.026 52.1532 166.748 52.12 166.386 52.1593L164.96 52.3142ZM170.373 50.2549C170.901 50.1974 171.305 50.2873 171.585 50.5246C171.825 50.7308 171.973 51.0528 172.021 51.4912L172.27 53.7877L171.588 53.8617L171.533 53.3537C171.413 53.5498 171.255 53.7148 171.058 53.8419C170.833 53.9789 170.562 54.0718 170.242 54.1065C169.866 54.1473 169.563 54.0816 169.334 53.9164C169.084 53.7534 168.946 53.522 168.913 53.2227C168.87 52.8191 168.996 52.4885 169.292 52.2381C169.562 51.9976 169.968 51.8478 170.495 51.7765L171.3 51.668L171.285 51.5218C171.23 51.0208 170.932 50.7997 170.389 50.8586C170.159 50.8836 169.976 50.9457 169.846 51.0443C169.689 51.1599 169.601 51.3174 169.581 51.5237L168.843 51.5404C168.878 51.1424 169.041 50.829 169.327 50.6148C169.574 50.4191 169.927 50.3032 170.373 50.2549ZM171.359 52.2038L170.602 52.307C169.929 52.3943 169.621 52.6671 169.669 53.1125C169.684 53.2517 169.752 53.357 169.88 53.4346C170.001 53.513 170.159 53.5451 170.347 53.5247C170.66 53.4907 170.914 53.3645 171.117 53.1525C171.319 52.9404 171.412 52.6909 171.381 52.4126L171.359 52.2038ZM174.383 49.8194C174.564 49.7997 174.727 49.8102 174.859 49.8592L174.939 50.5969C174.752 50.5609 174.576 50.5589 174.409 50.577C174.187 50.6012 173.995 50.7136 173.84 50.9134C173.673 51.1286 173.611 51.396 173.645 51.7091L173.852 53.6159L173.114 53.696L172.724 50.0981L173.461 50.0181L173.52 50.5609C173.59 50.3562 173.692 50.1972 173.821 50.0847C173.973 49.9273 174.161 49.8436 174.383 49.8194Z" fill="black" fill-opacity="0.4"/>
</g>
</g>
<g filter="url(#filter5_di_3359_392)">
<path d="M53.2704 20.7277C52.1439 21.1729 51.5807 21.3955 51.2532 21.7908C50.9892 22.1095 50.8305 22.5022 50.799 22.9149C50.76 23.4267 51.0105 23.9781 51.5114 25.0808L57.11 37.4058C57.5677 38.4133 57.7965 38.9171 58.1721 39.2165C58.4755 39.4583 58.8427 39.6067 59.229 39.6435C59.7072 39.6891 60.2218 39.4857 61.2509 39.0789L76.5787 33.0203C77.7141 32.5716 78.2818 32.3472 78.61 31.9488C78.8747 31.6277 79.0325 31.2319 79.0616 30.8168C79.0977 30.3019 78.8404 29.7484 78.3257 28.6413L73.8832 19.0853C73.4204 18.0898 73.189 17.5921 72.8138 17.2967C72.5107 17.0582 72.1451 16.9123 71.761 16.8767C71.2856 16.8327 70.7751 17.0345 69.7541 17.438L62.6325 20.253C62.1486 20.4443 61.9066 20.5399 61.6572 20.5716C61.4541 20.5974 61.2482 20.5919 61.0468 20.5552C60.7995 20.5101 60.563 20.4016 60.0901 20.1846L58.8268 19.6048C58.3538 19.3878 58.1174 19.2792 57.8701 19.2342C57.6686 19.1975 57.4628 19.192 57.2596 19.2178C57.0103 19.2494 56.7683 19.3451 56.2844 19.5364L53.2704 20.7277Z" fill="url(#paint15_linear_3359_392)"/>
<path d="M53.4543 21.1926L56.4677 20.0015C56.9749 19.8011 57.1499 19.7361 57.3223 19.7141C57.4746 19.6948 57.6296 19.6986 57.7807 19.7262C57.9517 19.7573 58.1224 19.8315 58.6179 20.0589L59.8815 20.6389C60.3313 20.8454 60.634 20.9884 60.9575 21.0474C61.2092 21.0932 61.4666 21.0994 61.7204 21.0672C62.0465 21.0257 62.356 20.8999 62.8162 20.718L69.9382 17.9029C70.4562 17.6982 70.817 17.5561 71.1073 17.4681C71.3916 17.382 71.5681 17.3612 71.7152 17.3749C72.0032 17.4016 72.2772 17.5109 72.5044 17.6898C72.6205 17.7812 72.7345 17.9179 72.8814 18.1761C73.0314 18.4398 73.1954 18.791 73.4301 19.296L77.8719 28.8517C78.133 29.4132 78.3157 29.8059 78.4307 30.122C78.5438 30.4326 78.5735 30.6241 78.5624 30.7819C78.5406 31.0932 78.4223 31.39 78.2238 31.6308C78.1232 31.7528 77.9698 31.8708 77.6744 32.0181C77.3733 32.1682 76.9705 32.3279 76.3946 32.5555L61.0671 38.6139C60.5451 38.8203 60.1816 38.9637 59.8889 39.0523C59.6024 39.1391 59.4245 39.1593 59.2767 39.1452C58.987 39.1176 58.7111 39.0069 58.4835 38.8255C58.3674 38.7329 58.2541 38.5947 58.1083 38.3333C57.9593 38.0662 57.7976 37.7099 57.5653 37.1986L51.9671 24.874C51.7131 24.3146 51.5356 23.9238 51.4241 23.6091C51.3146 23.3 51.2859 23.1092 51.2979 22.9523C51.3215 22.6431 51.4403 22.3489 51.6381 22.11C51.7385 21.9888 51.8919 21.8719 52.1855 21.7257C52.4843 21.5768 52.8831 21.4184 53.4543 21.1926Z" stroke="#5393FF"/>
</g>
<path d="M56.3959 27.0193C56.1929 26.5057 56.4447 25.9248 56.9583 25.7218L70.9081 20.2079C71.4217 20.0048 72.0027 20.2566 72.2057 20.7703L74.7788 27.2802C74.9819 27.7938 74.7301 28.3747 74.2164 28.5777L60.2666 34.0916C59.753 34.2947 59.1721 34.0429 58.9691 33.5292L56.3959 27.0193Z" fill="white"/>
<path d="M62.3435 25.7438L66.9934 23.9058" stroke="#DDE8FB" stroke-linecap="round"/>
<g filter="url(#filter6_i_3359_392)">
<path d="M59.0389 29.2005C58.1406 29.5556 57.6915 29.7331 57.391 30.0439C57.1477 30.2954 56.9747 30.6064 56.8893 30.9457C56.7837 31.3649 56.8697 31.8402 57.0417 32.7906L57.6809 36.323C57.9272 37.6841 58.0504 38.3647 58.4242 38.7847C58.7248 39.1225 59.131 39.3485 59.5765 39.4258C60.1306 39.5219 60.7737 39.2677 62.0601 38.7592L77.3042 32.7337C78.2025 32.3787 78.6516 32.2011 78.9521 31.8904C79.1953 31.6388 79.3683 31.3278 79.4538 30.9885C79.5594 30.5693 79.4734 30.0941 79.3014 29.1436L78.6622 25.6113C78.4159 24.2501 78.2927 23.5696 77.9189 23.1495C77.6183 22.8117 77.2121 22.5857 76.7665 22.5084C76.2125 22.4124 75.5693 22.6666 74.2829 23.1751L66.7098 26.1685L59.0389 29.2005Z" fill="url(#paint16_linear_3359_392)"/>
<path d="M59.0389 29.2005C58.1406 29.5556 57.6915 29.7331 57.391 30.0439C57.1477 30.2954 56.9747 30.6064 56.8893 30.9457C56.7837 31.3649 56.8697 31.8402 57.0417 32.7906L57.6809 36.323C57.9272 37.6841 58.0504 38.3647 58.4242 38.7847C58.7248 39.1225 59.131 39.3485 59.5765 39.4258C60.1306 39.5219 60.7737 39.2677 62.0601 38.7592L77.3042 32.7337C78.2025 32.3787 78.6516 32.2011 78.9521 31.8904C79.1953 31.6388 79.3683 31.3278 79.4538 30.9885C79.5594 30.5693 79.4734 30.0941 79.3014 29.1436L78.6622 25.6113C78.4159 24.2501 78.2927 23.5696 77.9189 23.1495C77.6183 22.8117 77.2121 22.5857 76.7665 22.5084C76.2125 22.4124 75.5693 22.6666 74.2829 23.1751L66.7098 26.1685L59.0389 29.2005Z" fill="url(#paint17_linear_3359_392)"/>
</g>
<path d="M59.2228 29.6655L74.4668 23.64C75.1186 23.3824 75.5765 23.2015 75.9406 23.0942C76.3001 22.9884 76.5135 22.9722 76.6809 23.0012C77.0149 23.0591 77.3196 23.2286 77.545 23.4818C77.6579 23.6087 77.7565 23.7988 77.8561 24.16C77.957 24.526 78.0451 25.0106 78.1699 25.7004L78.8089 29.2323C78.8962 29.7148 78.9567 30.0496 78.9842 30.316C79.0109 30.5759 79.0015 30.7352 78.9685 30.8662C78.9044 31.1207 78.7748 31.3544 78.5923 31.543C78.4984 31.64 78.3683 31.7319 78.1336 31.8462C77.8927 31.9635 77.5765 32.0884 77.1203 32.2688L61.8763 38.2942C61.2245 38.5519 60.7666 38.7328 60.4025 38.84C60.043 38.9459 59.8296 38.9621 59.6622 38.9331C59.3282 38.8752 59.0235 38.7057 58.7981 38.4524C58.6851 38.3255 58.5866 38.1355 58.4869 37.7742C58.386 37.4083 58.298 36.9236 58.1732 36.2339L57.5342 32.7019C57.4469 32.2194 57.3863 31.8847 57.3589 31.6182C57.3322 31.3583 57.3416 31.1991 57.3746 31.0681C57.4387 30.8136 57.5683 30.5799 57.7507 30.3912C57.8446 30.2942 57.9748 30.2023 58.2095 30.0881C58.4504 29.9708 58.7666 29.8458 59.2228 29.6655Z" stroke="#5393FF"/>
<g opacity="0.5">
<g filter="url(#filter7_d_3359_392)">
<path d="M54.8424 61.9328C54.0996 62.5826 53.7282 62.9074 53.577 63.303C53.455 63.6221 53.4317 63.9706 53.5102 64.3032C53.6075 64.7153 53.9323 65.0867 54.5821 65.8295L62.7302 75.1442C63.3799 75.887 63.7048 76.2584 64.1003 76.4096C64.4195 76.5316 64.768 76.5549 65.1005 76.4764C65.5127 76.3792 65.884 76.0543 66.6268 75.4046L77.2246 66.1342C77.9674 65.4844 78.3388 65.1595 78.49 64.764C78.612 64.4448 78.6353 64.0964 78.5568 63.7638C78.4596 63.3517 78.1347 62.9803 77.4849 62.2375L71.0204 54.8473C70.3706 54.1045 70.0457 53.7331 69.6502 53.5819C69.331 53.4599 68.9826 53.4366 68.65 53.5151C68.2379 53.6123 67.8665 53.9372 67.1237 54.5869L62.3298 58.7804C61.996 59.0724 61.8291 59.2184 61.6379 59.3152C61.4822 59.394 61.3153 59.4484 61.1431 59.4766C60.9317 59.5112 60.7108 59.4917 60.269 59.4527L59.0888 59.3486C58.6471 59.3097 58.4262 59.2902 58.2147 59.3247C58.0425 59.3529 57.8756 59.4074 57.7199 59.4862C57.5287 59.5829 57.3618 59.7289 57.028 60.0209L54.8424 61.9328Z" fill="url(#paint18_linear_3359_392)"/>
<path d="M55.1229 62.2531L57.3082 60.3416C57.6582 60.0354 57.78 59.9333 57.9122 59.8664C58.029 59.8072 58.1545 59.7663 58.2837 59.7452C58.4299 59.7213 58.5883 59.7321 59.0514 59.7729L60.2313 59.8773C60.6513 59.9144 60.9349 59.9423 61.2114 59.8971C61.4266 59.8619 61.6358 59.7941 61.8304 59.6956C62.0805 59.569 62.2931 59.3791 62.6106 59.1013L67.4045 54.9079C67.7813 54.5782 68.0444 54.3489 68.2637 54.1874C68.4789 54.0291 68.6212 53.9597 68.7481 53.9298C68.9974 53.871 69.2585 53.8885 69.4977 53.9799C69.6196 54.0264 69.7521 54.1134 69.9443 54.299C70.1402 54.4882 70.3697 54.7512 70.6993 55.128L77.1637 62.518C77.4931 62.8946 77.7234 63.1573 77.8849 63.3766C78.0432 63.5917 78.1118 63.7347 78.1418 63.8616C78.2006 64.111 78.1838 64.3726 78.0923 64.612C78.0458 64.7338 77.9581 64.8656 77.7726 65.0578C77.5834 65.2537 77.321 65.4839 76.9442 65.8135L66.3465 75.0838C65.9698 75.4134 65.7066 75.6428 65.4873 75.8043C65.2723 75.9626 65.1298 76.0319 65.0029 76.0619C64.7535 76.1208 64.492 76.1026 64.2527 76.0111C64.1308 75.9645 63.9983 75.8775 63.8061 75.692C63.6103 75.5028 63.3798 75.2402 63.0504 74.8636L54.9027 65.5493C54.5732 65.1726 54.3437 64.9094 54.1822 64.6901C54.0239 64.4749 53.9553 64.332 53.9253 64.2051C53.8665 63.9557 53.884 63.6947 53.9754 63.4554C54.022 63.3336 54.109 63.2011 54.2945 63.0089C54.4837 62.813 54.7462 62.5827 55.1229 62.2531Z" stroke="#5393FF" stroke-width="0.852315"/>
</g>
<path d="M59.1776 67.1995C58.8677 66.8452 58.9037 66.3067 59.258 65.9968L68.8807 57.5794C69.2349 57.2695 69.7734 57.3054 70.0833 57.6597L74.0115 62.1503C74.3214 62.5046 74.2854 63.0431 73.9311 63.353L64.3084 71.7704C63.9541 72.0804 63.4157 72.0444 63.1058 71.6901L59.1776 67.1995Z" fill="white"/>
<path d="M63.5879 64.474L66.7955 61.6682" stroke="#DDE8FB" stroke-width="0.852315" stroke-linecap="round"/>
<g filter="url(#filter8_i_3359_392)">
<path d="M56.5258 63.8574C55.783 64.5071 55.4116 64.832 55.2604 65.2275C55.1384 65.5467 55.1151 65.8952 55.1936 66.2277C55.2908 66.6399 55.6157 67.0113 56.2654 67.754L62.73 75.1443C63.3798 75.887 63.7047 76.2584 64.1002 76.4096C64.4193 76.5317 64.7678 76.555 65.1004 76.4765C65.5125 76.3792 65.8839 76.0543 66.6267 75.4046L77.2245 66.1342C77.9673 65.4844 78.3387 65.1596 78.4899 64.764C78.6119 64.4449 78.6352 64.0964 78.5567 63.7638C78.4594 63.3517 78.1346 62.9803 77.4848 62.2375L71.0202 54.8473C70.3705 54.1045 70.0456 53.7331 69.6501 53.5819C69.3309 53.4599 68.9824 53.4366 68.6498 53.5151C68.2377 53.6123 67.8663 53.9372 67.1235 54.587L61.4427 59.5563L56.5258 63.8574Z" fill="url(#paint19_linear_3359_392)"/>
</g>
<path d="M56.8063 64.1777L67.4039 54.9074C67.7807 54.5778 68.0438 54.3484 68.2632 54.1869C68.4783 54.0286 68.6212 53.96 68.7482 53.93C68.9975 53.8713 69.2585 53.8887 69.4978 53.9801C69.6196 54.0267 69.7522 54.1137 69.9443 54.2992C70.1402 54.4884 70.3698 54.7515 70.6993 55.1283L77.1637 62.5182C77.4933 62.895 77.7235 63.1575 77.885 63.3769C78.0433 63.592 78.1119 63.7349 78.1418 63.8619C78.2006 64.1111 78.1832 64.3722 78.0918 64.6115C78.0452 64.7333 77.9582 64.8658 77.7726 65.058C77.5834 65.2539 77.3204 65.4834 76.9436 65.813L66.346 75.0833C65.9692 75.4129 65.7067 75.6431 65.4874 75.8046C65.2722 75.9629 65.1293 76.0315 65.0024 76.0614C64.753 76.1202 64.492 76.1028 64.2527 76.0114C64.1309 75.9648 63.9984 75.8778 63.8062 75.6922C63.6103 75.503 63.38 75.2406 63.0504 74.8639L56.586 67.4739C56.2565 67.0971 56.027 66.8339 55.8656 66.6146C55.7072 66.3995 55.6386 66.2566 55.6087 66.1296C55.5499 65.8803 55.5673 65.6193 55.6588 65.38C55.7053 65.2582 55.7923 65.1256 55.9779 64.9335C56.1671 64.7376 56.4295 64.5072 56.8063 64.1777Z" stroke="#5393FF" stroke-width="0.852315"/>
</g>
<rect width="280" height="42" transform="matrix(1 0 0 -1 -14 120)" fill="url(#paint20_linear_3359_392)"/>
</g>
<defs>
<filter id="filter0_f_3359_392" x="39.8" y="-17.2" width="270.4" height="244.4" filterUnits="userSpaceOnUse" color-interpolation-filters="sRGB">
<feFlood flood-opacity="0" result="BackgroundImageFix"/>
<feBlend mode="normal" in="SourceGraphic" in2="BackgroundImageFix" result="shape"/>
<feGaussianBlur stdDeviation="19.1" result="effect1_foregroundBlur_3359_392"/>
</filter>
<filter id="filter1_f_3359_392" x="2.8" y="-22.2" width="238.4" height="190.4" filterUnits="userSpaceOnUse" color-interpolation-filters="sRGB">
<feFlood flood-opacity="0" result="BackgroundImageFix"/>
<feBlend mode="normal" in="SourceGraphic" in2="BackgroundImageFix" result="shape"/>
<feGaussianBlur stdDeviation="19.1" result="effect1_foregroundBlur_3359_392"/>
</filter>
<filter id="filter2_dddd_3359_392" x="84" y="8.23462" width="149.577" height="135.258" filterUnits="userSpaceOnUse" color-interpolation-filters="sRGB">
<feFlood flood-opacity="0" result="BackgroundImageFix"/>
<feColorMatrix in="SourceAlpha" type="matrix" values="0 0 0 0 0 0 0 0 0 0 0 0 0 0 0 0 0 0 127 0" result="hardAlpha"/>
<feOffset dy="2"/>
<feGaussianBlur stdDeviation="2"/>
<feColorMatrix type="matrix" values="0 0 0 0 0.321569 0 0 0 0 0.501961 0 0 0 0 0.737255 0 0 0 0.1 0"/>
<feBlend mode="normal" in2="BackgroundImageFix" result="effect1_dropShadow_3359_392"/>
<feColorMatrix in="SourceAlpha" type="matrix" values="0 0 0 0 0 0 0 0 0 0 0 0 0 0 0 0 0 0 127 0" result="hardAlpha"/>
<feOffset dy="7"/>
<feGaussianBlur stdDeviation="3.5"/>
<feColorMatrix type="matrix" values="0 0 0 0 0.321569 0 0 0 0 0.501961 0 0 0 0 0.737255 0 0 0 0.09 0"/>
<feBlend mode="normal" in2="effect1_dropShadow_3359_392" result="effect2_dropShadow_3359_392"/>
<feColorMatrix in="SourceAlpha" type="matrix" values="0 0 0 0 0 0 0 0 0 0 0 0 0 0 0 0 0 0 127 0" result="hardAlpha"/>
<feOffset dy="16"/>
<feGaussianBlur stdDeviation="5"/>
<feColorMatrix type="matrix" values="0 0 0 0 0.321569 0 0 0 0 0.501961 0 0 0 0 0.737255 0 0 0 0.05 0"/>
<feBlend mode="normal" in2="effect2_dropShadow_3359_392" result="effect3_dropShadow_3359_392"/>
<feColorMatrix in="SourceAlpha" type="matrix" values="0 0 0 0 0 0 0 0 0 0 0 0 0 0 0 0 0 0 127 0" result="hardAlpha"/>
<feOffset dy="29"/>
<feGaussianBlur stdDeviation="6"/>
<feColorMatrix type="matrix" values="0 0 0 0 0.321569 0 0 0 0 0.501961 0 0 0 0 0.737255 0 0 0 0.01 0"/>
<feBlend mode="normal" in2="effect3_dropShadow_3359_392" result="effect4_dropShadow_3359_392"/>
<feBlend mode="normal" in="SourceGraphic" in2="effect4_dropShadow_3359_392" result="shape"/>
</filter>
<filter id="filter3_dddd_3359_392" x="91.654" y="8.67167" width="131.166" height="98.0994" filterUnits="userSpaceOnUse" color-interpolation-filters="sRGB">
<feFlood flood-opacity="0" result="BackgroundImageFix"/>
<feColorMatrix in="SourceAlpha" type="matrix" values="0 0 0 0 0 0 0 0 0 0 0 0 0 0 0 0 0 0 127 0" result="hardAlpha"/>
<feOffset dy="1.04197"/>
<feGaussianBlur stdDeviation="1.30246"/>
<feColorMatrix type="matrix" values="0 0 0 0 0.780392 0 0 0 0 0.780392 0 0 0 0 0.780392 0 0 0 0.1 0"/>
<feBlend mode="normal" in2="BackgroundImageFix" result="effect1_dropShadow_3359_392"/>
<feColorMatrix in="SourceAlpha" type="matrix" values="0 0 0 0 0 0 0 0 0 0 0 0 0 0 0 0 0 0 127 0" result="hardAlpha"/>
<feOffset dy="4.68885"/>
<feGaussianBlur stdDeviation="2.34442"/>
<feColorMatrix type="matrix" values="0 0 0 0 0.780392 0 0 0 0 0.780392 0 0 0 0 0.780392 0 0 0 0.09 0"/>
<feBlend mode="normal" in2="effect1_dropShadow_3359_392" result="effect2_dropShadow_3359_392"/>
<feColorMatrix in="SourceAlpha" type="matrix" values="0 0 0 0 0 0 0 0 0 0 0 0 0 0 0 0 0 0 127 0" result="hardAlpha"/>
<feOffset dy="10.9406"/>
<feGaussianBlur stdDeviation="3.1259"/>
<feColorMatrix type="matrix" values="0 0 0 0 0.780392 0 0 0 0 0.780392 0 0 0 0 0.780392 0 0 0 0.05 0"/>
<feBlend mode="normal" in2="effect2_dropShadow_3359_392" result="effect3_dropShadow_3359_392"/>
<feColorMatrix in="SourceAlpha" type="matrix" values="0 0 0 0 0 0 0 0 0 0 0 0 0 0 0 0 0 0 127 0" result="hardAlpha"/>
<feOffset dy="19.2764"/>
<feGaussianBlur stdDeviation="3.90737"/>
<feColorMatrix type="matrix" values="0 0 0 0 0.780392 0 0 0 0 0.780392 0 0 0 0 0.780392 0 0 0 0.01 0"/>
<feBlend mode="normal" in2="effect3_dropShadow_3359_392" result="effect4_dropShadow_3359_392"/>
<feBlend mode="normal" in="SourceGraphic" in2="effect4_dropShadow_3359_392" result="shape"/>
</filter>
<filter id="filter4_dddd_3359_392" x="104.448" y="26.3163" width="18.3904" height="20.0154" filterUnits="userSpaceOnUse" color-interpolation-filters="sRGB">
<feFlood flood-opacity="0" result="BackgroundImageFix"/>
<feColorMatrix in="SourceAlpha" type="matrix" values="0 0 0 0 0 0 0 0 0 0 0 0 0 0 0 0 0 0 127 0" result="hardAlpha"/>
<feOffset dy="0.270833"/>
<feGaussianBlur stdDeviation="0.270833"/>
<feColorMatrix type="matrix" values="0 0 0 0 0.258824 0 0 0 0 0.717647 0 0 0 0 1 0 0 0 0.1 0"/>
<feBlend mode="normal" in2="BackgroundImageFix" result="effect1_dropShadow_3359_392"/>
<feColorMatrix in="SourceAlpha" type="matrix" values="0 0 0 0 0 0 0 0 0 0 0 0 0 0 0 0 0 0 127 0" result="hardAlpha"/>
<feOffset dx="-0.541667" dy="0.8125"/>
<feGaussianBlur stdDeviation="0.541667"/>
<feColorMatrix type="matrix" values="0 0 0 0 0.258824 0 0 0 0 0.717647 0 0 0 0 1 0 0 0 0.09 0"/>
<feBlend mode="normal" in2="effect1_dropShadow_3359_392" result="effect2_dropShadow_3359_392"/>
<feColorMatrix in="SourceAlpha" type="matrix" values="0 0 0 0 0 0 0 0 0 0 0 0 0 0 0 0 0 0 127 0" result="hardAlpha"/>
<feOffset dx="-1.08333" dy="2.16667"/>
<feGaussianBlur stdDeviation="0.677083"/>
<feColorMatrix type="matrix" values="0 0 0 0 0.258824 0 0 0 0 0.717647 0 0 0 0 1 0 0 0 0.05 0"/>
<feBlend mode="normal" in2="effect2_dropShadow_3359_392" result="effect3_dropShadow_3359_392"/>
<feColorMatrix in="SourceAlpha" type="matrix" values="0 0 0 0 0 0 0 0 0 0 0 0 0 0 0 0 0 0 127 0" result="hardAlpha"/>
<feOffset dx="-1.89583" dy="3.79167"/>
<feGaussianBlur stdDeviation="0.8125"/>
<feColorMatrix type="matrix" values="0 0 0 0 0.258824 0 0 0 0 0.717647 0 0 0 0 1 0 0 0 0.01 0"/>
<feBlend mode="normal" in2="effect3_dropShadow_3359_392" result="effect4_dropShadow_3359_392"/>
<feBlend mode="normal" in="SourceGraphic" in2="effect4_dropShadow_3359_392" result="shape"/>
</filter>
<filter id="filter5_di_3359_392" x="46.7952" y="14.8708" width="36.2698" height="30.7789" filterUnits="userSpaceOnUse" color-interpolation-filters="sRGB">
<feFlood flood-opacity="0" result="BackgroundImageFix"/>
<feColorMatrix in="SourceAlpha" type="matrix" values="0 0 0 0 0 0 0 0 0 0 0 0 0 0 0 0 0 0 127 0" result="hardAlpha"/>
<feOffset dy="2"/>
<feGaussianBlur stdDeviation="2"/>
<feComposite in2="hardAlpha" operator="out"/>
<feColorMatrix type="matrix" values="0 0 0 0 0.541176 0 0 0 0 0.713726 0 0 0 0 1 0 0 0 0.21 0"/>
<feBlend mode="normal" in2="BackgroundImageFix" result="effect1_dropShadow_3359_392"/>
<feBlend mode="normal" in="SourceGraphic" in2="effect1_dropShadow_3359_392" result="shape"/>
<feColorMatrix in="SourceAlpha" type="matrix" values="0 0 0 0 0 0 0 0 0 0 0 0 0 0 0 0 0 0 127 0" result="hardAlpha"/>
<feOffset dy="0.8"/>
<feGaussianBlur stdDeviation="0.7"/>
<feComposite in2="hardAlpha" operator="arithmetic" k2="-1" k3="1"/>
<feColorMatrix type="matrix" values="0 0 0 0 1 0 0 0 0 1 0 0 0 0 1 0 0 0 1 0"/>
<feBlend mode="normal" in2="shape" result="effect2_innerShadow_3359_392"/>
</filter>
<filter id="filter6_i_3359_392" x="56.843" y="22.4884" width="22.657" height="17.7574" filterUnits="userSpaceOnUse" color-interpolation-filters="sRGB">
<feFlood flood-opacity="0" result="BackgroundImageFix"/>
<feBlend mode="normal" in="SourceGraphic" in2="BackgroundImageFix" result="shape"/>
<feColorMatrix in="SourceAlpha" type="matrix" values="0 0 0 0 0 0 0 0 0 0 0 0 0 0 0 0 0 0 127 0" result="hardAlpha"/>
<feOffset dy="0.8"/>
<feGaussianBlur stdDeviation="0.7"/>
<feComposite in2="hardAlpha" operator="arithmetic" k2="-1" k3="1"/>
<feColorMatrix type="matrix" values="0 0 0 0 1 0 0 0 0 1 0 0 0 0 1 0 0 0 1 0"/>
<feBlend mode="normal" in2="shape" result="effect1_innerShadow_3359_392"/>
</filter>
<filter id="filter7_d_3359_392" x="50.0553" y="51.7649" width="31.9562" height="29.871" filterUnits="userSpaceOnUse" color-interpolation-filters="sRGB">
<feFlood flood-opacity="0" result="BackgroundImageFix"/>
<feColorMatrix in="SourceAlpha" type="matrix" values="0 0 0 0 0 0 0 0 0 0 0 0 0 0 0 0 0 0 127 0" result="hardAlpha"/>
<feOffset dy="1.70463"/>
<feGaussianBlur stdDeviation="1.70463"/>
<feComposite in2="hardAlpha" operator="out"/>
<feColorMatrix type="matrix" values="0 0 0 0 0.541176 0 0 0 0 0.713726 0 0 0 0 1 0 0 0 0.21 0"/>
<feBlend mode="normal" in2="BackgroundImageFix" result="effect1_dropShadow_3359_392"/>
<feBlend mode="normal" in="SourceGraphic" in2="effect1_dropShadow_3359_392" result="shape"/>
</filter>
<filter id="filter8_i_3359_392" x="55.1479" y="53.4695" width="23.4543" height="23.7345" filterUnits="userSpaceOnUse" color-interpolation-filters="sRGB">
<feFlood flood-opacity="0" result="BackgroundImageFix"/>
<feBlend mode="normal" in="SourceGraphic" in2="BackgroundImageFix" result="shape"/>
<feColorMatrix in="SourceAlpha" type="matrix" values="0 0 0 0 0 0 0 0 0 0 0 0 0 0 0 0 0 0 127 0" result="hardAlpha"/>
<feOffset dy="0.681852"/>
<feGaussianBlur stdDeviation="0.596621"/>
<feComposite in2="hardAlpha" operator="arithmetic" k2="-1" k3="1"/>
<feColorMatrix type="matrix" values="0 0 0 0 1 0 0 0 0 1 0 0 0 0 1 0 0 0 1 0"/>
<feBlend mode="normal" in2="shape" result="effect1_innerShadow_3359_392"/>
</filter>
<linearGradient id="paint0_linear_3359_392" x1="114.469" y1="27.9911" x2="114.469" y2="40.9911" gradientUnits="userSpaceOnUse">
<stop stop-color="#0097FD"/>
<stop offset="1" stop-color="#A7DCFF"/>
</linearGradient>
<linearGradient id="paint1_linear_3359_392" x1="112.917" y1="28.7232" x2="113.587" y2="30.0048" gradientUnits="userSpaceOnUse">
<stop stop-color="white"/>
<stop offset="1" stop-color="#DBE6FF"/>
</linearGradient>
<linearGradient id="paint2_linear_3359_392" x1="112.79" y1="28.7798" x2="113.563" y2="30.0364" gradientUnits="userSpaceOnUse">
<stop stop-color="white"/>
<stop offset="1" stop-color="white" stop-opacity="0"/>
</linearGradient>
<linearGradient id="paint3_linear_3359_392" x1="119.158" y1="35.9229" x2="119.138" y2="37.3689" gradientUnits="userSpaceOnUse">
<stop stop-color="white"/>
<stop offset="1" stop-color="#DBE6FF"/>
</linearGradient>
<linearGradient id="paint4_linear_3359_392" x1="119.019" y1="35.9125" x2="119.102" y2="37.3853" gradientUnits="userSpaceOnUse">
<stop stop-color="white"/>
<stop offset="1" stop-color="white" stop-opacity="0"/>
</linearGradient>
<linearGradient id="paint5_linear_3359_392" x1="118.96" y1="28.8274" x2="118.941" y2="30.2733" gradientUnits="userSpaceOnUse">
<stop stop-color="white"/>
<stop offset="1" stop-color="#DBE6FF"/>
</linearGradient>
<linearGradient id="paint6_linear_3359_392" x1="118.822" y1="28.8169" x2="118.905" y2="30.2897" gradientUnits="userSpaceOnUse">
<stop stop-color="white"/>
<stop offset="1" stop-color="white" stop-opacity="0"/>
</linearGradient>
<linearGradient id="paint7_linear_3359_392" x1="117.267" y1="30.234" x2="118.707" y2="30.3612" gradientUnits="userSpaceOnUse">
<stop stop-color="white"/>
<stop offset="1" stop-color="#DBE6FF"/>
</linearGradient>
<linearGradient id="paint8_linear_3359_392" x1="117.27" y1="30.0951" x2="118.727" y2="30.3268" gradientUnits="userSpaceOnUse">
<stop stop-color="white"/>
<stop offset="1" stop-color="white" stop-opacity="0"/>
</linearGradient>
<linearGradient id="paint9_linear_3359_392" x1="114.434" y1="34.4607" x2="106.048" y2="36.1562" gradientUnits="userSpaceOnUse">
<stop stop-color="#BAE3FF"/>
<stop offset="1" stop-color="#6FC4FE" stop-opacity="0"/>
</linearGradient>
<linearGradient id="paint10_linear_3359_392" x1="114.52" y1="35.2473" x2="111.302" y2="45.4615" gradientUnits="userSpaceOnUse">
<stop stop-color="#0F9FFF"/>
<stop offset="0.484006" stop-color="#48B5FF" stop-opacity="0"/>
</linearGradient>
<linearGradient id="paint11_linear_3359_392" x1="115.491" y1="30.5985" x2="116.028" y2="35.5399" gradientUnits="userSpaceOnUse">
<stop stop-color="white"/>
<stop offset="1" stop-color="#DBE6FF"/>
</linearGradient>
<linearGradient id="paint12_linear_3359_392" x1="115.007" y1="30.6213" x2="115.9" y2="35.6127" gradientUnits="userSpaceOnUse">
<stop stop-color="white"/>
<stop offset="1" stop-color="white" stop-opacity="0"/>
</linearGradient>
<linearGradient id="paint13_linear_3359_392" x1="115.491" y1="30.5986" x2="116.028" y2="35.5399" gradientUnits="userSpaceOnUse">
<stop stop-color="white"/>
<stop offset="1" stop-color="#DBE6FF"/>
</linearGradient>
<linearGradient id="paint14_linear_3359_392" x1="115.007" y1="30.6214" x2="115.9" y2="35.6127" gradientUnits="userSpaceOnUse">
<stop stop-color="white"/>
<stop offset="1" stop-color="white" stop-opacity="0"/>
</linearGradient>
<linearGradient id="paint15_linear_3359_392" x1="61.36" y1="16.4548" x2="69.0795" y2="35.9845" gradientUnits="userSpaceOnUse">
<stop stop-color="#93BBFF"/>
<stop offset="0.884515" stop-color="#81B0FF"/>
<stop offset="0.884615" stop-color="#4389FF"/>
<stop offset="1" stop-color="#97BEFF"/>
</linearGradient>
<linearGradient id="paint16_linear_3359_392" x1="61.3601" y1="16.4549" x2="69.0795" y2="35.9846" gradientUnits="userSpaceOnUse">
<stop stop-color="#93BBFF"/>
<stop offset="0.884515" stop-color="#81B0FF"/>
<stop offset="0.884615" stop-color="#4389FF"/>
<stop offset="1" stop-color="#97BEFF"/>
</linearGradient>
<linearGradient id="paint17_linear_3359_392" x1="65.7209" y1="24.7672" x2="70.0095" y2="35.6171" gradientUnits="userSpaceOnUse">
<stop stop-color="#CCDFFF"/>
<stop offset="0.827284" stop-color="#B2CEFF"/>
<stop offset="0.85339" stop-color="#89B5FF"/>
<stop offset="1" stop-color="#97BEFF"/>
</linearGradient>
<linearGradient id="paint18_linear_3359_392" x1="60.1413" y1="57.2976" x2="71.9257" y2="70.7694" gradientUnits="userSpaceOnUse">
<stop stop-color="#93BBFF"/>
<stop offset="0.884515" stop-color="#81B0FF"/>
<stop offset="0.884615" stop-color="#4389FF"/>
<stop offset="1" stop-color="#97BEFF"/>
</linearGradient>
<linearGradient id="paint19_linear_3359_392" x1="60.1412" y1="57.2976" x2="71.9256" y2="70.7694" gradientUnits="userSpaceOnUse">
<stop stop-color="#CCDFFF"/>
<stop offset="0.884515" stop-color="#B2CEFF"/>
<stop offset="0.884615" stop-color="#89B5FF"/>
<stop offset="1" stop-color="#97BEFF"/>
</linearGradient>
<linearGradient id="paint20_linear_3359_392" x1="140" y1="0" x2="140" y2="42" gradientUnits="userSpaceOnUse">
<stop offset="0.167693" stop-color="white"/>
<stop offset="1" stop-color="white" stop-opacity="0"/>
</linearGradient>
<clipPath id="clip0_3359_392">
<rect width="236" height="120" fill="white"/>
</clipPath>
<clipPath id="clip1_3359_392">
<rect width="7.29376" height="7.29376" fill="white" transform="translate(127.131 83.5234) rotate(-6.19357)"/>
</clipPath>
<clipPath id="clip2_3359_392">
<rect x="107.969" y="27.9911" width="13" height="13" rx="6.5" transform="rotate(-6.2 107.969 27.9911)" fill="white"/>
</clipPath>
</defs>
</svg>
