<svg width="252" height="120" viewBox="0 0 252 120" fill="none" xmlns="http://www.w3.org/2000/svg">
<g clip-path="url(#clip0_3359_358)">
<circle cx="125.5" cy="59.5" r="143.5" fill="#79C3F2" fill-opacity="0.05"/>
<circle cx="125.5" cy="59.5" r="143" stroke="#4AB9FF" stroke-opacity="0.1"/>
<circle cx="125.5" cy="59.5" r="120.5" fill="#79C3F2" fill-opacity="0.05"/>
<circle cx="125.5" cy="59.5" r="120" stroke="#4AB9FF" stroke-opacity="0.1"/>
<circle cx="125.5" cy="59.5" r="94.5" fill="#79C3F2" fill-opacity="0.05"/>
<circle cx="125.5" cy="59.5" r="94" stroke="#4AB9FF" stroke-opacity="0.1"/>
<circle cx="125.5" cy="59.5" r="71.5" fill="#79C3F2" fill-opacity="0.05"/>
<circle cx="125.5" cy="59.5" r="71" stroke="#4AB9FF" stroke-opacity="0.1"/>
<circle cx="125.5" cy="59.5" r="47.5" fill="#79C3F2" fill-opacity="0.1"/>
<circle cx="125.5" cy="59.5" r="47" stroke="#4AB9FF" stroke-opacity="0.1"/>
<g filter="url(#filter0_dddd_3359_358)">
<g clip-path="url(#clip1_3359_358)">
<rect x="104" y="37" width="44" height="44" rx="22" fill="white"/>
<rect x="104" y="37" width="44" height="44" rx="22" fill="url(#paint0_linear_3359_358)"/>
<g opacity="0.05">
<path d="M121.547 44.7251C122.073 44.2827 122.802 44.1717 123.436 44.4383L123.487 44.4591C123.288 44.7509 122.985 45.046 122.579 45.2123C122.186 45.3734 121.665 45.4264 120.987 45.1954L121.547 44.7251ZM119.428 42.3785C119.456 42.3633 119.501 42.355 119.552 42.3739C120.299 42.6524 120.807 43.3511 120.84 44.1472L120.851 44.4188L120.883 45.1606C119.56 44.6638 119.302 43.4181 119.392 42.4323C119.394 42.4156 119.398 42.4061 119.402 42.4002C119.406 42.3936 119.415 42.3858 119.428 42.3785Z" fill="white"/>
<path d="M121.547 44.7251C122.073 44.2827 122.802 44.1717 123.436 44.4383L123.487 44.4591C123.288 44.7509 122.985 45.046 122.579 45.2123C122.186 45.3734 121.665 45.4264 120.987 45.1954L121.547 44.7251ZM119.428 42.3785C119.456 42.3633 119.501 42.355 119.552 42.3739C120.299 42.6524 120.807 43.3511 120.84 44.1472L120.851 44.4188L120.883 45.1606C119.56 44.6638 119.302 43.4181 119.392 42.4323C119.394 42.4156 119.398 42.4061 119.402 42.4002C119.406 42.3936 119.415 42.3858 119.428 42.3785Z" fill="url(#paint1_linear_3359_358)"/>
<path d="M121.547 44.7251C122.073 44.2827 122.802 44.1717 123.436 44.4383L123.487 44.4591C123.288 44.7509 122.985 45.046 122.579 45.2123C122.186 45.3734 121.665 45.4264 120.987 45.1954L121.547 44.7251ZM119.428 42.3785C119.456 42.3633 119.501 42.355 119.552 42.3739C120.299 42.6524 120.807 43.3511 120.84 44.1472L120.851 44.4188L120.883 45.1606C119.56 44.6638 119.302 43.4181 119.392 42.4323C119.394 42.4156 119.398 42.4061 119.402 42.4002C119.406 42.3936 119.415 42.3858 119.428 42.3785Z" stroke="url(#paint2_linear_3359_358)" stroke-width="0.846154"/>
</g>
<g opacity="0.2">
<path d="M138.134 71.3718C138.807 71.2324 139.501 71.481 139.932 72.0166L139.967 72.0592C139.653 72.2213 139.247 72.3371 138.811 72.2907C138.388 72.2458 137.904 72.0447 137.417 71.5194L138.134 71.3718ZM137.384 68.3001C137.415 68.2998 137.459 68.314 137.495 68.355C138.02 68.9547 138.135 69.8109 137.786 70.5275L137.667 70.7717L137.342 71.4394C136.414 70.3738 136.779 69.1551 137.327 68.3305C137.336 68.3166 137.344 68.3101 137.35 68.3069C137.358 68.3031 137.369 68.3002 137.384 68.3001Z" fill="white"/>
<path d="M138.134 71.3718C138.807 71.2324 139.501 71.481 139.932 72.0166L139.967 72.0592C139.653 72.2213 139.247 72.3371 138.811 72.2907C138.388 72.2458 137.904 72.0447 137.417 71.5194L138.134 71.3718ZM137.384 68.3001C137.415 68.2998 137.459 68.314 137.495 68.355C138.02 68.9547 138.135 69.8109 137.786 70.5275L137.667 70.7717L137.342 71.4394C136.414 70.3738 136.779 69.1551 137.327 68.3305C137.336 68.3166 137.344 68.3101 137.35 68.3069C137.358 68.3031 137.369 68.3002 137.384 68.3001Z" fill="url(#paint3_linear_3359_358)"/>
<path d="M138.134 71.3718C138.807 71.2324 139.501 71.481 139.932 72.0166L139.967 72.0592C139.653 72.2213 139.247 72.3371 138.811 72.2907C138.388 72.2458 137.904 72.0447 137.417 71.5194L138.134 71.3718ZM137.384 68.3001C137.415 68.2998 137.459 68.314 137.495 68.355C138.02 68.9547 138.135 69.8109 137.786 70.5275L137.667 70.7717L137.342 71.4394C136.414 70.3738 136.779 69.1551 137.327 68.3305C137.336 68.3166 137.344 68.3101 137.35 68.3069C137.358 68.3031 137.369 68.3002 137.384 68.3001Z" stroke="url(#paint4_linear_3359_358)" stroke-width="0.846154"/>
</g>
<g opacity="0.2">
<path d="M140.064 47.4244C140.737 47.285 141.431 47.5336 141.862 48.0692L141.898 48.1118C141.583 48.2739 141.177 48.3897 140.741 48.3433C140.318 48.2984 139.834 48.0973 139.348 47.572L140.064 47.4244ZM139.314 44.3527C139.345 44.3524 139.389 44.3667 139.425 44.4076C139.95 45.0073 140.065 45.8635 139.717 46.5801L139.597 46.8243L139.273 47.492C138.345 46.4264 138.709 45.2077 139.257 44.3832C139.266 44.3692 139.274 44.3627 139.281 44.3595C139.288 44.3557 139.299 44.3529 139.314 44.3527Z" fill="white"/>
<path d="M140.064 47.4244C140.737 47.285 141.431 47.5336 141.862 48.0692L141.898 48.1118C141.583 48.2739 141.177 48.3897 140.741 48.3433C140.318 48.2984 139.834 48.0973 139.348 47.572L140.064 47.4244ZM139.314 44.3527C139.345 44.3524 139.389 44.3667 139.425 44.4076C139.95 45.0073 140.065 45.8635 139.717 46.5801L139.597 46.8243L139.273 47.492C138.345 46.4264 138.709 45.2077 139.257 44.3832C139.266 44.3692 139.274 44.3627 139.281 44.3595C139.288 44.3557 139.299 44.3529 139.314 44.3527Z" fill="url(#paint5_linear_3359_358)"/>
<path d="M140.064 47.4244C140.737 47.285 141.431 47.5336 141.862 48.0692L141.898 48.1118C141.583 48.2739 141.177 48.3897 140.741 48.3433C140.318 48.2984 139.834 48.0973 139.348 47.572L140.064 47.4244ZM139.314 44.3527C139.345 44.3524 139.389 44.3667 139.425 44.4076C139.95 45.0073 140.065 45.8635 139.717 46.5801L139.597 46.8243L139.273 47.492C138.345 46.4264 138.709 45.2077 139.257 44.3832C139.266 44.3692 139.274 44.3627 139.281 44.3595C139.288 44.3557 139.299 44.3529 139.314 44.3527Z" stroke="url(#paint6_linear_3359_358)" stroke-width="0.846154"/>
</g>
<g opacity="0.2">
<path d="M138.071 48.4854C137.728 49.0812 137.747 49.8184 138.121 50.3952L138.151 50.4419C138.403 50.1942 138.64 49.8441 138.732 49.4154C138.822 49.0002 138.782 48.4775 138.435 47.8509L138.071 48.4854ZM135.388 46.8127C135.377 46.8426 135.377 46.8887 135.405 46.9357C135.811 47.6216 136.588 47.9985 137.378 47.8915L137.647 47.8544L138.382 47.7548C137.66 46.5401 136.389 46.5057 135.434 46.7683C135.418 46.7728 135.409 46.7783 135.404 46.7832C135.399 46.7889 135.392 46.7984 135.388 46.8127Z" fill="white"/>
<path d="M138.071 48.4854C137.728 49.0812 137.747 49.8184 138.121 50.3952L138.151 50.4419C138.403 50.1942 138.64 49.8441 138.732 49.4154C138.822 49.0002 138.782 48.4775 138.435 47.8509L138.071 48.4854ZM135.388 46.8127C135.377 46.8426 135.377 46.8887 135.405 46.9357C135.811 47.6216 136.588 47.9985 137.378 47.8915L137.647 47.8544L138.382 47.7548C137.66 46.5401 136.389 46.5057 135.434 46.7683C135.418 46.7728 135.409 46.7783 135.404 46.7832C135.399 46.7889 135.392 46.7984 135.388 46.8127Z" fill="url(#paint7_linear_3359_358)"/>
<path d="M138.071 48.4854C137.728 49.0812 137.747 49.8184 138.121 50.3952L138.151 50.4419C138.403 50.1942 138.64 49.8441 138.732 49.4154C138.822 49.0002 138.782 48.4775 138.435 47.8509L138.071 48.4854ZM135.388 46.8127C135.377 46.8426 135.377 46.8887 135.405 46.9357C135.811 47.6216 136.588 47.9985 137.378 47.8915L137.647 47.8544L138.382 47.7548C137.66 46.5401 136.389 46.5057 135.434 46.7683C135.418 46.7728 135.409 46.7783 135.404 46.7832C135.399 46.7889 135.392 46.7984 135.388 46.8127Z" stroke="url(#paint8_linear_3359_358)" stroke-width="0.846154"/>
</g>
<path d="M123.388 62.0537C114.484 59.4845 96.5443 54.3462 96.0128 54.3462L94.551 70.5585L123.388 62.0537Z" fill="url(#paint9_linear_3359_358)"/>
<path d="M123.389 96.8509V62.0344L94.2693 70.6912V97.0029L123.389 96.8509Z" fill="url(#paint10_linear_3359_358)"/>
<g opacity="0.3">
<path d="M118.874 51.472C119.034 50.9406 119.637 50.7204 120.144 50.9467L124.87 53.059C126.335 53.7136 127.279 55.1676 127.279 56.7719V59.6576L127.438 59.432C128.469 57.9705 130.551 57.7501 131.865 58.9633L133.887 60.8295C134.385 61.2896 134.307 62.1086 133.762 62.5121C131.128 64.4613 128.848 66.9135 124.072 62.6927C119.151 58.3449 117.96 54.5126 118.874 51.472Z" fill="white"/>
<path d="M118.874 51.472C119.034 50.9406 119.637 50.7204 120.144 50.9467L124.87 53.059C126.335 53.7136 127.279 55.1676 127.279 56.7719V59.6576L127.438 59.432C128.469 57.9705 130.551 57.7501 131.865 58.9633L133.887 60.8295C134.385 61.2896 134.307 62.1086 133.762 62.5121C131.128 64.4613 128.848 66.9135 124.072 62.6927C119.151 58.3449 117.96 54.5126 118.874 51.472Z" fill="url(#paint11_linear_3359_358)"/>
<path d="M118.874 51.472C119.034 50.9406 119.637 50.7204 120.144 50.9467L124.87 53.059C126.335 53.7136 127.279 55.1676 127.279 56.7719V59.6576L127.438 59.432C128.469 57.9705 130.551 57.7501 131.865 58.9633L133.887 60.8295C134.385 61.2896 134.307 62.1086 133.762 62.5121C131.128 64.4613 128.848 66.9135 124.072 62.6927C119.151 58.3449 117.96 54.5126 118.874 51.472Z" stroke="url(#paint12_linear_3359_358)"/>
</g>
<path d="M123.36 49.594C123.488 49.3867 123.798 49.324 124.03 49.5286L127.01 52.1604C128.094 53.1173 128.491 54.6351 128.015 56.0002L126.798 59.4905L126.457 60.467L127.439 60.1399L129.08 59.593C130.692 59.056 132.469 59.456 133.695 60.6321L135.494 62.3586C135.711 62.5664 135.675 62.848 135.513 62.9778C134.424 63.8519 132.79 64.6966 130.87 64.8215C128.967 64.9454 126.733 64.3655 124.408 62.3118C122.078 60.2524 121.357 57.8454 121.438 55.5725C121.519 53.2781 122.421 51.1077 123.36 49.594Z" fill="white"/>
<path d="M123.36 49.594C123.488 49.3867 123.798 49.324 124.03 49.5286L127.01 52.1604C128.094 53.1173 128.491 54.6351 128.015 56.0002L126.798 59.4905L126.457 60.467L127.439 60.1399L129.08 59.593C130.692 59.056 132.469 59.456 133.695 60.6321L135.494 62.3586C135.711 62.5664 135.675 62.848 135.513 62.9778C134.424 63.8519 132.79 64.6966 130.87 64.8215C128.967 64.9454 126.733 64.3655 124.408 62.3118C122.078 60.2524 121.357 57.8454 121.438 55.5725C121.519 53.2781 122.421 51.1077 123.36 49.594Z" fill="url(#paint13_linear_3359_358)"/>
<path d="M123.36 49.594C123.488 49.3867 123.798 49.324 124.03 49.5286L127.01 52.1604C128.094 53.1173 128.491 54.6351 128.015 56.0002L126.798 59.4905L126.457 60.467L127.439 60.1399L129.08 59.593C130.692 59.056 132.469 59.456 133.695 60.6321L135.494 62.3586C135.711 62.5664 135.675 62.848 135.513 62.9778C134.424 63.8519 132.79 64.6966 130.87 64.8215C128.967 64.9454 126.733 64.3655 124.408 62.3118C122.078 60.2524 121.357 57.8454 121.438 55.5725C121.519 53.2781 122.421 51.1077 123.36 49.594Z" stroke="url(#paint14_linear_3359_358)" stroke-width="1.01682"/>
</g>
</g>
<g filter="url(#filter1_dddd_3359_358)">
<rect x="18" y="66" width="34" height="34" rx="17" fill="white"/>
<path d="M35.0007 75.5C30.857 75.5 27.5007 78.8562 27.5007 83C27.5007 86.3188 29.6476 89.1219 32.6289 90.1156C33.0039 90.1812 33.1445 89.9563 33.1445 89.7594C33.1445 89.5813 33.1351 88.9906 33.1351 88.3625C31.2507 88.7094 30.7632 87.9031 30.6132 87.4813C30.5289 87.2656 30.1632 86.6 29.8445 86.4219C29.582 86.2812 29.207 85.9344 29.8351 85.925C30.4257 85.9156 30.8476 86.4687 30.9882 86.6937C31.6632 87.8281 32.7414 87.5094 33.1726 87.3125C33.2382 86.825 33.4351 86.4969 33.6507 86.3094C31.982 86.1219 30.2382 85.475 30.2382 82.6063C30.2382 81.7906 30.5289 81.1156 31.007 80.5906C30.932 80.4031 30.6695 79.6344 31.082 78.6031C31.082 78.6031 31.7101 78.4062 33.1445 79.3719C33.7445 79.2031 34.382 79.1187 35.0195 79.1187C35.657 79.1187 36.2945 79.2031 36.8945 79.3719C38.3289 78.3969 38.957 78.6031 38.957 78.6031C39.3695 79.6344 39.107 80.4031 39.032 80.5906C39.5101 81.1156 39.8007 81.7813 39.8007 82.6063C39.8007 85.4844 38.0476 86.1219 36.3789 86.3094C36.6507 86.5438 36.8851 86.9938 36.8851 87.6969C36.8851 88.7 36.8757 89.5063 36.8757 89.7594C36.8757 89.9563 37.0164 90.1906 37.3914 90.1156C40.4442 89.085 42.4999 86.2222 42.5007 83C42.5007 78.8562 39.1445 75.5 35.0007 75.5Z" fill="#7869E8"/>
</g>
<g filter="url(#filter2_dddd_3359_358)">
<rect x="173" y="15" width="34" height="34" rx="17" fill="white"/>
<path d="M190.183 26C190.583 26.0022 191.586 26.0119 192.651 26.0545L193.028 26.071C194.1 26.1218 195.171 26.2085 195.703 26.3566C196.411 26.5557 196.968 27.1366 197.157 27.873C197.456 29.0423 197.494 31.3246 197.499 31.8769L197.499 31.9913V31.9993C197.499 31.9993 197.499 32.0021 197.499 32.0074L197.499 32.1219C197.494 32.6742 197.456 34.9564 197.157 36.1257C196.966 36.8648 196.409 37.4458 195.703 37.6421C195.171 37.7902 194.1 37.8769 193.028 37.9277L192.651 37.9441C191.586 37.9868 190.583 37.9965 190.183 37.9987L190.007 37.9993H189.999C189.999 37.9993 189.997 37.9993 189.992 37.9993L189.816 37.9987C188.968 37.9941 185.423 37.9558 184.296 37.6421C183.587 37.443 183.03 36.8621 182.842 36.1257C182.542 34.9564 182.505 32.6742 182.5 32.1219V31.8769C182.505 31.3246 182.542 29.0423 182.842 27.873C183.033 27.1339 183.59 26.553 184.296 26.3566C185.423 26.0429 188.968 26.0047 189.816 26H190.183ZM188.499 29.3744V34.6243L192.999 31.9993L188.499 29.3744Z" fill="#FF3535"/>
</g>
<g filter="url(#filter3_dddd_3359_358)">
<rect x="48" y="7" width="34" height="34" rx="17" fill="white"/>
<path d="M69.6672 17.3146C70.0334 17.6807 70.0334 18.2743 69.6672 18.6404L68.81 19.4972L69.6875 19.4975C71.2408 19.4975 72.5 20.7567 72.5 22.31V27.935C72.5 29.4883 71.2408 30.7475 69.6875 30.7475H60.3125C58.7592 30.7475 57.5 29.4883 57.5 27.935V22.31C57.5 20.7567 58.7592 19.4975 60.3125 19.4975L61.1872 19.4972L60.331 18.6412C59.9649 18.275 59.9649 17.6815 60.331 17.3153C60.6971 16.9492 61.2907 16.9492 61.6568 17.3153L63.6456 19.3041C63.7047 19.3632 63.7543 19.4283 63.7943 19.4973L66.2035 19.4975C66.2436 19.4281 66.2933 19.3627 66.3527 19.3034L68.3415 17.3146C68.7075 16.9485 69.3012 16.9485 69.6672 17.3146ZM69.6875 21.38H60.3125C59.8183 21.38 59.4134 21.7625 59.3776 22.2476L59.375 22.3175V27.9425C59.375 28.4368 59.7574 28.8417 60.2425 28.8775L60.3125 28.88H69.6875C70.1818 28.88 70.5867 28.4976 70.6224 28.0125L70.625 27.9425V22.3175C70.625 21.7998 70.2053 21.38 69.6875 21.38ZM62.1875 23.255C62.7053 23.255 63.125 23.6748 63.125 24.1925V25.13C63.125 25.6478 62.7053 26.0675 62.1875 26.0675C61.6697 26.0675 61.25 25.6478 61.25 25.13V24.1925C61.25 23.6748 61.6697 23.255 62.1875 23.255ZM67.8125 23.255C68.3303 23.255 68.75 23.6748 68.75 24.1925V25.13C68.75 25.6478 68.3303 26.0675 67.8125 26.0675C67.2947 26.0675 66.875 25.6478 66.875 25.13V24.1925C66.875 23.6748 67.2947 23.255 67.8125 23.255Z" fill="#72CBFE"/>
</g>
<g filter="url(#filter4_dddd_3359_358)">
<rect x="197" y="73" width="34" height="34" rx="17" fill="white"/>
<path d="M219.992 89.6787C219.927 88.4588 219.498 87.3356 218.812 86.4157C218.631 86.6131 218.409 86.8274 218.122 87.0687C217.441 87.6409 216.617 88.1573 215.638 88.5757C215.762 88.8379 215.877 89.0924 215.978 89.3324L215.979 89.3344C215.999 89.3807 216.016 89.4229 216.049 89.5063C216.053 89.5171 216.057 89.5273 216.061 89.5369C217.197 89.4091 218.393 89.4562 219.554 89.6134C219.708 89.6342 219.854 89.6561 219.992 89.6787ZM212.953 84.091C213.084 84.2747 213.22 84.4714 213.385 84.7153C213.845 85.3942 214.297 86.1104 214.72 86.8463C214.806 86.9956 214.89 87.1447 214.972 87.2933C215.889 86.9324 216.647 86.4771 217.258 85.9686C217.505 85.763 217.704 85.5698 217.855 85.4023C216.813 84.5271 215.468 84 214 84C213.643 84 213.293 84.0312 212.953 84.091ZM208.189 88.4982C208.624 88.4884 209.114 88.4621 209.72 88.4064C210.925 88.2957 212.156 88.0969 213.366 87.7896C212.929 87.0279 212.454 86.2675 211.971 85.5403C211.739 85.1908 211.513 84.8624 211.341 84.6198C209.797 85.3846 208.628 86.7949 208.189 88.4982ZM209.338 93.777C209.628 93.352 210.01 92.8735 210.518 92.3531C211.609 91.2358 212.896 90.3658 214.385 89.8855C214.406 89.8793 214.42 89.8752 214.432 89.8718C214.308 89.5988 214.192 89.3554 214.075 89.1256C212.698 89.5265 211.248 89.7772 209.802 89.9071C209.097 89.9704 208.465 89.9986 208 90.0033C208.001 91.4334 208.502 92.7465 209.338 93.777ZM216.253 95.5624C216.175 95.1559 216.075 94.7029 215.942 94.1805C215.702 93.2334 215.4 92.259 215.03 91.2808C213.528 91.8257 212.332 92.623 211.407 93.5737C210.962 94.0318 210.634 94.4653 210.42 94.8152C211.419 95.5595 212.658 96 214 96C214.797 96 215.558 95.8446 216.253 95.5624ZM217.658 94.7561C218.805 93.8724 219.624 92.583 219.899 91.1027C219.644 91.0399 219.321 90.9754 218.965 90.926C218.182 90.8173 217.376 90.7991 216.581 90.9014C216.92 91.8573 217.198 92.7999 217.421 93.7021C217.518 94.0961 217.597 94.4518 217.658 94.7561ZM214 97.5C209.858 97.5 206.5 94.1421 206.5 90C206.5 85.8579 209.858 82.5 214 82.5C218.142 82.5 221.5 85.8579 221.5 90C221.5 94.1421 218.142 97.5 214 97.5Z" fill="#F09BED"/>
</g>
<rect x="-14" width="280" height="40" fill="url(#paint15_linear_3359_358)"/>
<rect width="280" height="20" transform="matrix(1 0 0 -1 -14 120)" fill="url(#paint16_linear_3359_358)"/>
</g>
<defs>
<filter id="filter0_dddd_3359_358" x="92.0833" y="36.0833" width="57.75" height="63.25" filterUnits="userSpaceOnUse" color-interpolation-filters="sRGB">
<feFlood flood-opacity="0" result="BackgroundImageFix"/>
<feColorMatrix in="SourceAlpha" type="matrix" values="0 0 0 0 0 0 0 0 0 0 0 0 0 0 0 0 0 0 127 0" result="hardAlpha"/>
<feOffset dy="0.916667"/>
<feGaussianBlur stdDeviation="0.916667"/>
<feColorMatrix type="matrix" values="0 0 0 0 0.258824 0 0 0 0 0.717647 0 0 0 0 1 0 0 0 0.1 0"/>
<feBlend mode="normal" in2="BackgroundImageFix" result="effect1_dropShadow_3359_358"/>
<feColorMatrix in="SourceAlpha" type="matrix" values="0 0 0 0 0 0 0 0 0 0 0 0 0 0 0 0 0 0 127 0" result="hardAlpha"/>
<feOffset dx="-1.83333" dy="2.75"/>
<feGaussianBlur stdDeviation="1.83333"/>
<feColorMatrix type="matrix" values="0 0 0 0 0.258824 0 0 0 0 0.717647 0 0 0 0 1 0 0 0 0.09 0"/>
<feBlend mode="normal" in2="effect1_dropShadow_3359_358" result="effect2_dropShadow_3359_358"/>
<feColorMatrix in="SourceAlpha" type="matrix" values="0 0 0 0 0 0 0 0 0 0 0 0 0 0 0 0 0 0 127 0" result="hardAlpha"/>
<feOffset dx="-3.66667" dy="7.33333"/>
<feGaussianBlur stdDeviation="2.29167"/>
<feColorMatrix type="matrix" values="0 0 0 0 0.258824 0 0 0 0 0.717647 0 0 0 0 1 0 0 0 0.05 0"/>
<feBlend mode="normal" in2="effect2_dropShadow_3359_358" result="effect3_dropShadow_3359_358"/>
<feColorMatrix in="SourceAlpha" type="matrix" values="0 0 0 0 0 0 0 0 0 0 0 0 0 0 0 0 0 0 127 0" result="hardAlpha"/>
<feOffset dx="-6.41667" dy="12.8333"/>
<feGaussianBlur stdDeviation="2.75"/>
<feColorMatrix type="matrix" values="0 0 0 0 0.258824 0 0 0 0 0.717647 0 0 0 0 1 0 0 0 0.01 0"/>
<feBlend mode="normal" in2="effect3_dropShadow_3359_358" result="effect4_dropShadow_3359_358"/>
<feBlend mode="normal" in="SourceGraphic" in2="effect4_dropShadow_3359_358" result="shape"/>
</filter>
<filter id="filter1_dddd_3359_358" x="13" y="65" width="44" height="52" filterUnits="userSpaceOnUse" color-interpolation-filters="sRGB">
<feFlood flood-opacity="0" result="BackgroundImageFix"/>
<feColorMatrix in="SourceAlpha" type="matrix" values="0 0 0 0 0 0 0 0 0 0 0 0 0 0 0 0 0 0 127 0" result="hardAlpha"/>
<feOffset dy="1"/>
<feGaussianBlur stdDeviation="1"/>
<feColorMatrix type="matrix" values="0 0 0 0 0 0 0 0 0 0 0 0 0 0 0 0 0 0 0.05 0"/>
<feBlend mode="normal" in2="BackgroundImageFix" result="effect1_dropShadow_3359_358"/>
<feColorMatrix in="SourceAlpha" type="matrix" values="0 0 0 0 0 0 0 0 0 0 0 0 0 0 0 0 0 0 127 0" result="hardAlpha"/>
<feOffset dy="3"/>
<feGaussianBlur stdDeviation="1.5"/>
<feColorMatrix type="matrix" values="0 0 0 0 0 0 0 0 0 0 0 0 0 0 0 0 0 0 0.04 0"/>
<feBlend mode="normal" in2="effect1_dropShadow_3359_358" result="effect2_dropShadow_3359_358"/>
<feColorMatrix in="SourceAlpha" type="matrix" values="0 0 0 0 0 0 0 0 0 0 0 0 0 0 0 0 0 0 127 0" result="hardAlpha"/>
<feOffset dy="7"/>
<feGaussianBlur stdDeviation="2"/>
<feColorMatrix type="matrix" values="0 0 0 0 0 0 0 0 0 0 0 0 0 0 0 0 0 0 0.03 0"/>
<feBlend mode="normal" in2="effect2_dropShadow_3359_358" result="effect3_dropShadow_3359_358"/>
<feColorMatrix in="SourceAlpha" type="matrix" values="0 0 0 0 0 0 0 0 0 0 0 0 0 0 0 0 0 0 127 0" result="hardAlpha"/>
<feOffset dy="12"/>
<feGaussianBlur stdDeviation="2.5"/>
<feColorMatrix type="matrix" values="0 0 0 0 0 0 0 0 0 0 0 0 0 0 0 0 0 0 0.01 0"/>
<feBlend mode="normal" in2="effect3_dropShadow_3359_358" result="effect4_dropShadow_3359_358"/>
<feBlend mode="normal" in="SourceGraphic" in2="effect4_dropShadow_3359_358" result="shape"/>
</filter>
<filter id="filter2_dddd_3359_358" x="168" y="14" width="44" height="52" filterUnits="userSpaceOnUse" color-interpolation-filters="sRGB">
<feFlood flood-opacity="0" result="BackgroundImageFix"/>
<feColorMatrix in="SourceAlpha" type="matrix" values="0 0 0 0 0 0 0 0 0 0 0 0 0 0 0 0 0 0 127 0" result="hardAlpha"/>
<feOffset dy="1"/>
<feGaussianBlur stdDeviation="1"/>
<feColorMatrix type="matrix" values="0 0 0 0 0 0 0 0 0 0 0 0 0 0 0 0 0 0 0.05 0"/>
<feBlend mode="normal" in2="BackgroundImageFix" result="effect1_dropShadow_3359_358"/>
<feColorMatrix in="SourceAlpha" type="matrix" values="0 0 0 0 0 0 0 0 0 0 0 0 0 0 0 0 0 0 127 0" result="hardAlpha"/>
<feOffset dy="3"/>
<feGaussianBlur stdDeviation="1.5"/>
<feColorMatrix type="matrix" values="0 0 0 0 0 0 0 0 0 0 0 0 0 0 0 0 0 0 0.04 0"/>
<feBlend mode="normal" in2="effect1_dropShadow_3359_358" result="effect2_dropShadow_3359_358"/>
<feColorMatrix in="SourceAlpha" type="matrix" values="0 0 0 0 0 0 0 0 0 0 0 0 0 0 0 0 0 0 127 0" result="hardAlpha"/>
<feOffset dy="7"/>
<feGaussianBlur stdDeviation="2"/>
<feColorMatrix type="matrix" values="0 0 0 0 0 0 0 0 0 0 0 0 0 0 0 0 0 0 0.03 0"/>
<feBlend mode="normal" in2="effect2_dropShadow_3359_358" result="effect3_dropShadow_3359_358"/>
<feColorMatrix in="SourceAlpha" type="matrix" values="0 0 0 0 0 0 0 0 0 0 0 0 0 0 0 0 0 0 127 0" result="hardAlpha"/>
<feOffset dy="12"/>
<feGaussianBlur stdDeviation="2.5"/>
<feColorMatrix type="matrix" values="0 0 0 0 0 0 0 0 0 0 0 0 0 0 0 0 0 0 0.01 0"/>
<feBlend mode="normal" in2="effect3_dropShadow_3359_358" result="effect4_dropShadow_3359_358"/>
<feBlend mode="normal" in="SourceGraphic" in2="effect4_dropShadow_3359_358" result="shape"/>
</filter>
<filter id="filter3_dddd_3359_358" x="43" y="6" width="44" height="52" filterUnits="userSpaceOnUse" color-interpolation-filters="sRGB">
<feFlood flood-opacity="0" result="BackgroundImageFix"/>
<feColorMatrix in="SourceAlpha" type="matrix" values="0 0 0 0 0 0 0 0 0 0 0 0 0 0 0 0 0 0 127 0" result="hardAlpha"/>
<feOffset dy="1"/>
<feGaussianBlur stdDeviation="1"/>
<feColorMatrix type="matrix" values="0 0 0 0 0 0 0 0 0 0 0 0 0 0 0 0 0 0 0.05 0"/>
<feBlend mode="normal" in2="BackgroundImageFix" result="effect1_dropShadow_3359_358"/>
<feColorMatrix in="SourceAlpha" type="matrix" values="0 0 0 0 0 0 0 0 0 0 0 0 0 0 0 0 0 0 127 0" result="hardAlpha"/>
<feOffset dy="3"/>
<feGaussianBlur stdDeviation="1.5"/>
<feColorMatrix type="matrix" values="0 0 0 0 0 0 0 0 0 0 0 0 0 0 0 0 0 0 0.04 0"/>
<feBlend mode="normal" in2="effect1_dropShadow_3359_358" result="effect2_dropShadow_3359_358"/>
<feColorMatrix in="SourceAlpha" type="matrix" values="0 0 0 0 0 0 0 0 0 0 0 0 0 0 0 0 0 0 127 0" result="hardAlpha"/>
<feOffset dy="7"/>
<feGaussianBlur stdDeviation="2"/>
<feColorMatrix type="matrix" values="0 0 0 0 0 0 0 0 0 0 0 0 0 0 0 0 0 0 0.03 0"/>
<feBlend mode="normal" in2="effect2_dropShadow_3359_358" result="effect3_dropShadow_3359_358"/>
<feColorMatrix in="SourceAlpha" type="matrix" values="0 0 0 0 0 0 0 0 0 0 0 0 0 0 0 0 0 0 127 0" result="hardAlpha"/>
<feOffset dy="12"/>
<feGaussianBlur stdDeviation="2.5"/>
<feColorMatrix type="matrix" values="0 0 0 0 0 0 0 0 0 0 0 0 0 0 0 0 0 0 0.01 0"/>
<feBlend mode="normal" in2="effect3_dropShadow_3359_358" result="effect4_dropShadow_3359_358"/>
<feBlend mode="normal" in="SourceGraphic" in2="effect4_dropShadow_3359_358" result="shape"/>
</filter>
<filter id="filter4_dddd_3359_358" x="192" y="72" width="44" height="52" filterUnits="userSpaceOnUse" color-interpolation-filters="sRGB">
<feFlood flood-opacity="0" result="BackgroundImageFix"/>
<feColorMatrix in="SourceAlpha" type="matrix" values="0 0 0 0 0 0 0 0 0 0 0 0 0 0 0 0 0 0 127 0" result="hardAlpha"/>
<feOffset dy="1"/>
<feGaussianBlur stdDeviation="1"/>
<feColorMatrix type="matrix" values="0 0 0 0 0 0 0 0 0 0 0 0 0 0 0 0 0 0 0.05 0"/>
<feBlend mode="normal" in2="BackgroundImageFix" result="effect1_dropShadow_3359_358"/>
<feColorMatrix in="SourceAlpha" type="matrix" values="0 0 0 0 0 0 0 0 0 0 0 0 0 0 0 0 0 0 127 0" result="hardAlpha"/>
<feOffset dy="3"/>
<feGaussianBlur stdDeviation="1.5"/>
<feColorMatrix type="matrix" values="0 0 0 0 0 0 0 0 0 0 0 0 0 0 0 0 0 0 0.04 0"/>
<feBlend mode="normal" in2="effect1_dropShadow_3359_358" result="effect2_dropShadow_3359_358"/>
<feColorMatrix in="SourceAlpha" type="matrix" values="0 0 0 0 0 0 0 0 0 0 0 0 0 0 0 0 0 0 127 0" result="hardAlpha"/>
<feOffset dy="7"/>
<feGaussianBlur stdDeviation="2"/>
<feColorMatrix type="matrix" values="0 0 0 0 0 0 0 0 0 0 0 0 0 0 0 0 0 0 0.03 0"/>
<feBlend mode="normal" in2="effect2_dropShadow_3359_358" result="effect3_dropShadow_3359_358"/>
<feColorMatrix in="SourceAlpha" type="matrix" values="0 0 0 0 0 0 0 0 0 0 0 0 0 0 0 0 0 0 127 0" result="hardAlpha"/>
<feOffset dy="12"/>
<feGaussianBlur stdDeviation="2.5"/>
<feColorMatrix type="matrix" values="0 0 0 0 0 0 0 0 0 0 0 0 0 0 0 0 0 0 0.01 0"/>
<feBlend mode="normal" in2="effect3_dropShadow_3359_358" result="effect4_dropShadow_3359_358"/>
<feBlend mode="normal" in="SourceGraphic" in2="effect4_dropShadow_3359_358" result="shape"/>
</filter>
<linearGradient id="paint0_linear_3359_358" x1="126" y1="37" x2="126" y2="81" gradientUnits="userSpaceOnUse">
<stop stop-color="#0097FD"/>
<stop offset="1" stop-color="#A7DCFF"/>
</linearGradient>
<linearGradient id="paint1_linear_3359_358" x1="120.381" y1="41.2719" x2="122.166" y2="45.8292" gradientUnits="userSpaceOnUse">
<stop stop-color="white"/>
<stop offset="1" stop-color="#DBE6FF"/>
</linearGradient>
<linearGradient id="paint2_linear_3359_358" x1="119.933" y1="41.416" x2="122.074" y2="45.9266" gradientUnits="userSpaceOnUse">
<stop stop-color="white"/>
<stop offset="1" stop-color="white" stop-opacity="0"/>
</linearGradient>
<linearGradient id="paint3_linear_3359_358" x1="138.748" y1="67.779" x2="138.154" y2="72.6373" gradientUnits="userSpaceOnUse">
<stop stop-color="white"/>
<stop offset="1" stop-color="#DBE6FF"/>
</linearGradient>
<linearGradient id="paint4_linear_3359_358" x1="138.286" y1="67.6931" x2="138.026" y2="72.6791" gradientUnits="userSpaceOnUse">
<stop stop-color="white"/>
<stop offset="1" stop-color="white" stop-opacity="0"/>
</linearGradient>
<linearGradient id="paint5_linear_3359_358" x1="140.678" y1="43.8316" x2="140.084" y2="48.69" gradientUnits="userSpaceOnUse">
<stop stop-color="white"/>
<stop offset="1" stop-color="#DBE6FF"/>
</linearGradient>
<linearGradient id="paint6_linear_3359_358" x1="140.216" y1="43.7457" x2="139.957" y2="48.7317" gradientUnits="userSpaceOnUse">
<stop stop-color="white"/>
<stop offset="1" stop-color="white" stop-opacity="0"/>
</linearGradient>
<linearGradient id="paint7_linear_3359_358" x1="134.466" y1="47.9456" x2="139.267" y2="48.9002" gradientUnits="userSpaceOnUse">
<stop stop-color="white"/>
<stop offset="1" stop-color="#DBE6FF"/>
</linearGradient>
<linearGradient id="paint8_linear_3359_358" x1="134.529" y1="47.4797" x2="139.346" y2="48.7919" gradientUnits="userSpaceOnUse">
<stop stop-color="white"/>
<stop offset="1" stop-color="white" stop-opacity="0"/>
</linearGradient>
<linearGradient id="paint9_linear_3359_358" x1="123.388" y1="61.1325" x2="94.551" y2="63.7722" gradientUnits="userSpaceOnUse">
<stop stop-color="#BAE3FF"/>
<stop offset="1" stop-color="#6FC4FE" stop-opacity="0"/>
</linearGradient>
<linearGradient id="paint10_linear_3359_358" x1="123.389" y1="63.8101" x2="108.829" y2="97.0029" gradientUnits="userSpaceOnUse">
<stop stop-color="#0F9FFF"/>
<stop offset="0.484006" stop-color="#48B5FF" stop-opacity="0"/>
</linearGradient>
<linearGradient id="paint11_linear_3359_358" x1="128.357" y1="48.5233" x2="128.357" y2="65.3461" gradientUnits="userSpaceOnUse">
<stop stop-color="white"/>
<stop offset="1" stop-color="#DBE6FF"/>
</linearGradient>
<linearGradient id="paint12_linear_3359_358" x1="126.721" y1="48.4231" x2="127.899" y2="65.5442" gradientUnits="userSpaceOnUse">
<stop stop-color="white"/>
<stop offset="1" stop-color="white" stop-opacity="0"/>
</linearGradient>
<linearGradient id="paint13_linear_3359_358" x1="128.357" y1="48.5233" x2="128.357" y2="65.3462" gradientUnits="userSpaceOnUse">
<stop stop-color="white"/>
<stop offset="1" stop-color="#DBE6FF"/>
</linearGradient>
<linearGradient id="paint14_linear_3359_358" x1="126.721" y1="48.4231" x2="127.899" y2="65.5443" gradientUnits="userSpaceOnUse">
<stop stop-color="white"/>
<stop offset="1" stop-color="white" stop-opacity="0"/>
</linearGradient>
<linearGradient id="paint15_linear_3359_358" x1="126" y1="0" x2="126" y2="40" gradientUnits="userSpaceOnUse">
<stop stop-color="white"/>
<stop offset="1" stop-color="white" stop-opacity="0"/>
</linearGradient>
<linearGradient id="paint16_linear_3359_358" x1="140" y1="0" x2="140" y2="20" gradientUnits="userSpaceOnUse">
<stop offset="0.167693" stop-color="white"/>
<stop offset="1" stop-color="white" stop-opacity="0"/>
</linearGradient>
<clipPath id="clip0_3359_358">
<rect width="252" height="120" fill="white"/>
</clipPath>
<clipPath id="clip1_3359_358">
<rect x="104" y="37" width="44" height="44" rx="22" fill="white"/>
</clipPath>
</defs>
</svg>
