<svg width="165" height="43" viewBox="0 0 165 43" fill="none" xmlns="http://www.w3.org/2000/svg">
<path d="M46.4007 8.24711C46.4007 4.15685 44.4697 2.11172 40.6078 2.11172C38.9336 2.11172 37.4877 2.62538 36.2702 3.6527C35.0526 4.68002 34.1109 6.00222 33.445 7.61931C32.7792 9.23639 32.1228 11.1864 31.476 13.4693C30.8482 15.7523 30.287 18.0162 29.7923 20.2611C28.5557 25.7972 26.8055 30.4106 24.5416 34.1014C25.2265 34.4058 26.2728 34.9004 27.6806 35.5853C29.0884 36.2512 30.2204 36.7743 31.0765 37.1548C33.4736 38.2392 35.5758 38.7814 37.3831 38.7814C38.1821 38.7814 38.9336 38.5817 39.6375 38.1821C40.3414 37.7826 40.8741 37.3546 41.2356 36.898C41.6161 36.4224 41.9395 35.9848 42.2058 35.5853C42.4912 35.1858 42.6624 34.986 42.7195 34.986L44.0036 35.728C42.3295 38.886 40.5602 40.8456 38.6958 41.6065C37.8587 41.949 36.7838 42.1202 35.4711 42.1202C34.1585 42.1202 32.7126 41.8824 31.1336 41.4068C29.5736 40.9502 27.8138 40.2843 25.8543 39.4092C23.9138 38.5341 22.544 37.9538 21.745 37.6685C20.223 38.9812 18.273 40.056 15.895 40.8931C13.5359 41.7112 10.8249 42.1202 7.76199 42.1202C6.22101 42.1202 4.82271 41.8348 3.56709 41.2641C1.18903 40.1607 0 38.7624 0 37.0692C0 35.376 0.523173 33.9492 1.56952 32.7887C3.56709 30.5819 6.33515 29.4784 9.87371 29.4784C12.404 29.4784 15.0769 30.0016 17.8925 31.048C18.9198 31.4475 20.2611 31.9992 21.9162 32.7031C22.7343 30.4392 23.4287 27.8328 23.9994 24.884C24.5701 21.9352 25.1028 19.5001 25.5974 17.5786C26.0921 15.6381 26.5962 13.8593 27.1099 12.2423C27.6426 10.6061 28.3275 9.0176 29.1645 7.47662C30.0206 5.93564 30.9623 4.62295 31.9897 3.53855C34.2536 1.17952 37.2024 0 40.8361 0C43.5946 0 45.8395 0.799028 47.5707 2.39708C49.321 3.99514 50.1961 6.24003 50.1961 9.13175C50.1961 11.2815 49.7585 13.3742 48.8834 15.4098C48.0273 17.4264 46.8858 19.2052 45.459 20.7462C44.0322 22.2872 42.377 23.5904 40.4936 24.6557C38.6292 25.7211 36.6982 26.425 34.7007 26.7674L34.3011 25.1979C36.6221 24.6272 38.7148 23.4667 40.5792 21.7164C42.4436 19.9472 43.88 17.883 44.8883 15.524C45.8966 13.1459 46.4007 10.7203 46.4007 8.24711ZM1.79781 36.7268C1.79781 38.2297 2.73001 39.238 4.59441 39.7517C8.45638 40.817 12.2993 40.4841 16.1232 38.7529C17.5501 38.087 18.644 37.2594 19.405 36.2702C15.6001 33.7019 12.1471 32.4177 9.04614 32.4177C4.21392 32.4177 1.79781 33.8541 1.79781 36.7268Z" fill="url(#paint0_linear_3373_208)"/>
<path d="M68.802 24.5416C66.2528 31.3333 64.9781 35.4521 64.9781 36.898C64.9781 37.5068 65.1303 37.8112 65.4347 37.8112C66.2718 37.8112 67.4894 36.5936 69.0874 34.1585L70.3145 35.3285C69.3062 37.1358 68.1076 38.6387 66.7189 39.8373C65.3491 41.0168 64.2362 41.6065 63.3801 41.6065C61.6108 41.6065 60.7261 40.7124 60.7261 38.9241C60.7261 37.5353 61.0496 35.8421 61.6964 33.8446C62.3432 31.847 62.6666 30.8387 62.6666 30.8197C62.5715 30.9909 62.3432 31.3904 61.9818 32.0182C61.6203 32.627 61.354 33.0836 61.1827 33.388C61.0115 33.6924 60.7262 34.1585 60.3266 34.7863C59.9461 35.395 59.6227 35.8802 59.3564 36.2416C59.1091 36.5841 58.7666 37.0312 58.3291 37.5829C57.9105 38.1346 57.53 38.5721 57.1876 38.8956C56.8642 39.219 56.4742 39.5804 56.0176 39.98C55.561 40.3604 55.1234 40.6553 54.7049 40.8646C53.7537 41.3592 52.8215 41.6065 51.9083 41.6065C49.6444 41.6065 48.5124 40.3604 48.5124 37.8682C48.5124 36.7268 48.9215 34.9575 49.7395 32.5604C50.5576 30.1443 50.9666 28.727 50.9666 28.3084C50.9666 27.8709 50.8334 27.6521 50.5671 27.6521C49.8061 27.6521 48.7502 28.8601 47.3995 31.2762L45.5446 30.1633C48.151 25.997 50.6622 23.9138 53.0783 23.9138C53.8773 23.9138 54.5147 24.1421 54.9903 24.5987C55.4659 25.0362 55.6847 25.7211 55.6466 26.6533C55.6276 27.5665 55.1615 29.2121 54.2483 31.5902C53.3542 33.9492 52.9071 35.7565 52.9071 37.0121C52.9071 37.697 53.221 38.0395 53.8488 38.0395C54.5717 38.0395 55.4278 37.5829 56.4171 36.6697C57.4254 35.7375 58.3956 34.6055 59.3278 33.2738C60.8118 31.1811 62.3527 28.727 63.9508 25.9113L64.7213 24.5416H68.802Z" fill="url(#paint1_linear_3373_208)"/>
<path d="M90.0048 41.15H85.7814L86.3236 39.2665C86.5138 38.5246 86.8563 37.4402 87.3509 36.0133C88.4543 32.9124 89.006 30.4962 89.006 28.765C89.006 28.0231 88.6921 27.6521 88.0643 27.6521C87.2843 27.6521 86.3616 28.1182 85.2963 29.0504C84.2499 29.9636 83.2416 31.086 82.2714 32.4177C80.6543 34.6436 79.0562 37.0977 77.4772 39.7802L76.6782 41.15H72.6545C72.6545 41.15 72.9494 40.2558 73.5391 38.4675C75.1943 33.5211 76.0218 30.5914 76.0218 29.6782C76.0218 28.746 75.8696 28.2799 75.5652 28.2799C75.0135 28.2799 74.3572 28.9362 73.5962 30.2489C73.425 30.5533 73.2823 30.8006 73.1682 30.9909C73.054 31.1621 72.9208 31.3809 72.7686 31.6472C72.6355 31.8945 72.5499 32.0467 72.5118 32.1038L70.5999 30.9909C72.0838 28.5748 73.444 26.796 74.6806 25.6545C75.9172 24.494 77.1823 23.9138 78.476 23.9138C79.0657 23.9138 79.5699 24.1611 79.9884 24.6557C80.426 25.1504 80.6448 25.7401 80.6448 26.425C80.6448 27.0909 80.6067 27.6901 80.5306 28.2228C80.4545 28.7365 80.3689 29.2121 80.2738 29.6497C80.1787 30.0872 80.0455 30.6104 79.8743 31.2192C79.7031 31.828 79.5604 32.2941 79.4462 32.6175C79.3511 32.9409 79.2179 33.3785 79.0467 33.9302C78.8755 34.4819 78.7709 34.8053 78.7328 34.9004C79.1133 34.2346 79.7316 33.2358 80.5877 31.9041C81.4438 30.5723 82.005 29.7353 82.2714 29.3928C82.5567 29.0314 82.9277 28.5748 83.3843 28.0231C83.8409 27.4523 84.2404 27.0053 84.5828 26.6818C84.9443 26.3584 85.3724 25.997 85.867 25.5974C86.3616 25.1979 86.8277 24.8935 87.2653 24.6843C88.3307 24.1706 89.4056 23.9138 90.49 23.9138C91.5934 23.9138 92.4304 24.2277 93.0012 24.8555C93.5719 25.4643 93.8573 26.1872 93.8573 27.0243C93.8573 27.8423 93.7241 28.6984 93.4578 29.5926C93.2104 30.4867 92.8585 31.5331 92.4019 32.7316C91.9453 33.9111 91.6504 34.7102 91.5173 35.1287C93.3436 32.1609 94.7419 30.0682 95.7122 28.8506C98.3566 25.5594 100.972 23.9138 103.56 23.9138C104.834 23.9138 105.748 24.2182 106.299 24.827C106.851 25.4357 107.127 26.2633 107.127 27.3096C107.127 28.356 106.68 30.0967 105.786 32.5319C104.891 34.948 104.444 36.4319 104.444 36.9836C104.444 37.5353 104.616 37.8112 104.958 37.8112C105.719 37.8112 106.927 36.6031 108.582 34.187L109.809 35.3285C108.687 37.326 107.45 38.8765 106.1 39.98C104.749 41.0643 103.588 41.6065 102.618 41.6065C101.667 41.6065 101.001 41.2926 100.62 40.6648C100.24 40.037 100.05 39.2951 100.05 38.439C100.05 37.5638 100.43 36.0324 101.191 33.8446C101.952 31.6377 102.333 29.9445 102.333 28.765C102.333 28.0231 102 27.6521 101.334 27.6521C99.4315 27.6521 96.6824 30.4392 93.0868 36.0133C91.6219 38.2773 90.5946 39.9895 90.0048 41.15Z" fill="url(#paint2_linear_3373_208)"/>
<path d="M119.084 33.1311C123.06 26.9862 126.627 23.9138 129.785 23.9138C130.85 23.9138 131.649 24.2372 132.182 24.884C132.715 25.5309 132.981 26.3489 132.981 27.3382C132.981 28.3275 132.534 30.0397 131.64 32.4748C130.765 34.9099 130.327 36.4224 130.327 37.0121C130.327 37.5829 130.47 37.8682 130.755 37.8682C131.136 37.8682 131.697 37.4782 132.439 36.6982C133.181 35.8992 133.837 35.0621 134.408 34.187L135.607 35.3285C134.465 37.4021 133.209 38.9717 131.84 40.037C130.489 41.0834 129.386 41.6065 128.529 41.6065C127.692 41.6065 127.036 41.3307 126.56 40.779C126.085 40.2082 125.847 39.4378 125.847 38.4675C125.847 37.4973 126.227 35.9182 126.988 33.7304C127.768 31.5236 128.158 29.9636 128.158 29.0504C128.158 28.1182 127.845 27.6521 127.217 27.6521C126.494 27.6521 125.638 28.1182 124.648 29.0504C123.659 29.9636 122.698 31.086 121.766 32.4177C120.282 34.5485 118.77 37.0026 117.229 39.7802L116.458 41.15H112.435L113.319 38.4675C114.974 33.5211 115.802 30.5914 115.802 29.6782C115.802 28.746 115.65 28.2799 115.345 28.2799C114.794 28.2799 114.137 28.9362 113.376 30.2489C113.205 30.5533 113.062 30.8006 112.948 30.9909C112.834 31.1621 112.701 31.3809 112.549 31.6472C112.416 31.8945 112.33 32.0467 112.292 32.1038L110.38 30.9909C111.864 28.5748 113.224 26.796 114.461 25.6545C115.697 24.494 116.963 23.9138 118.256 23.9138C118.846 23.9138 119.35 24.1611 119.769 24.6557C120.206 25.1504 120.425 25.7496 120.425 26.4535C120.425 27.1575 120.368 27.8518 120.254 28.5367C120.14 29.2026 120.016 29.7638 119.883 30.2204C119.769 30.658 119.607 31.2287 119.398 31.9326C119.207 32.6365 119.103 33.036 119.084 33.1311Z" fill="#79C3F2"/>
<path d="M137.09 34.3582C137.09 32.9314 137.433 31.5616 138.118 30.2489C138.822 28.9172 139.725 27.7948 140.829 26.8816C143.264 24.903 145.747 23.9138 148.277 23.9138C150.807 23.9138 152.881 24.5891 154.498 25.9399C156.115 27.2906 156.923 28.9838 156.923 31.0194C156.923 33.036 156.362 34.8529 155.24 36.4699C154.136 38.087 152.671 39.3521 150.845 40.2653C149.019 41.1595 147.021 41.6065 144.852 41.6065C142.703 41.6065 140.867 40.9312 139.345 39.5804C137.842 38.2107 137.09 36.4699 137.09 34.3582ZM146.422 39.8373C147.297 39.8373 148.115 39.5519 148.876 38.9812C149.656 38.4104 150.246 37.6685 150.645 36.7553C151.425 35.005 151.815 33.1977 151.815 31.3333C151.815 29.4689 151.473 28.0611 150.788 27.1099C150.103 26.1396 149.133 25.6545 147.877 25.6545C146.622 25.6545 145.376 26.4726 144.139 28.1087C142.921 29.7448 142.313 31.828 142.313 34.3582C142.313 38.0109 143.682 39.8373 146.422 39.8373Z" fill="#79C3F2"/>
<defs>
<linearGradient id="paint0_linear_3373_208" x1="0" y1="21.0601" x2="156.923" y2="21.0601" gradientUnits="userSpaceOnUse">
<stop/>
<stop offset="1" stop-color="#969696"/>
</linearGradient>
<linearGradient id="paint1_linear_3373_208" x1="0" y1="21.0601" x2="156.923" y2="21.0601" gradientUnits="userSpaceOnUse">
<stop/>
<stop offset="1" stop-color="#969696"/>
</linearGradient>
<linearGradient id="paint2_linear_3373_208" x1="0" y1="21.0601" x2="156.923" y2="21.0601" gradientUnits="userSpaceOnUse">
<stop/>
<stop offset="1" stop-color="#969696"/>
</linearGradient>
</defs>
</svg>
